<?xml version="1.0" encoding="utf-8"?>
<!-- Generator: Adobe Illustrator 27.5.0, SVG Export Plug-In . SVG Version: 6.00 Build 0)  -->
<svg version="1.1" id="Layer_1" xmlns="http://www.w3.org/2000/svg" xmlns:xlink="http://www.w3.org/1999/xlink" x="0px" y="0px"
	 viewBox="0 0 1920 1080" style="enable-background:new 0 0 1920 1080;" xml:space="preserve">
<g>
	<defs>
		<rect id="SVGID_1_" width="1920" height="1080"/>
	</defs>
	<clipPath id="SVGID_00000069391369582810589570000017004186218385415065_">
		<use xlink:href="#SVGID_1_"  style="overflow:visible;"/>
	</clipPath>
	
		<rect style="clip-path:url(#SVGID_00000069391369582810589570000017004186218385415065_);fill-rule:evenodd;clip-rule:evenodd;fill:#EEEAE4;" width="1920" height="1080"/>
	<g style="clip-path:url(#SVGID_00000069391369582810589570000017004186218385415065_);">
		<path style="fill:#3E3615;" d="M1091.806,268.486c14.251-18.83-15.43-29.229-33.112-28.807c-3.421,0.662-6.844,1.325-10.265,1.987
			c-8.405,2.564-24.593,10.137-19.205,23.509C1036.014,282.024,1081.347,282.306,1091.806,268.486z"/>
		<path style="fill:#3E3615;" d="M1100.746,754.9c11.143-2.667,6.956-25.746,6.953-39.072c-0.007-31.75,2.812-96.332-10.265-113.905
			c-1.876-0.221-3.753-0.441-5.629-0.662c-9.461,7.428-7.296,19.038-9.603,34.105c-3.876,25.319,0.821,61.883,4.636,83.773
			C1088.74,730.044,1085.499,758.549,1100.746,754.9z"/>
		<path style="fill:#3E3615;" d="M1078.893,1026.748c0-0.331,0-0.662,0-0.993c-1.934-3.912-5.841-5.265-11.589-5.298
			c-4.234,1.642-6.542,0.876-9.271,3.642c0,0.11,0,0.221,0,0.331c3.191,3.129,12.889,4.814,17.88,5.629
			C1076.906,1028.956,1077.899,1027.852,1078.893,1026.748z"/>
		<path style="fill:#3E3615;" d="M1102.071,1029.729c-0.11-0.221-0.221-0.442-0.331-0.662c-2.349-0.688-4.967-1.07-8.278-0.993
			c-3.294,1.671-5.688,1.564-7.285,4.967c0.11,0.331,0.221,0.662,0.331,0.993
			C1090.937,1036.881,1101.902,1035.135,1102.071,1029.729z"/>
		<path style="fill:#3E3615;" d="M1074.588,962.511c2.603-3.927,4.659-23.947,3.311-29.47c-0.883-0.331-1.766-0.662-2.649-0.993
			c-3.869,6.632-3.781,21.389-1.987,30.463c0.442,0.221,0.883,0.441,1.324,0.662
			C1074.588,962.953,1074.588,962.732,1074.588,962.511z"/>
		<path style="fill:#3E3615;" d="M1083.528,516.163c6.895,3.246,14.584-2.878,19.536-4.967c0.973-1.294,1.512-1.316,1.656-3.642
			c-1.309-0.637-3.423-0.747-5.629-0.662c-2.649,0.772-5.298,1.545-7.947,2.318c-2.097,1.214-4.194,2.428-6.291,3.642
			C1084.019,514.032,1083.65,514.049,1083.528,516.163z"/>
		<path style="fill:#3E3615;" d="M975.252,277.426c-5.158,1.556-15.179,1.157-20.861,0.331c-15.23,0-30.464,0-45.694,0
			c-0.221,0.331-0.441,0.662-0.662,0.993c-3.774,9.419,23.936,5.957,31.456,5.96c25.862,0.01,51.224,3.955,55.628-18.543
			c1.799-9.191-3.156-15.692-7.947-18.543c-10.761-6.402-61.145-4.186-79.469-3.973c-10.614,4.053-21.198,2.44-24.834,13.245
			c-0.837,2.487-0.771,5.915,0.662,7.947c6.064,8.598,54.094,3.335,63.906,0.662c0.221-0.993,0.442-1.987,0.662-2.98
			c-2.777-1.481-7.537-0.746-11.258-0.662c-14.299,0.323-32.657,3.278-45.694-0.331c-0.552-0.552-1.104-1.104-1.656-1.656
			c2.152-4.121,8.011-6.37,12.914-7.616c8.061-2.048,17.902-0.662,27.152-0.662c12.581,0.11,25.166,0.221,37.747,0.331
			c9.285,1.365,18.323-0.156,20.198,8.278C989.52,269.273,980.95,275.708,975.252,277.426z"/>
		<path style="fill:#3E3615;" d="M1085.515,168.819c31.156-8.365,24.107-54.731-12.251-53.972
			c-9.806,3.864-17.591,4.435-21.523,13.907C1042.831,150.219,1063.171,174.818,1085.515,168.819z"/>
		<path style="fill:#3E3615;" d="M995.782,329.412c12.577,4.955,23.614,11.206,33.443,18.874
			c5.629,5.187,11.259,10.376,16.887,15.563c2.406-0.166,3.254-0.871,4.304-2.318c1.268-6.811-7.971-12.724-11.92-15.894
			c-16.09-12.916-33.962-25.847-58.608-30.132c-1.525,1.088-2.321,1.244-2.649,3.642
			C975.597,325.211,991.287,327.641,995.782,329.412z"/>
		<path style="fill:#3E3615;" d="M1136.176,1013.173c0-0.441,0-0.883,0-1.324c-0.993-0.221-1.987-0.442-2.98-0.662
			c-3.311,0.552-6.623,1.104-9.934,1.656c-7.445,2.251-15.515,5.083-21.523,8.94c0,0.331,0,0.662,0,0.993
			c0.221,0.11,0.441,0.221,0.662,0.331C1113.626,1019.163,1126.918,1018.824,1136.176,1013.173z"/>
		<path style="fill:#3E3615;" d="M894.128,209.878c16.07-3.332,17.232-25.962-3.311-25.165c-5.152,2.217-9.756,3.551-11.92,8.609
			C874.794,202.911,883.338,212.116,894.128,209.878z"/>
		<path style="fill:#3E3615;" d="M884.195,278.751c-0.441,0.221-0.883,0.442-1.324,0.662c-0.441,0.772-0.883,1.545-1.324,2.318
			c0.192,3.012,1.494,3.97,3.642,4.967c3.564,0.08,6.292-3.605,3.642-6.291C887.946,278.85,886.741,278.63,884.195,278.751z"/>
		<path style="fill:#3E3615;" d="M1018.298,46.637c1.052-3.673,0.951-7.699-1.656-9.602c-0.883-0.11-1.766-0.221-2.649-0.331
			c-1.674,1.011-2.774,1.117-3.642,2.98c-1.082,2.473,0.304,5.216,0.993,6.953C1013.95,48.292,1015.841,48.397,1018.298,46.637z"/>
		<path style="fill:#3E3615;" d="M506.388,124.118c12.606,3.154,14.073-15.199,15.894-23.841c5.8-27.528,3.879-68.881,3.642-100.991
			c-9.491,0-18.985,0-28.476,0c-0.772,30.901-1.545,61.812-2.318,92.713C497.14,104.987,494.828,121.227,506.388,124.118z"/>
		<path style="fill:#3E3615;" d="M976.246,917.479c-0.883-0.11-1.766-0.221-2.649-0.331c-0.552,0.442-1.104,0.883-1.656,1.324
			c-1.539,7.383-3.231,19.949-1.324,27.483c1.237,0.721,2.069,1.038,4.305,0.993C978.51,943.544,981.827,921.817,976.246,917.479z"
			/>
		<path style="fill:#3E3615;" d="M465.329,404.576c11.788,1.323,18.906-14.572,21.523-23.509
			c4.878-16.664,0.592-39.738-1.987-56.621c-2.593-16.978,1.524-33.395,3.642-47.019c1.652-10.622-5.987-20.214-15.563-20.198
			c-14.473,9.254-8.042,24.645-12.914,42.383c-3.655,13.305-14.36,20.037-17.549,31.456c-2.524,9.038,2.144,17.752,3.311,26.49
			c-0.221,8.167-0.441,16.336-0.662,24.503C447.065,393.262,453.582,403.258,465.329,404.576z"/>
		<path style="fill:#3E3615;" d="M1056.708,834.699c-5.395-8.922-17.038-12.362-31.456-12.251c-5.709,2.232-14.87,1.284-20.529,2.98
			c-11.896,3.565-20.848,9.027-34.767,11.258c-14.992,2.403-29.818-5.375-43.708-0.662c-6.656,2.258-18.246,10.302-14.9,20.86
			c4.074,12.858,26.091,0.436,38.41,2.649c9.369,1.683,19.279,7.518,31.125,5.629c10.333-1.648,18.692-5.212,29.47-5.298
			c15.52-0.123,31.343,5.979,43.377-1.324C1060.899,854.187,1061.413,842.482,1056.708,834.699z"/>
		<path style="fill:#3E3615;" d="M559.698,421.794c-0.221,9.712-0.442,19.427-0.662,29.138c-0.221,9.822-0.442,19.647-0.662,29.47
			c1.446,10.598,0.374,28.784,13.576,26.158c9.822-1.953,10.427-30.008,8.278-43.377c-0.11-4.856-0.221-9.713-0.331-14.569
			c-0.11-7.615-0.221-15.232-0.331-22.847c-0.347-22.642,2.29-50.898-1.987-71.522c-2.254-10.869-3.568-25.194-16.556-25.165
			c-1.651,1.38-3.369,2.565-3.973,4.967c0.883,11.367,1.766,22.738,2.649,34.105c1.642,10.189,1.97,25.357,0.331,35.761
			C559.919,409.873,559.808,415.835,559.698,421.794z"/>
		<path style="fill:#3E3615;" d="M465.66,64.517c16.386-3.189,11.41-45.912,13.576-65.23c-8.719,0-17.44,0-26.158,0
			c-2.308,16.54-3.186,41.347,1.656,55.297C456.254,58.963,458.847,65.843,465.66,64.517z"/>
		<path style="fill:#3E3615;" d="M1041.476,1010.855c0.552,0.552,1.104,1.104,1.656,1.656c3.871-1.909,5.493-5.342,7.285-9.271
			c-0.331-0.993-0.662-1.987-0.993-2.98c-1.104-0.221-2.208-0.442-3.311-0.662
			C1043.381,1001.731,1039.985,1005.736,1041.476,1010.855z"/>
		<path style="fill:#3E3615;" d="M420.297-0.713c-6.18,0-12.362,0-18.543,0C403.211,15.08,420.847,14.237,420.297-0.713z"/>
		<path style="fill:#3E3615;" d="M992.139,890.327c-3.283,3.483-5.61,18.53-2.318,24.834c3.773,2.74,8.528-20.902,3.311-24.834
			C992.802,890.327,992.47,890.327,992.139,890.327z"/>
		<path style="fill:#3E3615;" d="M982.868,978.736c0.763-1.42,0.5-3.101,0-4.636c-0.559-1.404-0.963-2.021-2.318-2.649
			c-0.993-0.11-1.987-0.221-2.98-0.331c-0.772,0.773-1.545,1.545-2.318,2.318c-0.718,3.323-0.063,5.958,1.324,7.947
			C979.598,982.052,981.875,981.07,982.868,978.736z"/>
		<path style="fill:#3E3615;" d="M1018.96,647.617c-4.194,0.552-8.389,1.104-12.583,1.656c-9.9,2.644-18.485,6.183-29.47,7.947
			c-11.052,1.775-21.121-2.74-30.132-4.305c-13.73-2.385-27.197,0.967-37.085,4.305c-9.338,3.152-29.476,6.007-25.165,20.86
			c3.498,12.053,23.794,2.551,31.456,0.662c4.756-1.172,9.189-0.763,14.9-1.324c13.44-1.322,23.968,6.907,38.079,4.305
			c10.801-1.992,18.506-6.191,31.456-7.616c15.484-1.703,32.862,6.737,47.35,0.993c6.991-2.772,13.519-15.513,5.298-22.185
			C1045.994,647.176,1031.823,647.393,1018.96,647.617z"/>
		<path style="fill:#3E3615;" d="M950.087,565.169c20.124-4.684,21.445-37.281-6.622-36.423c-7.518,3.098-12.395,4.678-14.9,12.583
			C924.383,554.523,935.75,568.506,950.087,565.169z"/>
		<path style="fill:#3E3615;" d="M898.102,590.334c-13.209,3.684-14.4,14.977-14.9,29.47c-0.122,3.538-0.246,10.158,1.325,13.245
			c5.027,9.878,24.057,5.035,33.112,2.318c8.417-2.526,21.1-5.441,32.781-3.311c8.322,1.517,19.181,4.367,29.47,2.649
			c13.284-2.218,23.315-7.175,36.423-9.602c9.502-1.76,23.911,1.6,31.125-2.649c5.709-3.362,13.089-24.728,4.967-30.794
			c-7.923-5.918-23.788-5.875-37.417-5.629c-6.732,1.324-13.466,2.649-20.198,3.973c-13.656,4.185-29.825,11.912-49.006,8.609
			C933.021,596.414,911.245,586.668,898.102,590.334z"/>
		<path style="fill:#3E3615;" d="M944.458,976.418c-0.442,0.552-0.883,1.104-1.324,1.656c-0.11,0.773-0.221,1.545-0.331,2.318
			c2.759,2.935,6.227,4.231,10.596,5.629c2.149-0.038,2.694-0.342,3.973-0.993C958.4,979.266,950.669,976.133,944.458,976.418z"/>
		<path style="fill:#3E3615;" d="M887.837,740c17.637,13.003,50.363-8.283,63.906-11.589c16.974-4.144,32.998,4.322,46.688,7.285
			c18.6,4.026,35.415-2.692,46.688-9.271c6.477-3.781,13.785-7.578,15.563-15.894c2.686-12.561-8.913-18.446-20.198-16.887
			c-11.769,1.626-20.765,4.469-32.118,6.291c-11.552,1.854-19.729-4.887-31.125-2.318c-5.393,1.216-10.099,5.805-17.88,4.305
			c-8.807-1.698-10.074-8.963-21.854-8.94c-7.715,3.24-15.713,5.665-23.509,7.616c-13.726,3.434-24.047,0.761-29.47,12.251
			C881.086,720.136,882.603,736.141,887.837,740z"/>
		<path style="fill:#3E3615;" d="M919.955,815.495c11.145-3.291,21.297-7.558,34.105-9.602c11.572-1.847,20.058,3.884,31.456,1.656
			c10.942-2.139,18.366-7.755,29.801-9.602c13.655-2.207,24.792,6.458,37.416,1.324c8.351-3.396,14.621-17.96,5.298-25.165
			c-5.798-4.48-14.766-6.173-23.509-7.616c-4.083-0.221-8.168-0.442-12.251-0.662c-7.505,0.441-15.011,0.883-22.516,1.324
			c-11.295,1.886-25.903,4.712-39.403,2.649c-35.564-5.435-90.847-9.434-75.826,39.403
			C888.02,820.564,908.597,818.849,919.955,815.495z"/>
		<path style="fill:#3E3615;" d="M502.415,234.712c3.581,4.523,8.666,12.734,16.225,12.914c0.773-0.993,1.545-1.987,2.318-2.98
			c-0.397-6.616-7.385-9.787-10.927-13.576c-6.787-7.26-13.696-15.802-17.88-25.496c-3.497-8.101-7.432-22.876-3.973-34.105
			c1.63-5.291,6.077-8.272,6.291-14.569c-0.773-0.772-1.545-1.545-2.318-2.318c-0.883-0.11-1.766-0.221-2.649-0.331
			c-5.188,3.456-6.906,8.551-8.94,15.231C471.868,198.029,490.959,220.24,502.415,234.712z"/>
		<path style="fill:#3E3615;" d="M877.241,981.716c3.065,7.36,21.528,15.968,30.463,9.602c0.897-3.119,0.808-4.504-0.331-7.285
			c-2.932-1.74-7.154-0.871-11.258-1.987c-5.308-1.443-8.172-5.848-14.238-6.291C879.391,977.296,877.491,977.857,877.241,981.716z"
			/>
		<path style="fill:#3E3615;" d="M452.416,145.31c24.131-4.256,24.576-47.149-6.622-46.357c-8.509,3.806-13.563,6.384-16.225,15.894
			C425.519,129.312,437.741,147.898,452.416,145.31z"/>
		<path style="fill:#3E3615;" d="M644.133,479.74c0.704,31.321,3.985,59.336,8.609,87.415c2.521,15.311,0.206,33.615,2.318,48.674
			c1.18,0.834,1.197,1.203,3.311,1.324c7.234-7.072,3.985-27.323,5.96-39.403c2.666-16.304,1.6-34.291,4.305-51.655
			c0.11-7.615,0.221-15.232,0.331-22.847c0-16.002,0-32.01,0-48.012c-1.751-11.566,2.154-29.648-5.298-35.43
			c-2.207-0.11-4.415-0.221-6.622-0.331c-2.302,1.367-5.064,1.899-6.622,3.973C643.349,432.867,643.754,462.848,644.133,479.74z"/>
		<path style="fill:#3E3615;" d="M665.325,61.868c5.154,1.3,7.669-5.852,8.94-9.934c4.269-13.709,3.641-35.314,3.311-52.648
			c-7.505,0-15.011,0-22.516,0C659.101,16.692,648.217,57.933,665.325,61.868z"/>
		<path style="fill:#3E3615;" d="M792.806,699.603c9.217-2.505,13.033-13.9,10.265-26.158c-3.169-14.034-7.234-30.072-24.834-29.801
			c-21.399,10.017-14.785,28.944-4.305,44.701C777.443,693.623,782.676,702.356,792.806,699.603z"/>
		<path style="fill:#3E3615;" d="M706.053,42.663c15.477,0.103,10.569-28.89,10.265-43.377c-6.291,0-12.583,0-18.874,0
			C697.302,15.306,695.238,37.31,706.053,42.663z"/>
		<path style="fill:#3E3615;" d="M737.84,877.745c36.851-6.498,36.291-64.432-7.947-63.575c-2.759,0.552-5.519,1.104-8.278,1.656
			c-8.614,3.255-15.406,9.478-18.874,17.88C693.27,856.658,713.712,881.999,737.84,877.745z"/>
		<path style="fill:#3E3615;" d="M684.199,705.563c18.526-3.744,24.202-34.331-2.318-33.443
			c-6.124,3.043-10.563,6.242-12.583,13.245C666.259,695.904,672.615,707.904,684.199,705.563z"/>
		<path style="fill:#3E3615;" d="M702.079,732.053c-5.797,19.041,11.186,39.672,30.463,36.423
			c34.497-5.815,33.135-57.779-6.291-56.952C713.441,716.711,706.286,718.234,702.079,732.053z"/>
		<path style="fill:#3E3615;" d="M715.986,664.836c4.312-1.91,3.826-7.411,2.318-11.589c-2.115-1.47-3.998-2.131-7.947-1.987
			c-5.243,2.758-9.458,3.834-12.583,8.609c-0.036,2.665,0.511,3.827,2.318,4.636C700.627,664.706,715.454,664.973,715.986,664.836z"
			/>
		<path style="fill:#3E3615;" d="M705.39,360.868c-4.327,15.513,8.427,30.941,24.834,27.814c24.482-4.665,23.545-44.84-5.298-44.37
			C714.716,348.17,708.387,350.126,705.39,360.868z"/>
		<path style="fill:#3E3615;" d="M565.989,221.136c3.201-1.435,6.402-2.87,9.602-4.305c3.421,10.374,6.843,20.751,10.265,31.125
			c6.845,17.433,17.798,33.241,17.218,57.615c-0.552,0.11-1.104,0.221-1.656,0.331c-11.357-12.754-20.355-28.695-38.079-35.099
			c-5.777-2.087-16.959-5.288-22.516-1.324c-0.973,3.535-0.143,5.015,1.656,7.285c18.04,4.068,26.771,4.057,36.423,16.556
			c4.74,6.139,15.456,26.072,27.483,23.178c11.703-2.816,4.042-31.946,1.324-40.065c-4.304-10.484-8.609-20.972-12.914-31.456
			c-5.605-14.502-8.604-29.822-14.569-43.377c-5.716-12.986-15.004-21.728-19.536-36.423c5.174-5.306,25.515,1.919,28.476,3.973
			c16.628,11.537,8.232,32.555,14.569,53.31c3.48,11.395,7.989,11.65,16.887,17.218c2.553,12.746,1.786,26.786,3.973,41.059
			c0.11,6.732,0.221,13.466,0.331,20.198c1.236,8.068-1.681,13.72,4.305,16.887c1.632,0.035,2.5-0.014,3.311-0.662
			c4.043-2.479,1.67-15.716,1.656-21.192c-0.552-12.581-1.104-25.166-1.656-37.748c-1.044-5.979-3.244-14.709-2.318-20.529
			c4.974-2.975,9.688-5.283,13.576-9.271c-0.11-0.662-0.221-1.325-0.331-1.987c-4.278-2.936-10.037,1.946-12.914,4.636
			c-0.442,0-0.883,0-1.324,0c-2.237-6.993,0.1-24.371-5.96-27.483c-1.104-0.11-2.208-0.221-3.311-0.331
			c-0.662,0.552-1.324,1.104-1.987,1.656c-1.908,7.934,0.751,17.445,1.324,25.165c-0.11,0.11-0.221,0.221-0.331,0.331
			c-15.272-3.386-9.552-29.226-13.245-44.701c-4.778-20.024-19.329-27.906-44.701-25.496c-0.11,0-0.221,0-0.331,0
			c-5.25-11.562,4.089-26.686-13.245-26.49c-10.12,5.73-9.475,14.995-4.967,26.49c5.741,14.639,17.165,24.081,24.834,37.085
			c1.771,3.003,6.995,9.989,5.96,13.907c-2.684,4.546-31.775,11.742-36.423,3.973c4.021-7.022,15.204-7.456,23.178-10.596
			c0.11-0.993,0.221-1.987,0.331-2.98c-0.662-0.552-1.324-1.104-1.987-1.656c-7.611-2.972-32.362,9.491-27.483,18.212
			C535.979,227.251,556.769,224.875,565.989,221.136z"/>
		<path style="fill:#3E3615;" d="M560.691,106.569c11.574,2.899,13.031-13.479,14.569-21.523c4.818-25.194,2.015-57.83,2.649-85.76
			c-9.602,0-19.206,0-28.807,0c0.552,27.149,1.104,54.306,1.656,81.455C552.478,91.724,550.87,104.109,560.691,106.569z"/>
		<path style="fill:#3E3615;" d="M615.657,346.63c-1.9-2.996-5.908-3.017-10.927-2.98c-1.324,0.662-2.649,1.324-3.973,1.987
			c-0.441,12.912-0.883,25.828-1.324,38.741c-0.552,11.809-1.104,23.621-1.656,35.43c-0.331,14.678-0.662,29.361-0.993,44.039
			c-1.929,31.493,0.871,63.944-3.642,93.376c-0.11,8.167-0.221,16.336-0.331,24.503c-0.001,11.197-1.595,25.166,1.324,34.436
			c1.872,5.945,9.97,6.792,13.576,1.987c3.693-16.199,1.698-36.68,4.636-52.979c8.465-46.965,13.599-109.348,5.629-161.255
			C616.304,393.033,619.634,352.902,615.657,346.63z"/>
		<path style="fill:#3E3615;" d="M589.83,651.26c0.976-3.008-2.521-5.37-5.96-5.298c-1.324,0.772-2.649,1.545-3.973,2.318
			C577.361,656.747,588.607,657.76,589.83,651.26z"/>
		<path style="fill:#3E3615;" d="M660.027,226.434c2.467,1.92,5.289,2.888,6.954,5.629c-2.538,8.829-5.077,17.661-7.616,26.49
			c-4.414,11.588-8.83,23.179-13.245,34.768c-1.907,5.244-6.248,17.981-0.662,22.185c10.053,1.9,26.871-28.234,31.125-36.092
			c1.76-3.25,6.328-8.463,5.298-12.914c-0.7-1.497-1.517-1.949-2.98-2.649c-0.772,0.11-1.545,0.221-2.318,0.331
			c-6.898,3.297-14.488,25.807-21.523,32.119c3.642-9.27,7.285-18.544,10.927-27.814c3.311-11.147,6.623-22.296,9.934-33.443
			c7.289-1.066,16.161,1.444,21.854-2.318c16.963-11.209-4.305-26.52-12.914-31.456c2.966-17.978,5.193-37.661,8.278-57.284
			c1.108-7.047,1.473-20.159-3.311-22.516c-1.214-0.11-2.428-0.221-3.642-0.331c-4.934,4.831-1.617,21.404-2.98,29.47
			c-1.876,13.906-3.753,27.815-5.629,41.721c-2.649,10.815-5.298,21.634-7.947,32.45c-0.331,0.221-0.662,0.441-0.993,0.662
			c-11.457-5.855-25.617-23.97-18.212-42.052c4.754-11.607,14.399-18.885,23.841-25.827c0-0.441,0-0.883,0-1.324
			c-0.221-0.11-0.442-0.221-0.662-0.331c-4.392,0.358-6.793,3.003-9.602,4.967c-12.469,8.717-27.598,25.879-18.212,47.681
			C648.635,215.165,654.62,222.225,660.027,226.434z M683.205,207.56c5.091,0.872,15.286,10.475,13.576,16.887
			c-1.516,3.802-11.536,8.443-17.88,5.629C677.12,228.663,682.293,211.336,683.205,207.56z"/>
		<path style="fill:#3E3615;" d="M614.664,122.794c12.371,1.94,12.896-16.705,14.569-26.49c1.829-10.7-0.619-23.246,1.324-35.099
			c0.11-20.638,0.221-41.282,0.331-61.919c-9.381,0-18.764,0-28.145,0c-0.11,30.239-0.221,60.487-0.331,90.727
			C602.411,103.57,603.166,120.99,614.664,122.794z"/>
		<path style="fill:#3E3615;" d="M575.923,720.132c9.675-2.305,9.86-18.698-2.649-18.211
			C561.134,707.212,563.987,722.976,575.923,720.132z"/>
		<path style="fill:#3E3615;" d="M855.718,146.303c12.202,2.344,20.629-23.735,1.324-22.847c-2.875,1.373-5.904,2.163-7.616,4.636
			C844.534,135.158,848.591,144.934,855.718,146.303z"/>
		<path style="fill:#3E3615;" d="M917.638-0.382c-12.14-0.11-24.283-0.221-36.423-0.331C890.15,18.423,908.811,20.206,917.638-0.382
			z"/>
		<path style="fill:#3E3615;" d="M866.976,101.271c17.614-3.418,21.76-37.249-4.636-36.423c-6.617,2.868-11.497,3.644-13.907,10.596
			C844.198,87.664,854.943,103.606,866.976,101.271z"/>
		<path style="fill:#3E3615;" d="M1101.077,64.517c-4.607,2.721-8.55,13.069-1.324,16.225c1.214,0,2.428,0,3.642,0
			c4.662-1.659,5.77-9.448,3.973-14.569C1105.59,65.061,1104.236,64.431,1101.077,64.517z"/>
		<path style="fill:#3E3615;" d="M835.52-0.713c-4.746,0-9.492,0-14.238,0c0.056,2.728,0.651,3.781,1.324,5.629
			C827.565,8.509,835.261,6.172,835.52-0.713z"/>
		<path style="fill:#3E3615;" d="M969.623,221.467c35.306-6.322,35.47-61.735-5.298-60.926c-3.201,0.662-6.402,1.324-9.602,1.987
			c-7.789,2.713-14.801,8.472-17.88,15.894C928.173,199.315,946.921,225.532,969.623,221.467z"/>
		<path style="fill:#3E3615;" d="M977.901,29.418c2.459-0.031,3.306-0.467,4.967-0.993c2.579-3.59,5.269-13.755-0.331-16.225
			c-1.324-0.11-2.649-0.221-3.973-0.331C973.28,15.322,970.564,25.939,977.901,29.418z"/>
		<path style="fill:#3E3615;" d="M985.848,130.41c33.522-7.185,33.471-61.45-10.596-60.595
			c-11.665,5.008-19.585,7.678-23.841,19.867C943.56,112.172,963.36,135.23,985.848,130.41z"/>
		<path style="fill:#3E3615;" d="M946.114,9.22c0.883-0.221,1.766-0.441,2.649-0.662c2.178-2.946,1.854-5.203,0.993-9.271
			c-3.09,0-6.181,0-9.271,0C940.383,4.635,942.607,7.514,946.114,9.22z"/>
		<path style="fill:#3E3615;" d="M523.606,306.565c-15.099,8.214-16.496,50.87-12.583,73.839
			c1.762,10.342,1.958,27.444,16.225,24.503c8.31-1.713,9.203-10.355,10.927-18.874c3.657-18.075,3.714-63.852-4.636-75.164
			C531.543,308.164,528.342,306.587,523.606,306.565z"/>
		<path style="fill:#3E3615;" d="M673.272,636.359c0.331,0.662,0.662,1.325,0.993,1.987c11.104,2.261,28.126-3.186,24.834-14.569
			c-1.439-1.008-2.033-1.629-4.636-1.656c-5.711,4.287-12.89,8.985-19.867,11.589C674.155,634.593,673.713,635.476,673.272,636.359z
			"/>
		<path style="fill:#3E3615;" d="M659.696,331.73c-3.306,2.03-5.652,3.632-7.616,6.953c-6.038,10.212-10.783,44.052,4.636,47.019
			C670.745,388.402,684.221,331.195,659.696,331.73z"/>
		<path style="fill:#3E3615;" d="M712.013,464.177c30.356-5.081,28.43-50.615-4.305-49.999
			c-10.326,4.135-17.233,6.022-20.529,16.887C682.141,447.669,695.246,466.984,712.013,464.177z"/>
		<path style="fill:#3E3615;" d="M727.906,245.97c4.532,29.582,2.279,61.895,31.787,66.555c20.67,3.264,32.377-12.009,37.748-24.834
			c4.666-11.142,6.303-24.319,8.609-38.41c0.331-5.96,0.662-11.921,0.993-17.88c0.11-10.264,0.221-20.53,0.331-30.794
			c0.11-12.361,0.221-24.725,0.331-37.085c-0.001-24.898,1.099-50.893-2.649-72.846c-3.703-21.691-6.581-51.355-31.456-51.323
			c-30.469,14.446-36.653,67.09-43.377,106.289c-0.883,10.484-1.766,20.972-2.649,31.456c-1.799,11.638-2.067,36.194-0.331,48.012
			C727.465,232.062,727.686,239.017,727.906,245.97z"/>
		<path style="fill:#3E3615;" d="M767.641,474.773c-4.635,0.772-9.272,1.545-13.907,2.318c-17.568,5.31-30.769,17.252-37.416,33.443
			c-15.912,38.755,8.444,72.532,37.416,81.455c5.645,1.739,14,3.934,22.185,2.649c24.298-3.816,40.293-15.501,48.674-35.099
			C843.594,515.109,811.628,474.197,767.641,474.773z"/>
		<path style="fill:#3E3615;" d="M706.384,241.666c-3.432-2.05-9.867-1.797-15.563-1.656c-2.207,0.11-4.415,0.221-6.622,0.331
			c-0.753,3.636,17.379,8.648,20.86,6.291C706.819,245.655,706.881,243.931,706.384,241.666z"/>
		<path style="fill:#3E3615;" d="M818.633,669.471c-4.452,7.304,0.749,19.236,10.265,17.549
			c13.019-2.308,12.386-23.191-3.311-22.516C822.793,665.906,820.201,666.9,818.633,669.471z"/>
		<path style="fill:#3E3615;" d="M1636.166,320.141c0.873-5.853-0.753-12.556-4.305-14.238c-0.772-0.11-1.545-0.221-2.318-0.331
			c-0.221,0.11-0.441,0.221-0.662,0.331c-2.017,3.546,0.573,10.77-0.331,16.556c-2.072,13.256,1.723,42.857,6.954,50.33
			c1.788,0.518,3.954,1.008,5.629,0c0.662-0.662,1.325-1.324,1.987-1.987c1.459-3.92-1.884-9.971-2.98-13.576
			C1637.009,346.934,1634.15,333.646,1636.166,320.141z"/>
		<path style="fill:#3E3615;" d="M1584.18,70.477c0,0.441,0,0.883,0,1.324c0.331,0.331,0.662,0.662,0.993,0.993
			c4.88-0.622,8.419-6.657,10.927-9.934c-0.11-0.552-0.221-1.104-0.331-1.656c-0.772-0.11-1.545-0.221-2.318-0.331
			C1589.721,64.075,1586.48,65.724,1584.18,70.477z"/>
		<path style="fill:#3E3615;" d="M1467.957,115.509c1.456,13.582,29.614,6.409,32.781-5.96c3.586-14.009-8.201-14.138-18.212-16.225
			c-4.304-0.772-8.609-1.545-12.914-2.318c-0.552,0.662-1.104,1.324-1.656,1.987c1.109,5.524,12.322,8.533,15.563,14.569
			c-0.11,0.331-0.221,0.662-0.331,0.993C1476.375,110.214,1471.754,110.981,1467.957,115.509z"/>
		<path style="fill:#3E3615;" d="M1459.017,420.139c1.412,6.202,1.51,13.484,5.96,16.556c6.098,4.209,15.907,1.305,20.198-1.987
			c10.252-7.865,13.497-32.059,10.596-51.323c-1.356-9.001,1.642-25.435,10.596-20.86c9.311,4.522,9.292,36.574,8.609,51.655
			c-0.254,5.602-0.848,12.709,1.324,16.887c1.789,3.44,5.082,4.812,8.94,6.291c1.954,0.749,5.306,2.129,8.278,1.656
			c18.921-3.012,17.223-31.074,17.218-52.648c-0.002-10.506-2.08-23.766,4.967-27.483c12.02,1.409,12.812,37.671,10.596,52.317
			c-1.548,10.232,4.005,19.105,13.907,15.563c18.106-6.478,18.426-34.358,21.854-55.959c0.11-5.628,0.221-11.259,0.331-16.887
			c0-10.705,0-21.413,0-32.119c-1.104-11.367-2.208-22.738-3.311-34.105c-9.766-44.744-24.663-61.396-79.8-60.926
			c-7.394,0.883-14.791,1.766-22.185,2.649c-14.084,3.223-27.505,7.983-37.748,15.231c-37.39,26.461-16.319,86.135-7.616,128.143
			C1454.16,388.57,1456.589,404.357,1459.017,420.139z"/>
		<path style="fill:#3E3615;" d="M1500.738,84.053c0.552-0.441,1.104-0.883,1.656-1.324c-0.536-6.397-10.521-10.296-17.549-10.265
			c-1.489,0.827-2.201,0.726-2.98,2.318c-0.11,0.772-0.221,1.545-0.331,2.318C1485.808,81.702,1491.554,84.315,1500.738,84.053z"/>
		<path style="fill:#3E3615;" d="M1467.626,182.395c2.15-0.974,3.111-2.698,3.974-4.967c-0.154-4.349-2.157-3.944-3.974-6.291
			c-1.149-3.837,3.86-8.771,5.629-11.258c7.642-10.743,19.675-16.674,28.145-26.49c0-0.442,0-0.883,0-1.325
			c-1.382-0.975-1.961-1.393-4.636-1.324c-12.105,9.405-24.342,19.742-33.112,32.45c-3.72,5.39-7.966,12.355-2.98,19.205
			C1463.073,183.086,1465.429,183.735,1467.626,182.395z"/>
		<path style="fill:#3E3615;" d="M1571.266,62.199c4.966,0.637,16.488-26.239,16.556-33.443c-0.11-0.221-0.221-0.441-0.331-0.662
			c-0.883-0.331-1.766-0.662-2.649-0.993c-4.752,3.835-18.528,24.237-13.907,34.105
			C1571.046,61.537,1571.156,61.868,1571.266,62.199z"/>
		<path style="fill:#3E3615;" d="M1559.015,60.544c4.244-0.248,5.563-6.897,4.636-12.251c-1.879-10.859-4.45-22.611-7.616-32.119
			c-1.599-1.13-2.458-1.955-5.298-1.987c-0.772,0.331-1.545,0.662-2.318,0.993C1542.958,23.778,1550.908,61.018,1559.015,60.544z"/>
		<path style="fill:#3E3615;" d="M1539.479,51.272c0.331-0.11,0.662-0.221,0.993-0.331c1.34-6.431-3.962-14.552-10.265-14.569
			c-0.662,0.772-1.324,1.545-1.987,2.318C1525.846,44.072,1534.644,53.304,1539.479,51.272z"/>
		<path style="fill:#3E3615;" d="M1422.594,655.895c10.949,2.331,13.028-9.473,14.569-17.218
			c2.553-12.829,2.367-33.433,0.331-47.019c-0.221-12.692-0.442-25.387-0.662-38.079c-2.062-13.677,4.336-26.385-11.92-26.158
			c-3.391,1.758-6.461,2.394-8.609,5.298c-11.528,15.588-4.955,62.737-1.656,84.435
			C1416.73,630.856,1409.83,653.178,1422.594,655.895z"/>
		<path style="fill:#3E3615;" d="M1596.431,560.202c-2.661-17.616-1.318-31.359-21.854-31.125c-2.538,0.772-5.078,1.545-7.616,2.318
			c-5.281,3.659-7.325,27.772-5.629,38.741c3.519,22.754,4.416,51.12,3.642,75.495c-0.554,17.461-2.056,43.952,18.211,40.396
			c11.88-2.084,14.049-24.834,11.589-40.728C1590.307,616.422,1600.656,588.165,1596.431,560.202z"/>
		<path style="fill:#3E3615;" d="M1469.944,615.83c-2.903,1.498-5.426,1.793-6.622,4.967c-2.501,6.636-1.039,17.17-0.993,25.165
			c0.102,17.811-4.041,45.989,17.218,42.052C1503.711,683.539,1501.008,615.358,1469.944,615.83z"/>
		<path style="fill:#3E3615;" d="M1481.864,482.72c-2.42-3.533-8.881-3.048-14.9-2.98c-2.685,1.365-5.332,1.622-6.953,3.973
			c-9.249,13.418-2.561,66.697,0.331,83.111c1.847,10.482-1.58,29.721,12.914,27.152c19.228-3.409,15.19-33.616,12.251-52.648
			c-0.662-9.27-1.324-18.544-1.987-27.814C1482.144,504.137,1486.352,489.271,1481.864,482.72z"/>
		<path style="fill:#3E3615;" d="M1359.681,463.515c-1.999,6.191,16.901,3.974,21.854,3.973c25.052,0.11,50.112,0.221,75.164,0.331
			c0.552-0.552,1.104-1.104,1.656-1.656c0.11-0.772,0.221-1.545,0.331-2.318c-0.552-0.662-1.104-1.324-1.656-1.987
			c-6.063-1.506-13.77-0.203-21.192-1.324c-18.32-0.221-36.646-0.442-54.966-0.662
			C1375.098,461.965,1361.516,457.833,1359.681,463.515z"/>
		<path style="fill:#3E3615;" d="M1475.242,834.699c19.569-3.982,13.472-60.995,10.265-81.124
			c-0.772-6.511-1.545-13.025-2.318-19.536c-2.26-13.108,0.4-26.228-15.231-26.158c-1.903,1.006-4.427,1.309-5.629,2.98
			c-3.455,4.802-3.647,19.99-2.649,28.145c2.761,22.562,1.793,43.658,4.967,65.23
			C1466.294,815.438,1459.98,837.805,1475.242,834.699z"/>
		<path style="fill:#3E3615;" d="M1522.923,491.329c-3.654,1.69-6.632,2.041-8.609,5.298c-4.316,7.11-3.432,21.604-3.311,32.45
			c0.236,21.167,2.489,40.89,0.662,61.919c-1.299,14.954,2.765,36.966,18.212,33.774c11.934-2.466,15.029-18.266,12.583-33.774
			c-2.066-13.099,2.065-28.896,0-41.721c-1.987-9.381-3.974-18.764-5.96-28.145C1534.07,506.153,1540.918,491.165,1522.923,491.329z
			"/>
		<path style="fill:#3E3615;" d="M1524.91,806.554c18.344-3.125,25.072-43.115,9.934-54.635c-3.521-2.68-8.464-3.122-14.9-2.98
			c-3.042,1.399-6.492,1.723-8.278,4.305c-2.857,4.129-1.881,12.863-1.987,19.536
			C1509.449,787.253,1507.578,809.507,1524.91,806.554z"/>
		<path style="fill:#3E3615;" d="M1576.895,714.834c-3.83,1.767-7.193,1.881-9.271,5.298c-3.533,5.81-2.65,18.11-2.649,26.821
			c0.003,19.656,3.65,45.686,11.92,57.284c0.662,0.221,1.325,0.441,1.987,0.662c7.934-0.167,9.789-7.847,11.589-14.238
			c3.494-12.406,7.213-62.278-0.331-72.515C1587.652,714.769,1582.956,714.714,1576.895,714.834z"/>
		<path style="fill:#3E3615;" d="M1534.843,650.929c-3.071-2.306-7.845-3.056-13.245-2.98c-3.776,1.555-7.009,1.72-9.934,3.311
			c-2.397,6.663-0.791,17.465-1.324,26.158c-1.001,16.311-1.829,47.395,18.212,42.714c6.153-1.437,10.61-6.92,12.583-12.583
			C1545.897,693.881,1542.829,656.924,1534.843,650.929z"/>
		<path style="fill:#3E3615;" d="M1514.645,76.106c0.772,0.11,1.545,0.221,2.318,0.331c0.331-0.772,0.662-1.545,0.993-2.318
			c-3.261-4.838-11.137-17.661-11.589-23.841c11.937,1.278,17.012,14.089,26.158,16.225c2.013,0.612,3.248-1.281,3.973-2.98
			c-0.278-6.445-27.629-25.121-35.43-21.854c-1.593,0.562-2.325,1.16-2.98,2.649C1492.746,50.896,1510.474,74.41,1514.645,76.106z"
			/>
		<path style="fill:#3E3615;" d="M1608.021,118.82c-1.077,0.933-1.606,1.28-2.318,2.649c0.592,14.512,22.337,8.452,28.145,15.894
			c3.858,4.942-2.555,15.193,4.305,16.556c4.939-3.248,6.724-11.758,2.98-17.88c-1.655-1.655-3.311-3.311-4.967-4.967
			c-4.856-1.766-9.713-3.532-14.569-5.298C1616.876,123.697,1614.481,118.863,1608.021,118.82z"/>
		<path style="fill:#3E3615;" d="M1624.245,55.246c-1.163-1.241-1.498-1.931-3.642-2.318c-6.055,3.135-15.919,6.699-16.225,15.232
			c0.662,0.772,1.324,1.545,1.987,2.318C1613.686,72.402,1623.799,62.161,1624.245,55.246z"/>
		<path style="fill:#3E3615;" d="M1626.232,468.151c-23.411,31.079,8.874,67.698,14.569,95.031
			c0.442,6.511,0.883,13.025,1.324,19.536c-1.732,11.103-6.707,41.955,7.947,40.728c15.213-1.274,18.342-20.549,24.503-31.125
			c10.259-17.611,18.323-36.011,22.847-59.601c1.277-6.657,1.394-16.862,0.331-23.841c-4.808-31.585-14.627-50.578-50.992-49.999
			C1637.485,462.483,1631.87,460.667,1626.232,468.151z"/>
		<path style="fill:#3E3615;" d="M1613.65,91.669c-0.221-0.441-0.442-0.883-0.662-1.324c2.181-2.19,6.094-3.901,7.285-6.953
			c-0.92-1.357-1.292-1.648-3.642-1.656c-3.203,2.021-9.273,3.86-10.596,7.616c0.11,0,0.221,0,0.331,0
			c1.743-1.042,2.526-2.284,4.967-2.649c0.11,0.331,0.221,0.662,0.331,0.993c-1.705,3.044-5.009,3.898-5.629,7.947
			c2.671,6.572,15.164,6.738,21.854,8.94c0.441,2.207,0.883,4.415,1.324,6.622c0.883,0.331,1.766,0.662,2.649,0.993
			c1.552-0.753,2.648-1.351,3.642-2.649C1639.47,94.142,1619.631,98.956,1613.65,91.669z"/>
		<path style="fill:#3E3615;" d="M404.072,51.272c10.468-2.006,11.738-22.265-2.98-21.523
			C392.024,35.054,392.564,53.478,404.072,51.272z"/>
		<path style="fill:#3E3615;" d="M1687.82,342.657c27.797-4.576,33.569-55.516-3.642-54.635
			c-10.251,4.341-16.073,6.627-19.536,17.549C1659.115,323.008,1669.426,345.685,1687.82,342.657z"/>
		<path style="fill:#3E3615;" d="M1609.676,178.753c5.437-3.594-13.297-23.111-17.218-24.834c-0.772-0.11-1.545-0.221-2.318-0.331
			c-0.552,0.662-1.104,1.324-1.656,1.987C1590.441,160.371,1604.188,180.558,1609.676,178.753z"/>
		<path style="fill:#3E3615;" d="M1669.609,375.769c1.196-0.233,0.999-0.132,1.656-0.662c4.846-2.724,2.661-12.714,0.993-16.887
			c-1.294-0.904-1.778-1.498-3.973-1.656C1662.788,360.494,1663.786,372.983,1669.609,375.769z"/>
		<path style="fill:#3E3615;" d="M1710.005,437.357c14.112,11.142,44.679,15.963,68.873,11.258
			c36.459-7.091,76.723-20.817,89.733-50.661c3.947-9.054,4.802-21.455,1.324-31.456c-9.089-26.139-30.67-32.968-65.562-33.112
			c-4.415,0.221-8.83,0.441-13.245,0.662c-9.822,1.435-19.647,2.87-29.47,4.305c-25.21,6.326-51.014,17.758-60.264,40.065
			C1693.565,397.304,1697.222,427.264,1710.005,437.357z"/>
		<path style="fill:#3E3615;" d="M1519.281,149.283c-0.442-0.552-0.883-1.104-1.324-1.656c-0.662,0-1.324,0-1.987,0
			c-6.675,5.318-12.163,13.025-15.231,21.854c0.11,0.221,0.221,0.442,0.331,0.662
			C1507.841,169.913,1518.822,156.026,1519.281,149.283z"/>
		<path style="fill:#3E3615;" d="M1530.539,164.184c-2.492,2.428-8.934,28.261-5.629,33.443c0.221,0.331,0.442,0.662,0.662,0.993
			c4.4-1.034,13.726-31.126,7.616-34.105C1532.305,164.404,1531.422,164.294,1530.539,164.184z"/>
		<path style="fill:#3E3615;" d="M1506.698,138.356c-0.552-0.11-1.104-0.221-1.656-0.331c-5.134,3.265-20.769,12.634-21.854,18.543
			c0.331,0.442,0.662,0.883,0.993,1.325c9.126-2.191,15.245-11.137,23.841-14.569c0.656-1.047,0.895-1.13,0.993-2.98
			C1508.244,139.681,1507.471,139.019,1506.698,138.356z"/>
		<path style="fill:#3E3615;" d="M1587.16,199.613c0.552,0,1.104,0,1.656,0c0.221-0.441,0.441-0.883,0.662-1.324
			c3.316-8.511-11.306-39.423-15.894-41.39c-0.993-0.11-1.987-0.221-2.98-0.331c-0.331,0.442-0.662,0.883-0.993,1.325
			C1566.776,172.969,1578.252,195.111,1587.16,199.613z"/>
		<path style="fill:#3E3615;" d="M1552.061,92c-3.822,1.562-7.124,2.523-9.271,5.629c-5.528,7.998-3.348,21.79,6.291,23.509
			C1566.832,124.305,1569.783,91.713,1552.061,92z"/>
		<path style="fill:#3E3615;" d="M1551.068,208.885c0.772,0.221,1.545,0.442,2.318,0.662c14.288-7.824,4.405-26.46,0.993-37.416
			c-1.362-4.374-0.898-12.217-4.636-14.238c-0.772-0.11-1.545-0.221-2.318-0.331c-8.543,7.178,0.164,20.981,1.656,29.138
			C1550.538,194.67,1544.922,204.232,1551.068,208.885z"/>
		<path style="fill:#3E3615;" d="M1587.491,93.655c-6.24-14.46-19.38-21.872-40.728-21.523c-3.201,0.772-6.402,1.545-9.602,2.318
			c-8.983,3.678-15.32,11.064-18.874,20.198c-12.199,31.351,17.45,57.464,48.343,48.012
			C1584.281,137.261,1597.071,115.855,1587.491,93.655z M1532.194,99.284c3.386-8.218,9.326-9.269,17.88-12.583
			c28.616-0.625,36.647,35.769,8.609,42.383C1538.953,133.74,1524.795,117.242,1532.194,99.284z"/>
		<path style="fill:#3E3615;" d="M1102.071,774.105c-14.665,8.016-14.267,31.182-13.907,53.972
			c1.987,23.286,3.974,46.58,5.96,69.866c0.662,15.561,1.324,31.127,1.987,46.688c2.416,15.554,0.264,30.666,4.636,43.045
			c1.249,3.535,3.36,10.186,8.94,8.94c9.89-2.208,12.847-36.143,10.927-51.655c-1.214-11.036-2.428-22.076-3.642-33.112
			c-5.584-25.738-11.435-55.752-6.622-86.422C1112.464,811.949,1115.033,774.744,1102.071,774.105z"/>
		<path style="fill:#3E3615;" d="M1593.782,143.323c1.159,9.242,10.686,5.317,19.536,7.285c2.538,0.883,5.078,1.766,7.616,2.649
			c0.442-0.552,0.883-1.104,1.324-1.656c3.868-9.208-16.004-11.949-24.503-11.589
			C1595.948,141.187,1595.119,141.736,1593.782,143.323z"/>
		<path style="fill:#3E3615;" d="M1283.855,251.599c-3.697-5.051-14.101-12.857-22.185-12.914c-0.552,0.662-1.104,1.324-1.656,1.987
			c-2.464,6.049,20.351,22.838,24.172,21.523C1287.737,260.053,1285.632,254.026,1283.855,251.599z"/>
		<path style="fill:#3E3615;" d="M1251.406,385.702c0.331,0.11,0.662,0.221,0.993,0.331c7.156-4.475,4.582-33.581,0.331-39.403
			c-0.552-0.11-1.104-0.221-1.656-0.331C1244.843,351.169,1249.058,379.187,1251.406,385.702z"/>
		<path style="fill:#3E3615;" d="M1184.188,198.62c-0.221,29.467-0.441,58.942-0.662,88.409
			c-0.002,16.356-4.419,38.045,16.887,33.443c10.643-2.299,7.438-22.199,9.271-33.774c0.11-6.401,0.221-12.804,0.331-19.205
			c-0.002-21.984-2.947-45.67,0.331-66.555c1.268-8.074-0.084-28.086-2.98-32.45c-2.376-3.581-7.471-3.729-13.576-3.642
			C1180.198,171.3,1186.778,182.234,1184.188,198.62z"/>
		<path style="fill:#3E3615;" d="M1181.87,344.312c-0.331,0.221-0.662,0.441-0.993,0.662c-1.361,7.393,19.382,37.414,23.841,43.377
			c0.331-0.11,0.662-0.221,0.993-0.331c3.066-2.186-1.103-11.018-2.318-13.907C1200.239,366.61,1190.352,344.882,1181.87,344.312z"
			/>
		<path style="fill:#3E3615;" d="M1286.835,197.627c11.562,4.731,29.406,10.975,47.35,7.947
			c43.217-7.294,70.569-26.099,85.76-60.926c3.131-7.178,5.524-15.172,7.285-23.509c4.763-22.558-1.628-45.437-8.278-60.595
			c-15.731-35.856-48.115-58.731-100.66-57.946c-3.421,0.331-6.844,0.662-10.265,0.993c-8.239,1.604-16.357,2.838-23.51,5.629
			c-26.045,10.164-45.526,28.922-55.959,54.635C1203.061,126.691,1243.447,179.874,1286.835,197.627z M1339.483,31.405
			c1.117-2.398,2.955-2.49,5.298-3.642c23.779-0.183,34.426,12.883,40.065,31.456c2.354,7.752,7.15,21.726-1.324,25.827
			c-14.051-0.773-18.38-20.136-24.834-29.138c-3.111-4.34-7.427-7.307-11.258-10.927
			C1344.713,42.414,1336.525,36.982,1339.483,31.405z"/>
		<path style="fill:#3E3615;" d="M1186.506,18.16c3.704-1.502,5.846-5.841,7.285-9.602c-0.078-4.301-3.156-6.111-7.616-5.96
			c-3.227,2.151-9.099,6.426-7.616,11.92C1179.603,17.087,1182.843,19.317,1186.506,18.16z"/>
		<path style="fill:#3E3615;" d="M1277.895,273.122c-0.209-2.305-0.92-3.526-2.649-4.305c-0.552-0.11-1.104-0.221-1.656-0.331
			c-0.772,0.883-1.545,1.766-2.318,2.649c0.221,0.993,0.442,1.987,0.662,2.98C1274.668,276.283,1275.851,275.7,1277.895,273.122z"/>
		<path style="fill:#3E3615;" d="M1431.534,485.369c0.11-0.552,0.221-1.104,0.331-1.656c-0.441-0.552-0.883-1.104-1.324-1.656
			c-7.134-1.35-16.667-0.726-24.834-0.662c-3.863,0.331-7.727,0.662-11.589,0.993c-0.686,1.049-1.361,2.026-0.662,3.642
			C1395.821,489.789,1428.044,487.715,1431.534,485.369z"/>
		<path style="fill:#3E3615;" d="M1267.63,284.711c1.355,2.453,14.282,8.682,16.887,3.642c1.072-3.507-4.168-6.223-5.629-8.94
			c-1.656-0.221-3.311-0.442-4.967-0.662C1270.551,280.241,1268.172,280.375,1267.63,284.711z"/>
		<path style="fill:#3E3615;" d="M1150.414,444.973c-5.058-5.839-26.593-19.897-36.092-20.198c-0.662,0.883-1.324,1.766-1.987,2.649
			c0.521,5.465,30.086,19.544,37.085,19.867C1149.752,446.518,1150.083,445.745,1150.414,444.973z"/>
		<path style="fill:#3E3615;" d="M1045.781,49.948c8.877,3.872,22.505,9.853,36.754,7.285c26.189-4.72,43.086-19.959,60.926-33.112
			c8.88-6.547,20.383-14.734,25.496-24.834c-6.622,0-13.245,0-19.867,0c-3.231,1.81-6.18,6.602-9.271,8.94
			c-15.406,11.654-32.59,26.278-51.986,33.112c-8.847,3.117-21.732,0.639-29.138-1.656c-19.349-5.993-43.943-19.865-48.012-40.396
			c-4.414,0-8.83,0-13.245,0C1005.861,26.235,1021.342,39.288,1045.781,49.948z"/>
		<path style="fill:#3E3615;" d="M1096.111,25.114c13.573-5.373,20.682-17.882,31.787-23.178c0.662-0.772,1.324-1.545,1.987-2.318
			c0-0.11,0-0.221,0-0.331c-7.284,0-14.57,0-21.854,0c-1.104,1.214-2.208,2.428-3.311,3.642c-6.099,4.522-11.147,8.469-20.529,9.934
			c-13.941,2.175-22.885-9.349-31.125-13.576c-6.953,0-13.908,0-20.86,0c3.863,2.98,7.726,5.96,11.589,8.94
			C1055.818,17.33,1073.934,33.893,1096.111,25.114z"/>
		<path style="fill:#3E3615;" d="M1143.792,357.557c11.343-2.917,8.506-21.343,10.596-34.436c0-16.333,0-32.672,0-49.006
			c-0.221-22.845-0.442-45.697-0.662-68.542c-2.598-16.896,7.155-41.615-12.914-41.39c-15.38,7.251-6.746,17.845-9.603,35.761
			c-0.331,14.126-0.662,28.257-0.993,42.383c-0.11,8.277-0.221,16.557-0.331,24.834c0,16.002,0,32.01,0,48.012
			C1130.285,328.016,1129.221,361.304,1143.792,357.557z"/>
		<path style="fill:#3E3615;" d="M1401.402,878.738c-13.059,5.589-10.779,24.521,2.98,21.854
			C1416.459,898.251,1416.208,878.364,1401.402,878.738z"/>
		<path style="fill:#3E3615;" d="M1094.786,486.694c-2.307,1.165-2.692,4.922,0,5.96c5.959,2.297,27.765-3.599,30.463-5.629
			c0-0.331,0-0.662,0-0.993c-3.306-1.914-10.282-1.449-15.563-1.324C1104.72,485.369,1099.752,486.031,1094.786,486.694z"/>
		<path style="fill:#3E3615;" d="M1138.163,48.292c-0.994-2.248-2.921-3.432-5.96-3.642c-6.694,3.423-7.972,14.362-0.331,17.88
			C1137.445,62.414,1141.438,53.415,1138.163,48.292z"/>
		<path style="fill:#3E3615;" d="M1161.672,24.783c-0.883-0.11-1.766-0.221-2.649-0.331c-1.845,1.496-2.968,2.21-3.973,4.636
			c0.042,2.635,0.809,4.133,2.649,4.967C1163.802,37.078,1166.795,26.781,1161.672,24.783z"/>
		<path style="fill:#3E3615;" d="M1159.686,120.476c19.479-5.108,17.085-38.168-8.609-37.416
			c-6.756,3.284-11.409,5.474-13.576,13.245C1133.652,110.102,1145.228,124.267,1159.686,120.476z"/>
		<path style="fill:#3E3615;" d="M1313.325,237.03c-0.859-1.925-2.152-2.677-4.636-2.98c-6.285,2.962-9.046,8.83-6.291,17.549
			c0.883,0.552,1.766,1.104,2.649,1.656C1311.356,253.139,1315.993,242.796,1313.325,237.03z"/>
		<path style="fill:#3E3615;" d="M1374.25,406.232c-11.02,5.975-21.771,10.537-32.118,16.556c-3.724,2.166-9.222,3.128-10.927,7.285
			c0,0.11,0,0.221,0,0.331c4.116,1.901,9.586-1.391,12.914-2.649c11.917-4.506,25.286-9.761,33.443-18.212
			C1377.322,407.221,1376.576,406.467,1374.25,406.232z"/>
		<path style="fill:#3E3615;" d="M1323.589,380.735c8.309-8.139,20.555-16.359,25.827-27.152c-0.11-0.772-0.221-1.545-0.331-2.318
			c-0.993-0.221-1.987-0.442-2.98-0.662c-9.435,7.196-32.59,23.458-33.443,37.416
			C1316.963,388.759,1321.08,383.194,1323.589,380.735z"/>
		<path style="fill:#3E3615;" d="M1329.881,254.248c-1.206-1.263-1.75-1.958-3.973-2.318c-4.283,3.159-6.414,10.851-6.291,18.212
			c0.11,0.221,0.221,0.441,0.331,0.662c1.132,0.71,1.547,0.996,3.642,0.993C1326.982,268.553,1330,260.6,1329.881,254.248z"/>
		<path style="fill:#3E3615;" d="M1339.814,553.58c2.771,6.069,19.319,19.793,26.821,20.861c0.442-0.331,0.883-0.662,1.324-0.993
			c-0.576-5.861-19.405-23.003-25.496-23.509c-0.772,0.772-1.545,1.545-2.318,2.318
			C1340.035,552.697,1339.925,553.138,1339.814,553.58z"/>
		<path style="fill:#3E3615;" d="M1313.987,304.247c2.163-1.015,2.806-2.954,2.649-6.291c-1.987-2.759-3.974-5.519-5.96-8.278
			c-1.551-3.891-1.043-6.602-3.973-8.94c-1.214-0.11-2.428-0.221-3.642-0.331C1291.374,287.65,1303.293,310.862,1313.987,304.247z"
			/>
		<path style="fill:#3E3615;" d="M1389.482,989.332c-0.997-2.067-1.382-2.745-4.636-2.649c-7.759,8.545-7.658,22.342-3.642,34.436
			c1.533,1.186,2.081,1.852,4.636,1.324c2.613-5.783-2.53-12.147-1.324-19.205C1386.171,998.604,1387.827,993.967,1389.482,989.332z
			"/>
		<path style="fill:#3E3615;" d="M1360.675,290.009c-4.43,1.989-7.235,2.201-10.265,5.298c0.391,2.464,1.464,3.086,2.649,4.636
			c5.842,1.574,16.253-0.668,17.218-6.622C1368.65,290.176,1365.669,289.76,1360.675,290.009z"/>
		<path style="fill:#3E3615;" d="M1297.431,318.816c-0.993,0.772-1.987,1.545-2.98,2.318c-1.425,5.057,0.165,9.122,3.973,10.927
			c0.772,0,1.545,0,2.318,0c2.087-1.845,5.819-6.103,3.311-10.265C1303.001,319.473,1300.981,318.661,1297.431,318.816z"/>
		<path style="fill:#3E3615;" d="M1345.112,318.816c-0.331-1.545-0.662-3.091-0.993-4.636c-0.883-0.221-1.766-0.441-2.649-0.662
			c-12.12,6.154-3.186,24.419,6.291,19.205c3.131-1.422,3.558-4.824,3.311-9.602
			C1349.657,321.554,1346.156,320.482,1345.112,318.816z"/>
		<path style="fill:#3E3615;" d="M1400.078,961.518c14.954-4.261,12.082-26.169-6.291-25.496c-5.331,2.128-9.641,2.933-11.589,8.278
			C1378.194,955.286,1389.02,964.669,1400.078,961.518z"/>
		<path style="fill:#3E3615;" d="M1351.734,777.416c10.76-2.662,9.963-22.784-4.967-22.185
			C1334.056,761.335,1337.561,780.923,1351.734,777.416z"/>
		<path style="fill:#3E3615;" d="M1332.53,716.821c-10.816,5.319-7.202,22.54,5.96,17.88
			C1347.618,731.47,1346.17,716.083,1332.53,716.821z"/>
		<path style="fill:#3E3615;" d="M1336.172,938.671c14.111,2.24,21.437-12.002,26.158-19.867
			c14.37-23.939,47.075-119.524-12.251-118.541c-6.59,2.628-11.561,2.267-16.225,6.291c-5.834,5.035-6.382,18.535-2.98,26.49
			c6.538,15.288,26.534,19.479,18.543,45.363c-2.957,9.577-8.356,18.459-16.225,23.178c-6.719,4.029-15.351,4.054-17.218,12.914
			C1312.795,929.585,1325.343,936.952,1336.172,938.671z"/>
		<path style="fill:#3E3615;" d="M1375.244,703.908c-15.587,6.454-10.828,29.141,4.636,25.496
			C1393.215,726.26,1391.762,703.333,1375.244,703.908z"/>
		<path style="fill:#3E3615;" d="M1396.436,514.839c0.331-0.11,0.662-0.221,0.993-0.331c0-0.993,0-1.987,0-2.98
			c-6.167-3.872-15.992-4.534-26.158-4.305c-0.442,0.552-0.883,1.104-1.324,1.656c-0.11,0.331-0.221,0.662-0.331,0.993
			C1371.965,512.182,1391.431,516.892,1396.436,514.839z"/>
		<path style="fill:#3E3615;" d="M1347.099,265.175c-1.104-0.11-2.208-0.221-3.311-0.331c-5.958,3.323-14.169,8.525-9.602,17.88
			c1.805,0.643,3.49,1.065,6.291,0.993c3.234-3.081,7.313-11.088,8.278-15.894C1349.158,266.479,1348.454,265.743,1347.099,265.175z
			"/>
		<path style="fill:#3E3615;" d="M1317.96,641.657c0.879,7.723,8.062,16.632,16.887,16.556
			c-1.246,16.096-3.302,33.006,14.569,34.767c0.11,0,0.221,0,0.331,0c0.441-0.772,0.883-1.545,1.324-2.318
			c-3.739-6.106-9.901-6.112-11.589-15.232c-5.74-31.007,32.003-37.204,40.396-11.258c7.036,21.752-14.732,37.139-36.092,31.125
			c-8.271-2.329-12.622-10.654-21.854-10.927c-0.221,0.11-0.442,0.221-0.662,0.331c-0.579,0.926-0.746,0.843-0.993,2.318
			c2.475,4.85,8.919,7.964,13.907,10.265c0,0.331,0,0.662,0,0.993c-2.089,2.591-8.142,7.903-5.629,12.583
			c0.11,0.331,0.221,0.662,0.331,0.993c0.883,0.11,1.766,0.221,2.649,0.331c2.25-3.177,4.315-9.279,8.278-10.596
			c5.964-1.981,14.472,1.716,21.523,0.331c14.351-2.82,31.397-18.959,25.165-38.079c-1.987-3.973-3.974-7.947-5.96-11.92
			c-4.845-6.305-11.846-6.327-18.543-10.927c-6.519-4.478-1.198-22.139-10.265-22.516c-0.221,0.11-0.442,0.221-0.662,0.331
			c-3.641,6.124-0.208,16.041,2.318,21.192c-0.835,2.485-13.622,7.619-16.556,14.569c-0.552,0.221-1.104,0.442-1.656,0.662
			c-5.903-4.11-8.355-10.937-13.907-15.231c-0.772,0.11-1.545,0.221-2.318,0.331C1318.623,640.774,1318.292,641.216,1317.96,641.657
			z"/>
		<path style="fill:#3E3615;" d="M1016.311,928.075c-1.435-0.11-2.87-0.221-4.305-0.331c-9.829,6.263-10.369,29.359-3.311,39.403
			c0.662,0.221,1.324,0.441,1.987,0.662C1020.445,967.542,1022.793,933.223,1016.311,928.075z"/>
		<path style="fill:#3E3615;" d="M879.559,1075.754c-2.097,0.772-4.194,1.545-6.291,2.318c-0.221,0.331-0.442,0.662-0.662,0.993
			c0,0.331,0,0.662,0,0.993c6.18,0,12.362,0,18.543,0C890.049,1076.383,884.502,1075.521,879.559,1075.754z"/>
		<path style="fill:#3E3615;" d="M905.717,1021.782c5.212-12.51-13.581-8.265-20.86-9.934c-3.973-1.435-7.947-2.87-11.92-4.305
			c-2.067,1.166-3.113,1.731-4.636,3.311C864.627,1026.543,901.18,1030.415,905.717,1021.782z"/>
		<path style="fill:#3E3615;" d="M899.095,1051.251c-3.491,2.053-7.858,3.983-5.96,10.265c2.069,5.571,11.479,7.876,14.9,1.987
			C912.012,1056.658,906.397,1050.819,899.095,1051.251z"/>
		<path style="fill:#3E3615;" d="M883.863,1064.496c0.723-1.259,0.858-1.36,0.662-2.98c-1.875-1.038-4.133-1.431-7.285-1.324
			c-1.435,0.331-2.87,0.662-4.305,0.993c-0.811,1.1-1.62,1.604-0.993,3.311C874.224,1068.358,880.876,1065.583,883.863,1064.496z"/>
		<path style="fill:#3E3615;" d="M835.52,723.444c-15.606,7.5-17.585,29.982-20.86,49.668c-0.442,6.842-0.883,13.687-1.325,20.529
			c-3.885,16.407-19.432,20.388-23.178,38.41c-6.131,29.495,4.729,64.229,0,95.031c-0.221,8.829-0.442,17.66-0.662,26.49
			c-3.234,21.072-1.92,48.48,15.231,51.986c24.421,4.991,31.766-28.337,35.099-47.019c2.599-14.569,0.527-31.031,2.98-47.019
			c0.331-8.608,0.662-17.219,0.993-25.827c1.435-19.755,2.87-39.515,4.305-59.27c0-4.966,0-9.934,0-14.9
			c1.948-12.703,0.826-26.132,2.98-37.085C854.635,756.373,855.866,723.384,835.52,723.444z"/>
		<path style="fill:#3E3615;" d="M1073.595,1049.596c-1.482,0.591-3.24,0.438-4.305,1.324c-2.548,1.377-2.643,4.943-1.656,7.947
			c8.694,5.908,31.715,5.465,37.085-2.649c-0.221-0.883-0.441-1.766-0.662-2.649
			C1102.086,1049.554,1080.237,1050.044,1073.595,1049.596z"/>
		<path style="fill:#3E3615;" d="M907.704,889.665c-6.725,2.992-10.364,4.862-12.583,12.251
			c-4.382,14.593,6.825,30.903,22.516,26.49C938.739,922.47,933.212,889.02,907.704,889.665z"/>
		<path style="fill:#3E3615;" d="M1028.563,436.363c6.586-5.298,25.426-20.929,28.807-27.814c1.513-4.151-3.668-7.233-5.629-9.271
			c-6.842-7.063-13.687-14.128-20.529-21.192c-30.577-30.574-69.73-51.086-132.116-49.999c-4.194,0.331-8.389,0.662-12.583,0.993
			c-9.602,1.766-19.206,3.532-28.807,5.298c-26.409,7.941-46.205,20.315-65.893,34.436c-6.095,4.372-23.892,16.515-25.827,23.509
			c11.478,10.705,22.959,21.413,34.436,32.119c7.615,7.836,15.232,15.674,22.847,23.509c13.332,10.752,26.326,20.491,43.708,27.483
			c8.176,3.289,17.469,5.141,26.821,6.953C956.443,494.53,996.771,461.936,1028.563,436.363z M922.273,355.57
			c2.016-2.754,4.795-3.222,8.278-4.636c16.016-0.249,18.376,21.461,4.636,24.834C922.673,378.84,916.134,363.956,922.273,355.57z
			 M855.387,462.522c-18.769-10.979-35.441-25.866-48.674-42.383c-6.767-8.447-14.197-18.328-22.847-24.834c0-0.442,0-0.883,0-1.325
			c3.197-4.232,8.608-7.099,12.914-10.265c10.7-7.867,21.157-14.861,33.774-21.192c5.469-2.744,12.323-7.279,19.536-7.616
			c-0.28,7.245-2.575,14.914-1.324,23.178c4.594,30.366,12.784,51.14,36.754,61.588c31.788,13.856,63.385-0.615,76.82-22.516
			c5.714-9.315,8.205-19.165,10.596-32.119c1.693-9.175,1.471-22.086-0.993-30.463c0.221-0.331,0.442-0.662,0.662-0.993
			c7.715,1.404,15.196,5.762,21.192,9.271c10.936,6.402,20.605,12.892,30.132,20.529c8.167,7.505,16.336,15.011,24.503,22.516
			c0,0.552,0,1.104,0,1.656c-7.413,9.856-18.479,19.145-28.145,26.821c-31.179,24.76-76.019,56.445-135.428,39.072
			C874.645,470.463,863.917,467.511,855.387,462.522z"/>
		<path style="fill:#3E3615;" d="M982.868,1018.802c-34.225-14.101-55.141,30.85-54.635,61.257c26.597,0,53.202,0,79.8,0
			c0.577-6.195,3.351-13.264,1.987-21.523C1006.964,1040.039,998.034,1025.05,982.868,1018.802z"/>
		<path style="fill:#3E3615;" d="M1029.225,1077.41c-0.331,0.883-0.662,1.766-0.993,2.649c5.739,0,11.479,0,17.218,0
			c0-0.552,0-1.104,0-1.656C1041.026,1075.081,1034.904,1075.766,1029.225,1077.41z"/>
		<path style="fill:#3E3615;" d="M1050.416,1024.431c-0.331-0.552-0.662-1.104-0.993-1.656c-0.772,0-1.545,0-2.318,0
			c-2.939,2.159-6.678,4.939-4.967,10.596c0.331,0.441,0.662,0.883,0.993,1.324
			C1047.389,1034.456,1051.421,1028.452,1050.416,1024.431z"/>
		<path style="fill:#3E3615;" d="M926.578,967.478c2.371-5.216-8.402-18.613-12.914-19.536c-0.221,0.11-0.441,0.221-0.662,0.331
			C909.966,954.717,921.1,966.832,926.578,967.478z"/>
		<path style="fill:#3E3615;" d="M1032.205,994.63c0.552-0.221,1.104-0.441,1.656-0.662c4.955-8.576,0.748-20.658-2.318-27.483
			c-1.324-0.221-2.649-0.442-3.973-0.662c-0.221,0.331-0.442,0.662-0.662,0.993c-1.872,4.955,2.518,21.085,3.311,26.821
			C1030.88,993.968,1031.542,994.299,1032.205,994.63z"/>
		<path style="fill:#3E3615;" d="M1055.383,1052.576c-2.712,1.359-5.858,1.334-7.285,3.973c-0.11,0.331-0.221,0.662-0.331,0.993
			c0.662,0.662,1.324,1.324,1.987,1.987c4.716,0.932,7.335-1.797,9.602-4.305c0-0.441,0-0.883,0-1.324
			c-0.441-0.331-0.883-0.662-1.324-0.993C1057.149,1052.796,1056.266,1052.686,1055.383,1052.576z"/>
		<path style="fill:#3E3615;" d="M931.876,1004.895c-0.223-6.153-6.239-6.959-12.914-6.622c-2.578,1.543-4.541,1.844-4.967,5.629
			c0.11,0.331,0.221,0.662,0.331,0.993c3.48,2.152,9.139,3.714,14.569,3.642C930.152,1007.35,931.039,1006.565,931.876,1004.895z"/>
		<path style="fill:#3E3615;" d="M1006.378,980.723c-6.401,4.184-1.672,15.778,2.649,19.205c1.214-0.331,2.428-0.662,3.642-0.993
			c3.627-5.293,1.63-11.558-0.331-16.887C1010.705,981.044,1009.352,980.616,1006.378,980.723z"/>
		<path style="fill:#3E3615;" d="M760.687,990.656c-9.102,5.552-10.028,25.683,3.642,23.178
			C776.857,1011.54,775.434,990.091,760.687,990.656z"/>
		<path style="fill:#3E3615;" d="M783.203,724.768c-16.116,7.134-11.051,31.163,6.291,27.152
			C803.67,748.641,800.943,724.111,783.203,724.768z"/>
		<path style="fill:#3E3615;" d="M257.718,1063.503c-0.993,0.662-1.987,1.324-2.98,1.987c-0.465,2.353,0.042,3.78,0.662,5.629
			c4.351,2.768,11.655,1.456,13.576-2.98c0.568-1.355,0.053-2.418-0.331-3.642C266.29,1063.179,261.529,1063.389,257.718,1063.503z"
			/>
		<path style="fill:#3E3615;" d="M222.619,962.511c2.992-4.843,2.687-15.058-1.656-18.212c-0.662-0.11-1.324-0.221-1.987-0.331
			c-4.943,3.96-6.804,12.882-2.318,18.874c1.435,0.221,2.87,0.441,4.305,0.662C221.515,963.174,222.067,962.842,222.619,962.511z"/>
		<path style="fill:#3E3615;" d="M230.235,823.773c-0.768-1.38-1.496-1.644-3.642-1.656c-7.64,7.633-5.856,24.551-21.192,24.503
			c-4.409-0.014-7.35-1.832-9.271-4.305c-3.582-4.609-6.344-20.243-10.596-22.516c-0.993-0.11-1.987-0.221-2.98-0.331
			c-5.792,5.894-4.357,16.111-5.96,26.49c-4.307,27.878,9.07,45.975,31.456,49.337c26.015,3.907,30.9-31.935,26.158-54.304
			C233.092,835.722,233.334,827.294,230.235,823.773z"/>
		<path style="fill:#3E3615;" d="M250.764,913.506c-1.832-1.924-3.185-2.499-7.285-2.318c-4.678,2.385-8.568,3.875-6.622,10.927
			c0.552,0.331,1.104,0.662,1.656,0.993C245.674,926.409,251.078,919.865,250.764,913.506z"/>
		<path style="fill:#3E3615;" d="M222.619,1025.093c-0.772,0.331-1.545,0.662-2.318,0.993c-2.988,4.73-3.018,12.195,0.993,15.894
			c12.233,2.743,9.261-10.375,5.96-15.894C225.758,1025.53,224.918,1025.09,222.619,1025.093z"/>
		<path style="fill:#3E3615;" d="M184.209,1059.86c-2.304-0.849-4.147,1.489-5.629,2.649c-5.171-1.941-10.895-4.115-17.549-4.305
			c-0.641,0.869-0.773,0.804-0.993,2.318c2.873,4.912,18.079,7.386,24.503,5.298C185.718,1064.027,186.845,1061.102,184.209,1059.86
			z"/>
		<path style="fill:#3E3615;" d="M206.725,1063.834c-10.226-6.937-12.722-29.375-27.483-32.45c-0.331,0.331-0.662,0.662-0.993,0.993
			c0,0.441,0,0.883,0,1.324c3.642,3.863,7.285,7.727,10.927,11.589c7.221,10.135,11.403,19.984,21.192,27.483
			c10.358,7.936,17.752-6.901,17.549-16.887c-0.662-0.552-1.324-1.104-1.987-1.656
			C218.672,1051.635,217.834,1071.369,206.725,1063.834z"/>
		<path style="fill:#3E3615;" d="M207.057,1003.901c0.993,0.773,1.987,1.545,2.98,2.318c8.315,0.359,13.606-12.931,6.953-16.225
			c-1.104-0.11-2.208-0.221-3.311-0.331C208.69,992.555,206.786,995.736,207.057,1003.901z"/>
		<path style="fill:#3E3615;" d="M594.797,664.173c-2.813,1.559-5.384,2.543-6.953,5.298c-4.434,7.783,1.533,19.916,11.589,17.549
			C611.023,684.293,610.132,663.546,594.797,664.173z"/>
		<path style="fill:#3E3615;" d="M567.645,870.129c-18.03-4.315-22.573,15.504-24.834,27.814
			c-0.221,5.518-0.441,11.038-0.662,16.556c-0.331,55.181-0.662,110.379-0.993,165.559c14.899,0,29.802,0,44.701,0
			c-0.442-54.298-0.883-108.612-1.324-162.911C581.578,898.344,584.497,874.162,567.645,870.129z"/>
		<path style="fill:#3E3615;" d="M379.569,880.725c-11.166-4.589-24.609-6.525-40.397-6.291c-3.201,0.331-6.402,0.662-9.602,0.993
			c-6.291,1.545-12.583,3.091-18.874,4.636c-27.34,10.731-48.02,32.553-56.952,61.588c-17.462,56.76,16.127,102.528,53.31,118.541
			c11,4.737,27.953,11.242,45.363,8.278c39.836-6.782,65.726-25.799,78.806-58.939C453.751,952.458,420.184,897.418,379.569,880.725
			z M350.431,1008.206c-21.896,4.141-39.705-18.618-32.781-39.072c4.547-13.431,11.41-14.996,24.172-20.198
			C381.892,948.288,385.06,1001.658,350.431,1008.206z"/>
		<path style="fill:#3E3615;" d="M723.933,984.034c-6.517-8.375-19.6-11.918-31.787-14.569c-6.942-1.51-14.082-1.421-18.874-4.967
			c-6.032-4.463-5.537-13.604-6.954-22.847c0.331-12.471,0.662-24.946,0.993-37.416c0.441-19.534,0.883-39.074,1.324-58.608
			c0-11.257,0-22.517,0-33.774c-0.11-6.842-0.221-13.687-0.331-20.529c0-6.18,0-12.362,0-18.543
			c0.002-33.147,0.682-48.967-34.105-48.674c-9.999,3.856-13.488,1.672-19.536,10.265c-10.264,14.582-7.99,46.181-4.636,67.548
			c0.441,7.725,0.883,15.453,1.324,23.178c0.662,14.016,1.324,28.036,1.987,42.052c0.221,8.829,0.442,17.661,0.662,26.49
			c0.221,12.14,0.442,24.283,0.662,36.423c0.264,49.056-3.253,102.288,26.49,122.183c9.994,6.685,27.844,10.163,44.701,6.953
			c26.119-4.973,38.788-14.648,44.37-40.396c1.28-5.905,1.606-15.5,0-21.523C728.89,992.275,726.739,987.64,723.933,984.034z"/>
		<path style="fill:#3E3615;" d="M522.282,783.045c-3.311,0.662-6.623,1.324-9.934,1.987c-7.873,3.224-14.03,10.316-16.887,18.543
			c-7.529,21.678,10.862,45.047,33.443,41.059C564.258,838.389,562.531,782.446,522.282,783.045z"/>
		<path style="fill:#3E3615;" d="M760.025,917.479c-3.16-7.974-9.859-11.251-21.523-10.927c-6.423,2.874-11.199,4.475-13.576,11.258
			c-5.407,15.431,4.799,38.834,21.192,35.43C756.328,951.12,765.462,931.2,760.025,917.479z"/>
		<path style="fill:#3E3615;" d="M506.057,965.823c-0.552-13.906-1.104-27.815-1.656-41.721
			c-2.898-18.517,4.823-55.599-20.198-50.33c-17.985,3.787-12.789,26.464-15.894,45.694c-0.331,15.009-0.662,30.023-0.993,45.032
			c-0.11,38.516-0.221,77.044-0.331,115.561c14.237,0,28.478,0,42.714,0c0.014-26.723,1.941-56.392-1.987-81.455
			C507.161,987.677,506.609,976.748,506.057,965.823z"/>
		<path style="fill:#3E3615;" d="M427.582,826.09c-3.022,1.481-6.054,2.1-7.947,4.636c-8.034,10.764-1.232,31.603,15.563,26.821
			C451.289,852.965,448.292,825.398,427.582,826.09z"/>
		<path style="fill:#3E3615;" d="M496.123,743.311c55.75-10.662,46.219-112.097,36.092-166.222
			c-1.104-10.815-2.208-21.634-3.311-32.45c0.11-6.953,0.221-13.908,0.331-20.86c2.218-14.718,1.474-28.115,3.973-41.721
			c1.198-6.522,4.652-19.112,1.656-26.158c-2.602-6.119-14.524-5.61-19.205-1.656c-8.942,7.554-6.785,45.893-24.172,42.052
			c-26.459-5.845,0.475-59.646-35.099-59.601c-3.294,1.569-6.88,1.919-8.94,4.636c-10.259,13.529-4.155,69.955-7.616,92.713
			c-1.214,15.671-2.428,31.347-3.642,47.019c-8.5,52.002-13.539,107.732,13.907,142.381
			C458.609,734.188,474.597,747.427,496.123,743.311z"/>
		<path style="fill:#3E3615;" d="M1782.189,982.378c13.24,2.403,36.862,13.123,50.661,9.271
			c13.929-3.888,28.243-25.416,35.43-37.085c5.543-9,19.953-28.372,10.265-42.383c-1.656-0.221-3.311-0.441-4.967-0.662
			c-7.736,5.335-6.221,17.767-9.271,27.814c-3.239,10.67-10.127,20.24-18.874,25.496c-17.106,10.279-37.831,0.887-56.29-1.987
			c-10.599-1.65-19.388,2.632-26.158,5.298c-6.06,2.386-14.166,4.67-15.563,11.589c0.552,0.883,1.104,1.766,1.656,2.649
			C1758.554,984.71,1771.237,980.391,1782.189,982.378z"/>
		<path style="fill:#3E3615;" d="M1907.021,1004.232c-11.036,0-22.076,0-33.112,0c-13.554,2.407-26.647,9.808-43.708,6.953
			c-19.032-3.184-34.578-7.809-53.641-10.927c-15.586-2.549-40.724,9.387-37.748,23.509c2.663,12.635,25.585,11.868,37.085,7.947
			c9.684-3.302,21.93-8.138,36.092-5.629c11.135,1.973,27.031,7.788,40.065,5.629c14.208-2.353,22.613-8.448,35.43-11.258
			c11.706-2.566,24.768,0.923,37.085,0.993c0-6.732,0-13.466,0-20.198c-0.11-0.11-0.221-0.221-0.331-0.331
			C1919.145,1001.695,1913.214,1003.235,1907.021,1004.232z"/>
		<path style="fill:#3E3615;" d="M1872.916,1037.013c-12.983,5.364-19.459,16.514-35.43,19.536
			c-13.324,2.521-26.646-2.34-38.079-4.304c-24.171-4.154-57.306,8.643-58.277,27.814c10.595,0,21.193,0,31.787,0
			c9.967-5.72,13.19-6.646,27.483-8.94c16.959-2.722,34.114,5.127,50.661,0.993c15.126-3.778,24.353-13.637,38.079-17.88
			c10.954-3.387,25.114-0.218,35.43,1.325c0-7.063,0-14.129,0-21.192C1908.319,1032.527,1886.965,1031.208,1872.916,1037.013z"/>
		<path style="fill:#3E3615;" d="M1924.57,984.365c0-11.257,0-22.517,0-33.774C1896.078,949.858,1892.63,987.665,1924.57,984.365z"
			/>
		<path style="fill:#3E3615;" d="M1890.134,945.624c7.28,4.131,23.278-9.802,34.436-10.265c0-6.622,0-13.245,0-19.867
			C1906.109,915.176,1885.32,926.856,1890.134,945.624z"/>
		<path style="fill:#3E3615;" d="M1890.796,747.615c-1.44-9.459-1.642-16.411-5.629-22.847
			c-13.165-21.254-46.957-27.665-81.786-27.152c-7.394,0.993-14.791,1.987-22.185,2.98c-19.259,5.161-33.532,15.316-41.721,31.456
			c-2.917,5.749-4.667,12.667-5.96,19.867c-5.447,30.318,12.995,56.966,31.125,64.899c21.651,9.474,61.693,7.675,83.111-0.662
			C1871.076,807.077,1896.262,783.533,1890.796,747.615z M1839.804,762.184c-4.889,8.68-21.876,28.47-36.423,26.158
			c-14.68-2.333-38.653-20.623-26.821-39.072c4.053-6.32,11.844-10.631,19.867-12.914c3.863-0.662,7.726-1.324,11.589-1.987
			c15.25-0.224,32.344,1.653,35.43,13.245C1844.926,753.175,1841.737,758.752,1839.804,762.184z"/>
		<path style="fill:#3E3615;" d="M1826.559,744.304c-0.883-0.11-1.766-0.221-2.649-0.331c-7.106,5.749-13.937,14.387-18.874,22.185
			c-0.442,0-0.883,0-1.324,0c-5.49-4.244-7.578-12.201-13.907-15.563c-1.324,0.221-2.649,0.442-3.974,0.662
			c-0.772,1.435-1.545,2.87-2.318,4.305c0.484,5.824,16.314,25.36,23.509,22.847c5.018-1.753,19.095-22.571,22.516-27.814
			C1829.361,747.212,1828.346,745.975,1826.559,744.304z"/>
		<path style="fill:#3E3615;" d="M163.018,1068.801c-3.321,1.477-5.653,1.381-7.947,3.642c0.11,0.662,0.221,1.324,0.331,1.987
			c5.319,3.108,14.427-0.395,19.536-1.987C173.701,1069.325,167.656,1068.557,163.018,1068.801z"/>
		<path style="fill:#3E3615;" d="M1924.57,855.891c0-13.023,0-26.049,0-39.072C1896.224,816.172,1893.902,856.703,1924.57,855.891z"
			/>
		<path style="fill:#3E3615;" d="M1924.57,1080.059c0-1.987,0-3.974,0-5.96c-11.053-0.01-37.746,1.155-43.377,5.298
			C1886.17,1081.859,1916.375,1080.126,1924.57,1080.059z"/>
		<path style="fill:#3E3615;" d="M1725.237,150.608c-19.841,3.06-60.267-7.178-55.628,19.536c0.548,3.157,1.674,6.198,3.973,7.616
			c5.984,3.689,42.752,5.128,54.303,3.311c17.548-0.221,35.1-0.441,52.648-0.662c48.007-0.11,96.029-0.221,144.037-0.331
			c0-10.153,0-20.31,0-30.463c-43.262-0.11-86.537-0.221-129.799-0.331C1772.028,149.283,1746.375,147.348,1725.237,150.608z"/>
		<path style="fill:#3E3615;" d="M1114.984,1074.43c-0.331,0.442-0.662,0.883-0.993,1.324c0,0.442,0,0.883,0,1.324
			c4.875,2.777,25.231-2.992,31.787-3.974c0.221-0.441,0.441-0.883,0.662-1.324c0-0.11,0-0.221,0-0.331
			c-3.973-0.221-7.947-0.441-11.92-0.662C1129.521,1072.859,1119.974,1073.253,1114.984,1074.43z"/>
		<path style="fill:#3E3615;" d="M1672.258,81.404c-0.331,0.11-0.662,0.221-0.993,0.331c-6.172,27.626,7.061,30.136,31.787,30.132
			c7.725,0,15.453,0,23.178,0c22.404-0.11,44.814-0.221,67.217-0.331c43.703-0.11,87.42-0.221,131.123-0.331
			c0-10.595,0-21.193,0-31.787c-59.595,0-119.209,0-178.804,0C1721.266,80.08,1696.758,80.742,1672.258,81.404z"/>
		<path style="fill:#3E3615;" d="M1873.909-0.713c-22.183,0-44.372,0-66.555,0c-1.11,4.918-2.565,9.331-6.291,11.589
			c-8.319,5.042-22.036,1.479-33.774,3.311c-17.081,2.665-46.289,2.976-62.913,0.331c-16.84-2.679-33.225,2.465-29.138,21.192
			c2.521,11.554,40.88,10.618,55.959,8.278c20.72-3.216,45.06-0.993,67.217-0.993c42.048,0,84.108,0,126.156,0
			c0-9.381,0-18.764,0-28.145C1903.977,11.266,1876.792,21.382,1873.909-0.713z"/>
		<path style="fill:#3E3615;" d="M1837.817,526.428c-9.826,5.145-23.268,29.572-3.311,33.443
			C1852.365,563.335,1863.518,525.501,1837.817,526.428z"/>
		<path style="fill:#3E3615;" d="M1918.61,505.236c-3.184,12.393-2.514,25.451-8.94,34.105c-2.844,3.83-8.833,7.532-14.569,3.642
			c-11.193-7.589-2.676-32.056-5.629-47.019c-5.132-26.006-26.271-30.429-57.615-30.132c-3.201,0.331-6.402,0.662-9.603,0.993
			c-9.801,1.951-17.125,5.527-20.529,13.907c-5.571,13.716,1.371,42.225-12.251,47.681c-20.295,8.129-16.668-30.765-23.178-40.065
			c-8.579-12.256-28.232,13.154-30.794,18.212c-5.869,11.583-8.213,26.878-8.609,43.708c-0.675,28.708,1.91,64.234,13.576,81.786
			c6.033,9.077,15.937,14.234,25.496,19.867c20.615,12.149,41.697,14.462,70.528,19.205c9.491,0.662,18.985,1.324,28.476,1.987
			c18.149,2.784,41.949,2.101,59.601-0.331c0-59.264,0-118.547,0-177.811c-0.442,0-0.883,0-1.324,0
			C1921.701,498.393,1920.155,501.815,1918.61,505.236z M1766.958,644.637c-5.589-1.362-25.02-19.472-22.185-25.496
			c1.616-3.504,4.793-3.944,8.278-5.629c4.746,0.221,9.493,0.441,14.238,0.662C1769.981,618.844,1767.021,637.046,1766.958,644.637z
			 M1810.665,642.651c-7.188,3.531-25.73-0.844-34.436-0.993c-3.019-5.206-0.336-19.862,0.331-26.49
			c9.712-0.441,19.427-0.883,29.138-1.324c1.104,0,2.208,0,3.311,0C1811.603,621.524,1811.076,633.56,1810.665,642.651z
			 M1817.95,640.333c-1.188-9.128-0.694-20.781-1.987-29.138c0-0.11,0-0.221,0-0.331c2.465-1.528,6.095-1.126,9.271-2.318
			c6.511,0.221,13.025,0.441,19.536,0.662c4.831,8.549,2.439,24.203,5.298,34.105
			C1849.135,644.256,1821.756,641.602,1817.95,640.333z M1822.586,572.122c-7.805-2.408-14.552-11.182-10.265-22.185
			c5.057-12.976,14.329-23.063,26.158-29.47c18.236-0.389,26.38,16.997,20.861,34.436
			C1855.196,567.998,1840.927,577.782,1822.586,572.122z M1883.18,640.664c-2.876,1.393-20.744,3.029-24.834,1.324
			c-3.067-1.956-3.846-27.026-5.298-32.45c3.057-4.003,17.37-0.105,22.516-1.987c0.552,0.11,1.104,0.221,1.656,0.331
			c3.054,5.43,1.96,15.008,3.311,21.854c0.883,3.532,1.766,7.064,2.649,10.596C1883.18,640.443,1883.18,640.553,1883.18,640.664z
			 M1901.061,637.021c-3.421,0.442-6.844,0.883-10.265,1.325c-3.452-5.277-5.074-24.027-5.298-32.119
			c4.83-2.671,12.702-0.488,18.543-2.649c4.415,0.221,8.83,0.442,13.245,0.662c0.331,0.11,0.662,0.221,0.993,0.331
			c0.221,10.926,0.442,21.855,0.662,32.781C1912.982,637.242,1907.02,637.132,1901.061,637.021z"/>
		<path style="fill:#3E3615;" d="M1922.915,335.703c0.552,0.11,1.104,0.221,1.656,0.331c0-9.381,0-18.764,0-28.145
			c-0.442,0-0.883,0-1.324,0C1917.515,318.345,1918.377,325.215,1922.915,335.703z"/>
		<path style="fill:#3E3615;" d="M1882.849,427.423c-2.11,3.873-6.728,11.042-4.304,17.88c3.099,8.743,33.247,21.005,46.026,21.192
			c0-22.293,0-44.593,0-66.886C1905.769,400.14,1889.888,414.507,1882.849,427.423z"/>
		<path style="fill:#3E3615;" d="M1699.078,222.792c-9.16,0.331-18.323,0.662-27.483,0.993
			c-8.615,38.497,31.583,25.376,59.932,30.132c21.079,0.221,42.165,0.441,63.244,0.662c43.517-0.003,88.61-0.503,129.799-1.656
			c0-10.043,0-20.089,0-30.132c-55.402-0.221-110.82-0.442-166.222-0.662C1738.594,222.35,1718.833,222.571,1699.078,222.792z"/>
		<path style="fill:#3E3615;" d="M1276.571,426.099c-9.849-4.257-20.993-5.833-35.43-5.629c-6.864,2.715-14.577,2.168-20.86,4.636
			c-20.005,7.857-33.918,21.975-41.721,42.052c-17.672,45.474,12.112,82.849,43.045,95.031c7.907,3.114,20.262,7.008,32.45,4.967
			c30.184-5.055,49.731-19.875,60.264-44.37C1332.459,480.595,1305.714,438.695,1276.571,426.099z"/>
		<path style="fill:#3E3615;" d="M1293.458,863.838c-1.104-13.906-2.208-27.815-3.311-41.721
			c-0.662-20.307-1.324-40.619-1.987-60.926c-0.11-8.056-0.221-16.115-0.331-24.172c-6.587-40.872,2.85-90.335-38.079-97.349
			c-8.219-1.409-16.759,1.061-22.185,2.98c-32.058,11.34-38.472,43.409-46.026,79.469c-4.208,20.09-4.397,42.323-7.947,64.568
			c-0.442,9.712-0.883,19.427-1.324,29.138c-0.442,13.133-0.883,26.27-1.324,39.403c-0.883,18.099-1.766,36.204-2.649,54.303
			c-0.662,16.665-1.324,33.334-1.987,49.999c-0.221,13.685-0.441,27.374-0.662,41.059c0,26.487,0,52.982,0,79.469
			c44.255,0,88.524,0,132.779,0c-1.93-42.791-1.211-88.749-1.656-130.792C1296.458,919.849,1297.693,890.309,1293.458,863.838z
			 M1255.71,772.449c0,11.809,0,23.621,0,35.43c0,5.408,0,10.817,0,16.225c-0.993,16.333-1.987,32.672-2.98,49.006
			c-2.927,18.382-1.274,43.467-19.205,46.357c-19.987,3.221-18.794-35.823-21.523-52.648c-2.37-14.613,0.788-31.874-1.656-47.019
			c-0.221-11.698-0.441-23.4-0.662-35.099c0-9.16,0-18.323,0-27.483c0-4.304,0-8.609,0-12.914
			c2.754-17.114,1.549-33.758,8.94-45.694c2.362-3.815,5.498-5.1,9.602-7.285c18.187-0.224,20.587,17.971,23.841,32.781
			c2.418,11.004,1.659,23.99,3.642,36.423C1255.71,764.502,1255.71,768.476,1255.71,772.449z"/>
		<path style="fill:#3E3615;" d="M1821.592,938.671c-2.088,3.448-6.265,13.19-0.993,15.894c9.154,3.783,18.024-6.692,21.192-10.927
			c12.406-16.589,18.976-36.339,25.496-59.27c1.355-4.767,7.732-20.284,5.298-25.827c-1.341-3.8-5.187-4.888-10.596-4.636
			c-12.358,9.871-7.439,30.883-12.251,48.674C1844.824,920.744,1829.975,924.826,1821.592,938.671z"/>
		<path style="fill:#3E3615;" d="M1151.407,411.861c-8.498-8.608-16.998-17.219-25.496-25.827
			c-3.47-4.302-8.126-12.229-13.907-13.907c-1.388,0.911-2.227,1.047-2.98,2.649c-1.494,4.972,5.916,11.579,8.278,14.569
			c10.882,13.778,25.129,28.115,40.065,37.748c0.662-0.221,1.324-0.442,1.987-0.662
			C1162.171,421.119,1154.43,414.9,1151.407,411.861z"/>
		<path style="fill:#3E3615;" d="M1152.07,545.964c-14.464,9.304-25.668,18.886-36.092,32.119c0.275,1.467,0.415,1.385,0.993,2.318
			c8.305-1.1,36.729-25.282,38.41-32.45C1154.287,546.805,1154.17,546.253,1152.07,545.964z"/>
		<path style="fill:#3E3615;" d="M1403.72,1036.02c-2.877-6.306-1.772-12.973-5.298-18.543c-1.435,0.441-2.87,0.883-4.305,1.324
			c-0.785,5.477,4.332,9.74,2.649,15.563c-1.547,5.351-15.948,12.349-19.205,21.192c-1.03,0.486-1.091,0.576-2.318,0.331
			c-2.603-10.511-1.997-21.912-3.973-34.436c-1.41-8.932,0.657-18.288-0.993-26.158c-1.889-9.013-5.513-16.449-9.602-23.178
			c-3.333-5.485-9.173-16.854-20.198-12.914c-7.911,2.827-9.485,17.106-7.285,27.152c4.083,17.327,8.168,34.659,12.251,51.986
			c2.411,9.666,2.725,19.542,6.291,27.814c1.655,2.649,3.311,5.298,4.967,7.947c3.289,2.434,9.706,1.028,10.596,5.96
			c2.538,0,5.077,0,7.616,0c0.441-1.545,0.883-3.091,1.324-4.636c4.886-2.071,12.213,3.397,18.543,3.642
			c-0.674,0.683-0.584,0.559-1.987,0.662c3.343,1.424,14.287,0.498,15.563-0.662c1.324-0.331,2.649-0.662,3.974-0.993
			c3.915-1.565,7.502-4.561,9.602-7.947C1430.607,1056.138,1416.696,1037.469,1403.72,1036.02z M1416.634,1067.476
			c-5.083,8.728-19.025,7.916-29.469,4.967c-2.787-0.787-6.429-0.923-7.947-2.98c-1.427-6.272,11.139-22.197,15.232-25.165
			c2.097-0.883,4.194-1.766,6.291-2.649C1410.995,1041.732,1422.801,1056.888,1416.634,1067.476z"/>
		<path style="fill:#3E3615;" d="M1138.825,777.416c-9.123,4.565-6.103,15.986-7.947,27.814c-0.552,9.712-1.104,19.427-1.656,29.138
			c-2.479,15.959-3.834,43.799,1.324,57.284c5.557,3.719,11.744,1.059,13.907-4.305c2.841-7.045,1.298-19.386,1.324-28.476
			c0.331-17.437,0.662-34.88,0.993-52.317c0.004-9.981,1.32-22.486-2.98-28.145C1142.136,778.078,1140.48,777.747,1138.825,777.416z
			"/>
		<path style="fill:#3E3615;" d="M1137.169,635.035c-19.509,12.582-4.875,58.568-7.947,84.104
			c-1.308,10.874-4.636,31.659,4.967,33.774c13.625,3.002,14.57-15.172,14.569-26.821c-0.002-25.035,3.823-76.025-5.96-90.395
			C1140.922,635.476,1139.046,635.256,1137.169,635.035z"/>
		<path style="fill:#3E3615;" d="M1320.278,1041.318c1.949-11.633,5.727-19.884,10.596-28.145c1.294-2.197,2.76-5.667,0-7.285
			c-0.883-0.11-1.766-0.221-2.649-0.331c-8.27,7.892-17.845,32.338-13.576,50.33c2.288,9.642,8.132,16.083,10.596,24.172
			c2.428,0,4.857,0,7.285,0c0-0.331,0-0.662,0-0.993C1326.794,1070.219,1317.52,1057.781,1320.278,1041.318z"/>
		<path style="fill:#3E3615;" d="M1712.323,792.979c-1.324-0.11-2.649-0.221-3.973-0.331c-8.276,6.37-2.475,43.39-4.636,57.615
			c-0.221,10.043-0.441,20.089-0.662,30.132c-0.221,19.203-0.442,38.412-0.662,57.615c0.331,27.37,0.662,54.748,0.993,82.117
			c2.165,14.435-3.052,48.641,5.298,55.297c2.397,0.49,4.145,0.021,5.96-0.662c4.095-7.08,0.662-48.791,0.662-61.588
			c0.442-51.539,0.883-103.093,1.324-154.633C1716.628,843.015,1720.064,800.544,1712.323,792.979z"/>
		<path style="fill:#3E3615;" d="M1663.98,634.373c-11.446,4.933-18.89,5.043-25.827,14.569
			c-14.285,19.615,2.696,50.012,10.596,63.244c4.259,7.134,7.798,23.334,18.212,23.841c4.131-4.129,3.227-13.835,1.656-20.529
			c-3.006-12.807-21.021-47.203-4.304-55.959c2.799-1.466,8.449-1.152,11.589-0.331c15.267,3.992,19.778,14.559,22.516,31.125
			c1.335,8.078-5.111,21.832,0.331,26.49c11.528,1.738,22.41-25.262,18.874-40.396
			C1712.254,653.452,1692.914,633.85,1663.98,634.373z"/>
		<path style="fill:#3E3615;" d="M1885.829,965.491c-0.883-0.11-1.766-0.221-2.649-0.331c-8.2,3.594-14.016,6.871-16.556,15.894
			c-4.216,14.978,16.035,16.276,23.841,10.265c-0.597-4.396-4.681-5.649-5.629-9.934
			C1883.344,974.644,1890.902,969.744,1885.829,965.491z"/>
		<path style="fill:#3E3615;" d="M1819.605,857.878c-2.68,1.953-5.273,3.026-6.953,5.96c-4.25,7.421-2.026,18.038-3.642,28.476
			c-1.905,12.301-2.903,22.025-8.94,29.801c-12.709,16.37-36.833,5.356-54.966,14.569c-6.391,3.247-8.989,11.293-2.318,16.225
			c8.796,6.503,27.544,4.641,37.417,0.662c25.51-10.281,42.249-31.069,52.317-56.621
			C1838.175,882.594,1840.293,857.447,1819.605,857.878z"/>
		<path style="fill:#3E3615;" d="M1529.214,838.342c-3.642,0.552-7.285,1.104-10.927,1.656c-9.021,2.337-16.707,5.721-23.178,10.596
			c-25.008,18.837-53.03,73.42-60.264,110.594c-1.907,9.802-1.121,22.857,0.662,31.787c8.168,40.903,26.025,71.518,57.946,87.084
			c21.962,0,43.931,0,65.893,0c0.057-0.901,13.085-8.925,15.231-10.596c12.876-10.024,22.679-24.292,31.125-38.741
			c18.337-31.368,29.709-93.164,13.245-134.765C1605.086,860.932,1579.281,837.694,1529.214,838.342z M1484.182,930.724
			c-10.257,2.522-12.286-11.147-3.642-16.225C1492.027,913.905,1493.613,928.405,1484.182,930.724z M1516.963,931.717
			c-10.626,1.692-13.232-12.967-2.649-18.211C1527.629,912.878,1528.456,929.887,1516.963,931.717z M1560.339,930.724
			c-10.117,2.486-13.165-11.525-2.98-16.556C1567.945,914.235,1569.685,928.428,1560.339,930.724z"/>
		<path style="fill:#3E3615;" d="M1677.555,941.651c-0.221-8.719-0.441-17.44-0.662-26.158c-1.545-24.5-3.091-49.008-4.636-73.508
			c-2.299-15.053,3.855-47.196-2.98-56.952c-1.656-0.221-3.311-0.442-4.967-0.662c-1.214,1.214-2.428,2.428-3.642,3.642
			c-2.495,7.009-2.031,42.035-0.662,50.992c0.883,14.788,1.766,29.581,2.649,44.37c0.552,13.243,1.104,26.491,1.656,39.734
			c0.331,28.473,0.662,56.955,0.993,85.429c0.275,17.059-0.403,34.122,1.987,49.668c1.114,7.246-0.744,13.988,4.636,16.887
			c7.281-0.378,5.299-9.301,5.298-16.556c0.11-16.334,0.221-32.672,0.331-49.006c1.743-11.399,2.065-36.149,0.331-47.681
			C1677.776,955.117,1677.666,948.383,1677.555,941.651z"/>
		<path style="fill:#3E3615;" d="M1440.805,803.574c-4.425-27.288-6.852-54.796-2.318-84.766
			c2.774-18.333-4.141-36.065-20.529-36.092c-13.215,6.375-9.112,16.413-11.589,32.781c-0.221,8.388-0.442,16.778-0.662,25.165
			c0.001,24.173,1.541,47.07,6.291,66.224c2.43,9.798,2.727,31.033,17.218,28.476
			C1441.715,833.156,1443.169,818.149,1440.805,803.574z"/>
		<path style="fill:#3E3615;" d="M1633.186,1080.059c4.525,0,9.051,0,13.576,0
			C1646.996,1070.38,1632.792,1069.984,1633.186,1080.059z"/>
		<path style="fill:#3E3615;" d="M38.186,506.892c-4.029,2.489-8.401,6.896-4.305,12.583c3.245,4.504,10.466,6.268,15.894,8.609
			c9.48,4.089,28.623,19.678,40.397,17.218c3.063-6.507-3.673-13.433-6.291-16.887C75.443,517.283,57.596,506.449,38.186,506.892z"
			/>
		<path style="fill:#3E3615;" d="M134.873,451.926c-1.763-2.386-1.17-5.746-2.318-8.94c-1.806-5.023-7.487-8.434-14.238-8.609
			c-5.734,2.616-11.438,7.417-5.96,14.9c4.612,6.302,8.614,2.13,15.232,4.636c8.548,3.237,15.346,11.303,24.834,13.907
			c0.11,0,0.221,0,0.331,0c0.221-0.331,0.442-0.662,0.662-0.993C149.41,459.765,139.512,458.203,134.873,451.926z"/>
		<path style="fill:#3E3615;" d="M104.741,568.811c3.938,2.649,9.063,3.485,14.238,4.967c8.87-7.419-13.721-31.852-21.854-31.787
			C84.203,548.9,97.719,564.088,104.741,568.811z"/>
		<path style="fill:#3E3615;" d="M126.263,471.131c2.487-4.8-2.468-8.581-7.616-8.278c-4.401,2.24-5.613,3.179-6.622,8.94
			c-2.029,11.586,11.042,10.109,18.874,13.245c4.476,1.792,7.991,5.792,13.907,5.96c0.221-0.221,0.442-0.442,0.662-0.662
			c0-0.552,0-1.104,0-1.656c-3.456-3.645-7.343-8.922-12.251-10.927c-3.9-1.593-8.566-0.994-11.589-2.98c0-0.441,0-0.883,0-1.324
			C123.173,472.676,124.718,471.903,126.263,471.131z"/>
		<path style="fill:#3E3615;" d="M397.781,86.702c9.082-2.22,13.007-22.898-1.656-22.185c-2.34,1.312-4.832,2.505-6.291,4.636
			C385.793,75.052,387.963,89.102,397.781,86.702z"/>
		<path style="fill:#3E3615;" d="M74.94,452.588c-3.206,1.588-6.271,2.589-8.278,5.298c-7.398,9.985-0.297,28.703,14.9,25.165
			C98.272,479.161,97.314,451.811,74.94,452.588z"/>
		<path style="fill:#3E3615;" d="M158.382,330.405c-0.805-0.643-1.682-0.709-3.311-0.662c-3.388,3.247-2.019,7.342-0.331,11.258
			c1.822,1.285,2.904,2.073,6.291,1.987c0.552-0.552,1.104-1.104,1.656-1.656C163.605,336.961,161.476,331.845,158.382,330.405z"/>
		<path style="fill:#3E3615;" d="M146.793,612.519c16.082-6.004,0.643-32.832-13.576-32.781
			C116.041,588.328,133.274,617.566,146.793,612.519z"/>
		<path style="fill:#3E3615;" d="M155.733,287.36c-0.883,0.441-1.766,0.883-2.649,1.324c-5.99,3.405,1.31,15.509,7.947,13.245
			c0.552-0.221,1.104-0.441,1.656-0.662C166.866,294.667,161.735,289.047,155.733,287.36z"/>
		<path style="fill:#3E3615;" d="M108.052,509.21c1.34,3.694,4.295,2.754,6.954,4.967c0.883,1.766,1.766,3.532,2.649,5.298
			c3.953,5.359,15.56,7.42,19.867,0.993c6.882-10.269-8.152-21.208-18.543-20.86C114.666,501.22,104.903,501.756,108.052,509.21z"/>
		<path style="fill:#3E3615;" d="M260.036,663.842c0.196-8.3-6.182-11.895-14.569-11.589
			C229.548,661.907,252.614,680.915,260.036,663.842z"/>
		<path style="fill:#3E3615;" d="M205.732,690.663c10.693-1.983,10.235-22.37-2.98-21.854
			C191.899,674.047,193.66,692.901,205.732,690.663z"/>
		<path style="fill:#3E3615;" d="M223.944,690.994c3.454,7.439,24.381,9.282,24.834-2.318c-1.413-1.459-15.988-6.349-18.874-6.291
			C226.873,683.722,221.425,685.571,223.944,690.994z"/>
		<path style="fill:#3E3615;" d="M218.977,796.621c17.278-3.643,15.729-30.556-5.96-29.801c-3.452,1.678-6.469,2.409-8.609,5.298
			C196.961,782.172,204.201,799.737,218.977,796.621z"/>
		<path style="fill:#3E3615;" d="M192.487,551.593c13.645-3.259,12.518-25.691,14.9-41.39c-0.11-9.16-0.221-18.323-0.331-27.483
			c0-5.077,0-10.155,0-15.231c-1.901-12.622-1.093-25.978-2.98-37.748c-2.921-18.218-1.129-36.597-3.973-55.628
			c-2.78-18.605,7.171-55.733-9.602-59.601c-12.585,6.345-7.421,28.442-9.934,45.032c-0.662,19.534-1.324,39.074-1.987,58.608
			c-0.772,11.147-1.545,22.296-2.318,33.443c-2.316,14.948-2.98,30.877-2.98,47.35C173.282,516.652,173.663,556.089,192.487,551.593
			z"/>
		<path style="fill:#3E3615;" d="M167.653,752.582c28.909-5.341,20.98-59.996-5.629-59.601c-8.006,4.156-14.554,7.798-16.887,17.549
			C141.433,726.014,151.571,755.553,167.653,752.582z"/>
		<path style="fill:#3E3615;" d="M213.348,634.373c17.647-3.606,17.133-32.842-5.298-32.119c-6.16,2.768-10.065,4.969-11.92,11.92
			C193.11,625.49,201.813,636.73,213.348,634.373z"/>
		<path style="fill:#3E3615;" d="M167.322,680.398c31.215-6.096,19.034-56.694-8.609-56.29c-7.475,3.498-13.796,5.493-16.556,13.576
			C137.026,652.71,152.998,683.195,167.322,680.398z"/>
		<path style="fill:#3E3615;" d="M381.225,320.803c12.189,2.148,21.575-3.292,27.483-7.947
			c21.885-17.245,30.944-102.113,12.583-131.123c-5.304-8.381-14.037-14.616-27.814-14.569c-4.514,1.764-9.049,1.369-12.914,3.311
			c-19.996,10.051-32.39,32.951-39.403,55.959C327.604,270.904,341.755,313.847,381.225,320.803z M365.662,254.91
			c1.804-6.365,6.193-7.616,12.251-9.934c16.592,1.053,16.755,23.492,1.656,26.158C371,272.649,363.252,263.417,365.662,254.91z"/>
		<path style="fill:#3E3615;" d="M350.1,49.948c-11.628,6.493-5.649,23.227,5.298,19.536
			C364.315,66.477,363.242,49.299,350.1,49.948z"/>
		<path style="fill:#3E3615;" d="M172.289,985.027c-0.221,0.552-0.441,1.104-0.662,1.656c2.859,2.317,19.97,7.387,24.172,6.622
			c0.221-0.221,0.442-0.442,0.662-0.662c-0.11-0.552-0.221-1.104-0.331-1.656C193.163,985.771,180.646,984.754,172.289,985.027z"/>
		<path style="fill:#3E3615;" d="M249.44,749.602c3.471-2.31,3.35-8.776,4.305-13.576c1.199-0.741,1.681-1.187,3.642-1.324
			c2.015,1.973,3.434,5.599,4.305,8.609c1.104,0.441,2.208,0.883,3.311,1.324c10.465-4.247,4.13-21.396-8.609-20.86
			c-5.747,3.106-7.027,7.188-11.589,10.927c-4.811,0.779-8.873-1.308-14.569-1.325c-1.295,1.275-1.703,2.237-2.649,3.973
			C227.898,743.377,241.855,754.65,249.44,749.602z"/>
		<path style="fill:#3E3615;" d="M-3.866,860.858c13.769,0.009,13.05-19.306,0-21.192C-3.866,846.729-3.866,853.795-3.866,860.858z"
			/>
		<path style="fill:#3E3615;" d="M354.736,122.794c-3.006,1.299-5.491,1.889-7.285,4.305c-5.106,6.877-2.28,22.156,8.609,20.529
			C368.688,145.742,369.271,122.522,354.736,122.794z"/>
		<path style="fill:#3E3615;" d="M395.794,102.927c-1.104,0.441-2.208,0.883-3.311,1.324c-2.088,2.99-2.637,6.219-1.325,10.265
			c1.324,0.772,2.649,1.545,3.973,2.318c2.331-0.058,3.03-0.485,4.636-0.993c2.113-3.018,2.681-6.51,1.324-10.596
			C399.5,104.06,398.483,103.153,395.794,102.927z"/>
		<path style="fill:#3E3615;" d="M12.359,775.76c1.465-6.43-3.18-9.27-9.602-8.94c-2.207,0.662-4.415,1.324-6.622,1.987
			c0,3.531,0,7.064,0,10.596C2.121,781.975,9.421,780.14,12.359,775.76z"/>
		<path style="fill:#3E3615;" d="M351.093,89.682c-9.717,5.637-8.107,22.033,3.973,19.536
			C366.089,106.94,366.982,88.86,351.093,89.682z"/>
		<path style="fill:#3E3615;" d="M12.359,592.983c11.166-2.733,9.582-22.091-3.642-22.847
			C-5.866,576.104-1.642,596.41,12.359,592.983z"/>
		<path style="fill:#3E3615;" d="M27.259,476.429c-4.688-6.792-22.588-4.055-31.125-2.649c0,13.243,0,26.491,0,39.734
			c11.208,0.465,27.109,1.82,31.787-5.298c1.889-2.874,1.325-8.588,1.324-13.245C29.246,488.916,29.882,480.229,27.259,476.429z"/>
		<path style="fill:#3E3615;" d="M74.278,838.342c5.475-7.253,10.617-16.879,19.536-20.529c9.374-3.837,12.018,4.228,17.88,6.622
			c9.674,3.951,18.813-4.273,22.185-9.271c8.492-12.587,20.383-51.864-8.609-51.323c-8.509,4.116-14.829,6.257-21.523,11.589
			c-14.681,11.695-23.93,30.267-41.39,39.072c-14.492,7.308-35.504,1.186-45.363,13.907c-5.287,6.821-9.537,23.897-2.98,32.781
			c5.683,7.7,20.583,5.806,29.47,2.318C56.211,858.511,66.605,848.505,74.278,838.342z"/>
		<path style="fill:#3E3615;" d="M66,754.238c-3.752,2.759-7.506,5.519-11.258,8.278c-3.838,2.27-13.388,3.079-15.563,6.953
			c-0.11,0.662-0.221,1.324-0.331,1.987c7.801,5.762,19.667,0.665,26.158-2.649c19.769-10.093,33.744-24.552,45.032-43.045
			c5.461-8.947,9.494-19.661,12.583-30.794c12.325-44.427-9.361-87.126-28.145-110.594c-8.289-10.356-20.253-18.019-31.456-25.496
			c-11.005-7.345-29.966-20.149-47.35-19.867c-7.6,3.927-11.405,11.543-2.98,17.88c14.457,7.836,28.919,15.674,43.377,23.509
			c24.206,15.291,37.433,40.083,43.377,73.839C105.515,688.73,82.106,741.276,66,754.238z"/>
		<path style="fill:#3E3615;" d="M-3.866,701.259c20.841-4.394,33.774-57.4,0-56.621C-3.866,663.509-3.866,682.387-3.866,701.259z"
			/>
		<path style="fill:#3E3615;" d="M17.325,1017.146c-0.497-1.732-0.871-1.902-2.98-1.987c-5.609,2.974-14.091,4.626-16.887,10.265
			c-0.11,0.331-0.221,0.662-0.331,0.993c0.662,0.662,1.324,1.324,1.987,1.987C5.184,1024.652,11.255,1020.898,17.325,1017.146z"/>
		<path style="fill:#3E3615;" d="M-3.866,970.458c6.887-0.531,17.51-12.987,21.523-17.549c0-0.441,0-0.883,0-1.324
			c-7.376-1.826-16.435,13.202-21.523,16.225C-3.866,968.692-3.866,969.575-3.866,970.458z"/>
		<path style="fill:#3E3615;" d="M42.822,940.658c-0.11-0.331-0.221-0.662-0.331-0.993c-1.655-0.331-3.311-0.662-4.967-0.993
			c-6.335,3.022-11.439,3.428-14.569,9.602c0.116,1.445,0.191,1.532,0.662,2.318c5.759-3.319,10.406-7.627,18.543-8.94
			C42.38,941.32,42.601,940.989,42.822,940.658z"/>
		<path style="fill:#3E3615;" d="M33.881,992.974c-8.393-4.77-20.092,6.88-29.47,3.311c-0.331-0.11-0.662-0.221-0.993-0.331
			c0-0.552,0-1.104,0-1.656c4.213-4.32,10.401-8.779,13.245-14.238c-0.11-0.772-0.221-1.545-0.331-2.318
			c-0.552-0.11-1.104-0.221-1.656-0.331c-2.985,2.43-18.175,15.143-16.887,19.867c2.18,7.994,31.251-0.149,35.761-2.318
			C33.661,994.299,33.771,993.637,33.881,992.974z"/>
		<path style="fill:#3E3615;" d="M352.087,34.385c9.253-2.06,13.403-22.255-1.656-21.523c-3.679,2.136-7.042,4.113-8.609,8.278
			C339.184,28.152,343.987,36.189,352.087,34.385z"/>
		<path style="fill:#3E3615;" d="M184.872,224.779c3.309,1.37,8.402,3.438,13.576,2.649c9.659-1.473,17.656-5.329,22.516-11.589
			c9.772-12.587,9.604-33.328,9.602-55.959c-0.003-35.186,1.209-77.421-34.768-77.151c-11.623,4.512-17.539,3.531-23.841,13.907
			c-6.761,11.132-5.836,26.053-8.278,42.052c-0.331,7.725-0.662,15.453-0.993,23.178
			C158.268,191.205,165.94,216.941,184.872,224.779z"/>
		<path style="fill:#3E3615;" d="M227.586,328.088c-0.552,18.651-1.104,37.308-1.656,55.959
			c-2.538,35.868-5.077,71.746-7.616,107.614c-0.515,22.631,0.261,58.566,18.543,61.257c14.939,2.199,19.806-20.92,21.854-33.112
			c0.221-5.849,0.441-11.7,0.662-17.549c1.668-11.036,0.605-26.557-0.993-37.416c-3.51-23.85-0.995-47.16-4.636-70.197
			c-2.762-17.478-5.915-48.639-2.98-68.211c1.957-13.047,1.747-55.009-2.98-61.919c-1.659-2.425-4.163-3.562-8.278-3.642
			C220.953,270.121,231.235,303.911,227.586,328.088z"/>
		<path style="fill:#3E3615;" d="M307.054,45.974c9.929-2.005,13.114-22.262-1.987-21.523c-2.302,1.338-4.828,2.512-6.291,4.636
			C294.576,35.185,297.771,47.848,307.054,45.974z"/>
		<path style="fill:#3E3615;" d="M193.15,5.247c9.344-0.114,30.092,0.905,37.085-2.318c0.11-1.214,0.221-2.428,0.331-3.642
			c-16.996,0-33.997,0-50.992,0c-0.257,1.802-0.27,2.998,0.662,4.305C182.196,6.707,188.438,5.304,193.15,5.247z"/>
		<path style="fill:#3E3615;" d="M266.327,62.861c9.092-3.842,4.563-17.075-6.622-16.556
			C243.36,52.989,254.643,67.798,266.327,62.861z"/>
		<path style="fill:#3E3615;" d="M270.3,24.452c10.436-3.023,6.977-18.926-5.298-18.874C252.582,10.84,256.349,28.494,270.3,24.452z
			"/>
		<path style="fill:#3E3615;" d="M305.068,80.08c10.664-2.193,9.531-20.075-2.98-19.867
			C291.026,65.052,292.865,82.589,305.068,80.08z"/>
		<path style="fill:#3E3615;" d="M280.565,368.815c2.195,7.263,3.628,16.677,8.94,20.861c1.889,0.377,3.057,0.159,3.973-1.324
			c1.296-3.898-2.79-10.202-3.973-13.576c-3.553-10.128-5.005-21.125-6.954-33.112c-2.802-17.232,1.264-37.239,5.298-50.33
			c1.603-5.201,4.785-10.007,4.967-16.225c-0.662-0.552-1.324-1.104-1.987-1.656c-0.772-0.11-1.545-0.221-2.318-0.331
			C273.793,293.029,272.11,340.835,280.565,368.815z"/>
		<path style="fill:#3E3615;" d="M224.275,42.663c1.785,1.395,4.855,3.543,7.947,1.656c5.306-2.318,3.153-9.184,0-11.92
			c-1.435-0.11-2.87-0.221-4.305-0.331C224.171,34.535,222.605,37.457,224.275,42.663z"/>
		<path style="fill:#3E3615;" d="M15.67,1060.522c-0.331,0.221-0.662,0.442-0.993,0.662c-0.11,0.552-0.221,1.104-0.331,1.656
			c2.941,3.157,5.936,4.732,10.596,6.291c1.541-0.713,1.772-0.493,1.987-2.649C24.28,1063.548,20.746,1060.962,15.67,1060.522z"/>
		<path style="fill:#3E3615;" d="M153.084,1045.291c-0.11,0.221-0.221,0.442-0.331,0.662c0,0.221,0,0.441,0,0.662
			c8.053,2.457,20.267-1.851,18.212-9.602c-2.063-4.421-11.836-5.719-18.212-5.629c-1.493-2.525-0.774-7.696-0.662-11.92
			c3.513-2.167,11.105-2.242,16.225-1.656c20.933,2.397,28.61-2.081,33.112,17.549c0.331,0,0.662,0,0.993,0c0.11,0,0.221,0,0.331,0
			c1.907-3.12,1.987-7.754,0.331-11.258c-5.086-10.761-13.403-12.02-26.158-15.232c-2.319-0.584-6.268-2.392-8.94-1.324
			c-1.166,0.677-1.114,0.645-1.324,2.318c0.552,0.552,1.104,1.104,1.656,1.656c0.221,0.331,0.441,0.662,0.662,0.993
			c-5.187,0.441-10.376,0.883-15.563,1.324c-2.161-4.818,0.276-21.264,0.331-28.476c6.435-3.116,20.247,0.627,23.509-5.629
			c0-0.662,0-1.325,0-1.987c0-0.221,0-0.441,0-0.662c-7.615,1.214-15.232,2.428-22.847,3.642c0-4.525,0-9.051,0-13.576
			c4.966-0.11,9.934-0.221,14.9-0.331c20.67,0,25.649,5.238,33.112,17.88c0.331,0.11,0.662,0.221,0.993,0.331
			c0.221-0.11,0.442-0.221,0.662-0.331c0.942-3.858-0.29-7.071-1.987-9.934c-8.299-14.005-25.072-13.32-47.019-12.914
			c-1.485-3.195-0.753-10.198-0.662-14.569c3.048-1.42,9.701-0.753,13.907-0.662c0.331-0.441,0.662-0.883,0.993-1.324
			c-2.947-4.061-9.077-2.656-14.9-3.973c-1.404-7.838-1.448-15.38-3.973-21.854c-10.064-25.801-33.929-40.791-70.528-31.125
			c-8.432,2.227-14.443,4.041-20.198,8.609c-13.598,10.793-12.495,39.129-12.251,63.575c-5.446-0.547-15.366-4.252-17.218,2.318
			c5.333,1.454,11.715,1.623,16.556,2.318c3.02,5.213,2.287,48.945,0.331,55.959c-3.642-0.331-7.285-0.662-10.927-0.993
			c-7.411,1.248-20.774,4.059-23.178,10.265c0.221,0.331,0.441,0.662,0.662,0.993c11.228-1.075,19.354-6.115,32.781-5.96
			c1.482,3.197,0.236,10.039-0.331,13.907c-8.222,3.771-22.021,0.486-31.787,1.987c-6.512,1-12.488,2.432-18.212,3.311
			c0,1.655,0,3.311,0,4.967c12.19-4.802,32.887-4.464,48.674-4.636c2.102,4.679-0.78,13.539-1.325,18.874
			c-4.285,1.667-10.491-5.935-15.894-6.622c-0.11,0-0.221,0-0.331,0c-0.11,0.772-0.221,1.545-0.331,2.318
			c4.568,6.118,11.473,5.72,15.563,9.934c-0.552,3.531-1.104,7.064-1.656,10.596c35.868,0,71.746,0,107.614,0
			c0.993-14.347,1.987-28.698,2.98-43.045c1.837-2.495,13.793,0.918,14.9,2.98C163.882,1043.356,158.7,1045.214,153.084,1045.291z"
			/>
		<path style="fill:#3E3615;" d="M199.11,948.935c0.221-0.221,0.441-0.442,0.662-0.662c-0.11-0.331-0.221-0.662-0.331-0.993
			c-1.98-3.017-9.712-5.039-14.569-4.967c-1.146,1.094-1.697,1.211-1.987,3.311C185.183,951.17,192.947,950.197,199.11,948.935z"/>
		<path style="fill:#3E3615;" d="M-3.866,1073.105c-0.038,6.544,5.817,3.007,7.947,6.954c2.428,0,4.857,0,7.285,0
			C10.049,1075.723,1.884,1073.012-3.866,1073.105z"/>
		<path style="fill:#3E3615;" d="M6.73,280.738c-1.033,0.51-2.141,0.708-3.973,0.662c-0.221-0.331-0.441-0.662-0.662-0.993
			c-0.331-5.077-0.662-10.155-0.993-15.232c-1.188-7.431-2.519-14.629-4.305-20.86c-0.221-0.11-0.441-0.221-0.662-0.331
			c0,57.168,0,114.352,0,171.52c4.856,1.876,9.713,3.753,14.569,5.629c6.401,1.214,12.804,2.428,19.205,3.642
			c17.227,3.024,34.713-2.845,46.026-7.616c41.49-17.498,69.336-69.703,53.31-131.785c-4.736-18.347-13.306-32.246-23.509-45.032
			c-3.745-4.693-15.812-12.1-17.218-17.549c-1.422-5.508,7.603-31.14,9.271-37.085c10.349-36.868,22.136-70.086,36.092-102.316
			c4.279-9.881,9.161-19.879,11.589-31.125c1.055-4.885,0.605-12.184-2.318-14.238c-10.715-7.532-26.488,15.283-30.132,20.198
			c-15.413,20.793-27.346,45.422-38.41,70.528c-4.381,9.942-13.133,23.338-14.9,34.436c-0.331,0.221-0.662,0.442-0.993,0.662
			c-0.442-10.374-0.883-20.751-1.324-31.125c-4.797-29.247-4.57-59.616-10.596-87.084c-2.879-13.123-5.138-27.163-21.192-27.152
			C11.307,26.975,4.099,54.048,0.769,73.788c-0.221,7.725-0.442,15.453-0.662,23.178c-0.331,6.732-0.662,13.466-0.993,20.198
			c-5.691,34.526-3.132,79.661-2.98,118.872C5.231,245.1,7.091,262.307,6.73,280.738z M94.145,363.517
			c0.11,0.552,0.221,1.104,0.331,1.656c-3.522,5.085-9.581,9.454-16.556,10.927c-16.73,3.532-26.039-14.524-9.934-22.185
			C78.961,353.9,89.352,357.224,94.145,363.517z M64.675,168.819c6.511-15.561,13.025-31.127,19.536-46.688
			c3.399-8.028,5.902-18.886,11.589-24.834c0.772,0,1.545,0,2.318,0c1.496,3.799-6.026,18.627-7.947,22.847
			c-9.933,24.169-19.868,48.346-29.801,72.515c-0.662,0-1.324,0-1.987,0C56.129,188.534,62.795,173.597,64.675,168.819z
			 M61.364,294.976c-0.993,0.221-1.987,0.441-2.98,0.662c-0.11,0-0.221,0-0.331,0c-2.938-4.828-1.181-15.263-2.318-21.523
			c-1.545-6.842-3.091-13.687-4.636-20.529c-1.647-4.363-4.724-8.951-4.967-14.238c0.441-0.331,0.883-0.662,1.324-0.993
			c0.772,0,1.545,0,2.318,0C59.092,251.302,61.785,272.824,61.364,294.976z M46.133,197.958c1.545,0.11,3.091,0.221,4.636,0.331
			c2.44,10.415,3.465,23.036,3.311,35.099c-1.038,0.537-2.901,0.989-4.305,0.331c-1.874-1.293-4.702-29.502-4.636-34.436
			C45.471,198.841,45.802,198.399,46.133,197.958z M18.981,98.622c0.552,0.11,1.104,0.221,1.656,0.331
			c4.4,8.764,2.289,22.453,3.973,33.443c0.773,10.815,1.545,21.634,2.318,32.45c1.104,8.277,2.208,16.557,3.311,24.834
			c-0.331,0.221-0.662,0.442-0.993,0.662c-0.883,0.11-1.766,0.221-2.649,0.331c-4.1-6.509-3.175-17.023-4.636-26.158
			c-1.766-21.521-3.532-43.048-5.298-64.568C17.436,99.505,18.208,99.064,18.981,98.622z"/>
		<path style="fill:#3E3615;" d="M122.29,0.611c0.331-0.331,0.662-0.662,0.993-0.993c-18.43-0.11-36.866-0.221-55.297-0.331
			C73.744,21.214,113.979,18.434,122.29,0.611z"/>
		<path style="fill:#3E3615;" d="M68.649,695.63c16.284-41.674-6.074-78.237-38.41-88.078c-6.385-1.943-23.65-4.419-21.192,6.622
			c1.859,8.35,12.347,11.955,18.212,16.556c5.299,4.157,10.683,10.018,14.569,15.563c19.259,27.475-3.833,58.059-23.509,69.535
			c-6.259,3.651-14.21,3.445-21.523,6.622c-1.67,1.878-0.743,22.394-0.662,26.821C31.552,749.167,58.535,721.513,68.649,695.63z"/>
		<path style="fill:#3E3615;" d="M273.611,684.703c-1.802-1.079-3.728-1.448-6.953-1.324c-3.769,1.691-7.351,1.634-10.265,3.642
			c-0.781,3.367-1.187,9.017,0.662,11.589c0.6,1.043,0.926,1.118,1.987,1.656c6.279-0.315,11.056-3.743,14.9-6.622
			C274.737,690.628,274.46,687.424,273.611,684.703z"/>
		<path style="fill:#3E3615;" d="M161.362,259.546c0.772-0.993,1.545-1.987,2.318-2.98c0.08-5.861-4.362-8.473-10.265-8.278
			c-1.104,1.104-2.208,2.208-3.311,3.311C150.888,256.517,155.481,259.714,161.362,259.546z"/>
		<path style="fill:#3E3615;" d="M308.048,92.993c-2.514,1.373-4.838,2.253-6.291,4.636c-4.173,6.842,0.391,18.575,9.602,16.225
			C320.702,111.471,321.439,92.383,308.048,92.993z"/>
		<path style="fill:#3E3615;" d="M304.074,127.43c-2.972,4.245-2.636,9.681,0.331,13.576c1.788,0.518,3.954,1.008,5.629,0
			c4.415-1.999,3.893-8.238,2.318-12.583c-1.62-1.135-2.788-1.937-5.629-1.987C305.84,126.767,304.957,127.098,304.074,127.43z"/>
		<path style="fill:#3E3615;" d="M298.114,327.094c1.339,0.829,1.974,1.302,4.305,1.324c0.662-0.772,1.324-1.545,1.987-2.318
			c1.632-4.083-0.536-11.481-0.993-15.563c-1.088-0.634-1.437-0.924-3.311-0.993C296.971,312.616,296.614,321.554,298.114,327.094z"
			/>
		<path style="fill:#3E3615;" d="M284.207,467.82c-3.248,11.96,6.184,22.797,17.549,20.198c17.038-3.896,14.903-32.112-5.96-31.456
			C290.224,459.315,285.964,461.35,284.207,467.82z"/>
		<path style="fill:#3E3615;" d="M261.691,244.977c8.982-1.987,11.53-20.014-3.311-19.205
			C249.562,230.841,249.45,247.685,261.691,244.977z"/>
		<path style="fill:#3E3615;" d="M321.955,0.28c0-0.331,0-0.662,0-0.993c-6.401,0-12.804,0-19.205,0
			C302.921,12.173,318.958,8.191,321.955,0.28z"/>
		<path style="fill:#3E3615;" d="M268.976,196.965c0.645-2.449,0.401-3.704-0.331-5.96c-2.077-1.536-3.561-2.146-7.616-1.987
			c-3,1.539-4.756,1.619-6.291,4.636c0.221,1.545,0.442,3.091,0.662,4.636C259.729,200.881,265.887,199.326,268.976,196.965z"/>
		<path style="fill:#3E3615;" d="M336.524,629.737c27.246-5.558,39.558-20.126,44.039-49.006c1.117-7.203-0.707-15.539-2.98-20.861
			c-8.3-19.429-30.409-30.905-58.608-30.463c-5.187,0.883-10.376,1.766-15.563,2.649c-16.677,5.167-30.22,17.105-36.754,32.45
			C248.931,606.133,295.739,638.056,336.524,629.737z M295.796,573.778c3.886-9.434,12.524-9.23,22.516-12.914
			c31.157-0.631,40.711,27.971,14.238,38.079C315.103,605.604,287.688,593.464,295.796,573.778z"/>
		<path style="fill:#3E3615;" d="M415.992,429.741c2.618-12.622,3.802-29.493-3.973-36.754c-16.97-3.463-8.904,37.624-26.158,44.701
			c-22.97,9.421-19.901-38.949-29.801-46.688c-1.214-0.11-2.428-0.221-3.642-0.331c-7.358,6.026-7.883,15.969-9.934,27.483
			c-6.017,33.783,5.384,63.617,33.112,68.542C405.594,492.021,411.476,451.514,415.992,429.741z"/>
		<path style="fill:#3E3615;" d="M344.14,723.775c1.357-2.489,2.448-4.843,3.973-6.953c5.163-1.301,6.929-0.341,10.265,1.987
			c4.629-0.558,2.656-7.722,1.324-10.927c-2.469-5.942-7.582-10.015-16.556-9.602c-4.993,2.435-9.302,4.569-10.927,10.265
			C329.999,716.329,336.746,725.32,344.14,723.775z"/>
		<path style="fill:#3E3615;" d="M326.259,856.553c24.023-6.149,22.75-45.873-10.265-45.032
			c-7.967,3.636-14.396,5.598-16.887,14.569C294.54,842.542,310.625,860.555,326.259,856.553z"/>
		<path style="fill:#3E3615;" d="M396.125,817.481c15.351-3.147,26.977-10.212,31.787-23.841c3.588-10.166,0.51-23.048-2.649-31.125
			c-7.537-19.268-16.518-38.048-43.708-37.748c-4.083,0.883-8.168,1.766-12.251,2.649c-12.62,4.965-19.981,16.736-24.172,30.132
			c-2.475,7.912-4.377,20.238-1.656,29.138C348.524,803.19,371.022,822.627,396.125,817.481z"/>
		<path style="fill:#3E3615;" d="M313.346,748.277c-2.097-0.11-4.194-0.221-6.291-0.331c-4.036,2.229-13.238,5.406-9.934,13.245
			C301.606,774.357,324.689,756.23,313.346,748.277z"/>
		<path style="fill:#3E3615;" d="M299.108,708.212c1.538-1.548,2.048-3.767,3.311-5.629c3.694,1.094,3.562,4.538,6.291,6.291
			c6.101,3.92,13.892-0.986,15.563-5.298c-0.142-5.231-16.457-13.788-21.854-13.907c-6.417,3.215-9.522,8.137-6.954,17.218
			C296.7,707.761,296.823,708.157,299.108,708.212z"/>
		<path style="fill:#3E3615;" d="M342.153,679.405c6.351,1.915,4.559-15.549-5.96-15.231c-0.772,0.331-1.545,0.662-2.318,0.993
			c-1.032,1.516-2.858,3.949-1.656,6.622C333.159,674.282,339.501,678.787,342.153,679.405z"/>
		<path style="fill:#3E3615;" d="M315.664,659.869c0.591-2.179,0.643-4.154,0-6.291c-3.729-2.405-11.4-4.392-16.887-4.305
			C284.739,657.658,304.32,669.191,315.664,659.869z"/>
	</g>
</g>
</svg>
