<?xml version="1.0" encoding="utf-8"?>
<!-- Generator: Adobe Illustrator 27.5.0, SVG Export Plug-In . SVG Version: 6.00 Build 0)  -->
<svg version="1.1" id="Layer_1" xmlns="http://www.w3.org/2000/svg" xmlns:xlink="http://www.w3.org/1999/xlink" x="0px" y="0px"
	 viewBox="0 0 1920 1080" style="enable-background:new 0 0 1920 1080;" xml:space="preserve">
<g>
	<defs>
		<rect id="SVGID_1_" width="1920" height="1080"/>
	</defs>
	<clipPath id="SVGID_00000016780335479486979850000009321532336303327139_">
		<use xlink:href="#SVGID_1_"  style="overflow:visible;"/>
	</clipPath>
	
		<rect style="clip-path:url(#SVGID_00000016780335479486979850000009321532336303327139_);fill-rule:evenodd;clip-rule:evenodd;fill:#F6936E;" width="1920" height="1080"/>
	
		<path style="clip-path:url(#SVGID_00000016780335479486979850000009321532336303327139_);fill-rule:evenodd;clip-rule:evenodd;fill:#FFFFFF;" d="
		M27.998-1.112c57.865,0,115.747,0,173.612,0c0.099,11.719-3.776,23.358-6.626,32.801c-14.878,49.29-47.249,64.371-91.444,83.824
		c-7.178,3.865-14.358,7.731-21.536,11.596c-5.584,2.53-12.084,4.394-17.56,7.62c-15.989,9.42-31.588,18.588-46.053,29.487
		c-7.73,6.515-15.462,13.033-23.192,19.548c0-42.405,0-84.822,0-127.227c22.151-3.793,31.307-17.969,34.789-41.084
		C30.943,9.097,28.511,4.063,27.998-1.112z M239.711-1.112c2.319,0,4.639,0,6.958,0c0.048,7.816,2.19,32.313,0.331,36.445
		C237.902,36.818,239.5,8.517,239.711-1.112z M294.047-1.112c47.264,0,94.541,0,141.805,0
		c-6.687,42.706,19.091,70.434,51.355,78.191c38.798,9.329,77.537-18.89,87.468-44.397c3.239-8.318,4.458-23.826,1.657-33.795
		c58.086,0,116.189,0,174.274,0c-14.876,34.163-44.553,51.171-71.565,72.89c-12.449,10.01-21.812,25.279-31.144,38.433
		c-21.55,30.376-46.809,64.614-86.474,76.535c-27.152,8.16-64.478,4.031-88.794-3.645c-48.365-15.267-83.477-43.839-118.944-71.896
		c-19.53-15.45-37.682-30.989-50.692-53.011C294.075,43.099,291.845,21.536,294.047-1.112z M716.48,1080.316
		c-80.724,0-161.471,0-242.195,0c0.388-5.616,4.917-11.307,7.289-15.572c6.005-10.796,11.762-21.04,17.891-31.475
		c9.742-16.586,17.631-34.453,22.861-55.33c0.883-8.282,1.767-16.567,2.651-24.849c1.48-9.095-2.824-24.77-4.97-31.807
		c-10.495-34.419-22.398-50.152-41.415-74.878c-13.618-17.707-28.414-34.244-41.415-52.68
		c-16.012-25.399-32.029-50.805-48.041-76.204c-25.766-36.385-56.022-68.69-91.444-95.42c-44.22-33.369-100.346-52.491-155.72-75.21
		c-39.878-16.361-88.855-30.894-113.643-61.957c-5.83-7.306-10.316-15.174-15.241-23.524c-7.97-13.512-13.346-30.423-17.891-47.379
		c0-13.141,0-26.286,0-39.427c0-10.932,0-21.868,0-32.801c3.461-10.894,7.529-21.492,11.928-31.475
		c21.208-48.141,74.429-94.886,122.92-116.293c11.477-5.067,24.119-8.195,36.445-12.921c33.611-12.888,89.567-13.461,122.257,0
		c21.342,8.788,37.461,23.471,54.005,37.108c7.73,6.371,13.728,15.104,21.867,21.204c17.205,12.896,36.531,23.713,59.638,30.813
		c17.966,5.52,53.835,13.164,77.198,9.277c5.521-0.11,11.045-0.221,16.566-0.331c25.043-4.187,58.757-10.554,82.167-1.325
		c25.003,9.857,30.403,32.46,44.728,52.68c9.133,12.89,20.36,21.011,36.445,27.168c9.32,3.568,25.841,5.275,37.77,2.319
		c7.557-1.873,15.458-4.268,21.536-7.952c6.095-3.694,11.982-8.674,16.235-14.247c9.927-13.007,10.168-30.957,2.319-46.385
		c-11.707-23.012-39.037-41.225-58.644-56.987c-14.055-11.299-18.425-22.559-5.964-38.433c8.071-10.281,19.602-18.989,29.819-27.168
		c7.951-7.178,15.904-14.358,23.855-21.536c21.721-17.479,32.822-41.137,63.613-50.361c27.55-8.253,62.99-0.461,85.481,6.626
		c34.542,10.886,60.161,25.756,85.48,45.059c9.824,7.49,18.084,19.543,25.18,29.819c8.724,11.374,17.45,22.752,26.174,34.126
		c14.629,18.868,46.211,44.445,51.355,69.908c2.319,11.48-4.343,20.486-8.946,26.506c-14.534,19.006-49.277,31.924-73.884,41.084
		c-27.497,9.497-55.002,18.997-82.499,28.493c-64.029,25.242-117.842,57.108-154.395,109.667
		c-7.06,10.152-13.287,22.573-17.229,35.451c-3.791,12.385-6.218,31.603-3.313,46.716c10.157,52.844,44.498,73.051,98.402,82.167
		c15.192,2.569,35.913-1.179,47.379-4.638c35.497-10.709,68.801-27.947,89.456-53.674c7.718-9.612,17.191-18.916,20.211-33.132
		c4.233-19.929-7.232-30.661-12.259-43.403c-6.255-15.855,1.958-33.539,8.946-43.403c18.676-26.366,64.952-50.6,96.745-64.607
		c13.804-6.736,27.611-13.474,41.415-20.21c27.894-12.321,57.865-28.712,73.222-53.674c2.761-6.074,5.522-12.149,8.283-18.223
		c5.167-16.933,0.829-34.928-5.964-46.053c-16.429-26.909-43.854-43.951-68.583-62.619c-49.773-37.575-78.853-94.648-133.19-127.889
		c-30.977-18.95-67.674-31.318-102.709-46.385c-19.857-8.539-42.199-18.578-53.342-35.783c46.932,0,93.879,0,140.811,0
		c12.177,20.982,53.847,34.821,88.462,26.174c17.211-4.299,32.762-9.76,47.379-16.897c4.93-2.407,10.107-7.347,14.909-9.277
		c20.871,0,41.748,0,62.62,0c14.577,0.11,29.158,0.221,43.734,0.331c-1.325,1.325-2.651,2.651-3.976,3.976
		c-4.859,5.742-9.719,11.486-14.578,17.229c-8.48,11.148-14.705,24.718-18.554,40.421c-8.268,33.73,9.77,69.15,22.53,88.131
		c23.177,34.476,53.085,63.015,78.523,95.42c13.47,17.159,30.122,31.673,38.102,54.336c14.052,39.909-12.988,67.858-24.518,94.426
		c-9.623,22.176-7.504,49.577,0.994,71.565c11.423,29.557,28.475,53.761,46.053,77.197c7.734,10.312,17.821,18.889,25.843,28.825
		c16.647,20.619,38.45,38.921,59.638,54.999c36.901,28.001,74.407,56.773,122.588,73.553c13.226,4.606,26.31,6.972,41.084,10.271
		c20.012,4.469,54.743,8.067,78.854,4.307c14.466-1.877,28.937-3.755,43.403-5.632c40.769-8.473,80.716-18.682,116.293-32.801
		c21.413-8.498,40.797-19.3,61.294-28.162c0,57.754,0,115.526,0,173.28c-2.761-1.546-5.522-3.092-8.283-4.638
		c-7.73-3.423-15.462-6.848-23.192-10.271c-27.332-10.359-68.187-10.714-95.42,0c-44.402,17.468-72.602,51.51-115.962,70.571
		c-21.32,9.372-50.941,18.012-81.173,11.265c-10.499-2.343-20.377-5.952-29.487-9.94c-17.839-7.808-33.011-19.988-47.379-31.475
		c-4.196-4.086-8.394-8.173-12.59-12.259c-12.307-9.913-24.214-22.473-34.126-34.789c-7.067-7.399-14.137-14.8-21.204-22.198
		c-17.203-21.392-41.855-46.56-63.613-63.282c-18.571-14.272-37.796-27.234-58.644-39.427c-19.543-11.43-42.041-19.207-55.33-36.776
		c-5.148-6.806-12.252-19.726-9.608-32.469c2.487-11.988,10.461-24.857,7.62-41.415c-6.08-35.433-26.585-53.801-62.619-59.638
		c-5.19-0.11-10.382-0.221-15.572-0.331c-35.367,5.839-63.444,15.608-80.511,39.427c-7.372,10.288-14.521,27.778-7.952,44.397
		c9.286,23.491,50.14,28.98,31.807,68.583c-9.647,20.84-48.3,40.196-68.583,52.349c-50.76,30.413-101.044,58.925-166.323,75.21
		c-20.759,5.179-53.437,11.671-79.848,7.289c-17.999-2.987-34.677-4.179-50.692-8.614
		c-83.304-23.073-144.533-66.105-184.876-132.197c-11.819-19.362-20.865-40.732-27.168-65.933
		c-1.708-6.827-1.417-13.164-2.651-20.873c-0.221-7.178-0.442-14.358-0.663-21.536c4.294-26.051,9.295-47.603,20.211-66.595
		c11.127-19.36,32.908-49.237,19.548-80.179c-11.924-27.616-55.622-49.755-95.42-34.126c-24.252,9.524-39.607,28.02-52.349,49.035
		c-10.221,16.859-17.163,37.693-22.198,59.306c-4.918,21.11-3.384,49.968,0.663,70.571c9.095,46.311,21.371,86.286,41.746,121.263
		c16.668,28.612,31.46,56.553,50.361,82.499c11.771,16.16,25.581,30.375,38.102,45.722c10.071,12.344,23.621,23.833,36.114,33.795
		c8.766,6.99,15.94,16.695,25.18,23.192c14.073,9.897,32.341,24.036,42.74,37.439c16.87,21.743,25.112,48.046,31.475,80.842
		c1.546,17.889,3.092,35.784,4.638,53.674c1.545,6.52,4.049,13.318,5.964,19.879c1.877,10.049,3.755,20.101,5.632,30.15
		C714.165,1071.785,716.351,1075.488,716.48,1080.316z M1449.028-1.112c67.141,0,134.302,0,201.442,0
		c16.982,7.307,34.743,16.495,55.33,20.211c24.487,4.419,65.07-4.404,70.24-20.211c31.141,0,62.291,0,93.432,0
		c-2.429,5.742-4.86,11.486-7.289,17.229c-4.439,6.788-8.409,14.581-13.253,21.204c-17.522,23.96-46.443,48.162-74.547,61.294
		c-15.509,7.247-41.186,16.917-64.276,9.94c-25.968-7.846-43.912-23.458-64.607-36.445c-17.085-10.722-38.131-20.923-58.644-27.5
		c0-0.11,0-0.221,0-0.331c10.123,1.144,20.582,7.755,28.825,11.928c-0.221-0.331-0.442-0.663-0.663-0.994
		c-7.73-3.534-15.462-7.069-23.192-10.602c-15.998-6.256-33.491-9.753-51.355-13.253c-57.897-11.344-124.834,18.557-108.01,79.185
		c8.627,31.088,30.178,50.001,47.047,72.89c21.661,29.389,39.745,60.958,70.902,80.842c32.973,21.042,74.068,30.735,98.071,60.632
		c4.099,5.106,9.137,9.792,11.927,16.235c10.164,23.461-10.999,28.856-27.831,33.132c-17.59,4.468-30.859,10.625-36.114,27.5
		c-1.096,3.518-3.133,9.134-2.319,14.247c5.745,36.111,31.079,53.437,66.264,59.969c7.036,1.306,17.802,3.087,26.506,1.657
		c12.903-2.12,24.246-3.016,34.457-7.289c34.968-14.632,68.386-60.764,53.342-113.974c-2.925-10.345-7.178-20.34-12.259-28.825
		c-21.365-35.678-53.368-57.109-89.456-78.191c-15.791-8.061-31.587-16.125-47.379-24.186
		c-14.119-8.597-27.203-18.078-39.758-28.162c-16.524-13.271-26.74-31.016-35.12-52.68c-2.572-6.649-5.98-22.14-1.325-30.15
		c10.384-17.87,49.365-4.627,60.963,2.319c33.282,19.935,56.267,49.475,93.764,65.601c12.159,5.229,30.764,12.46,50.029,9.277
		c34.624-5.721,54.414-21.809,78.191-37.77c19.48-13.076,39.312-24.555,59.969-36.776c9.005-5.328,17.937-9.381,28.162-14.247
		c1.769-0.842,1.967-2.374,4.307-2.982c0,31.362,0,62.733,0,94.095c-18.516,10.054-36.107,17.312-48.041,33.795
		c-7.15,9.875-12.376,22.072-15.903,35.451c-2.096,7.949-2.494,20.761-0.994,29.819c2.368,14.303,1.49,26.472,4.639,38.764
		c6.399,24.986,16.655,45.262,26.174,66.927c5.366,12.212,21.243,38.524,18.223,56.656c-5.296,31.795-19.013,51.687-34.789,72.559
		c-29.685,39.276-68.117,71.254-124.576,83.824c-30.711,6.837-71.472,3.152-98.402-4.307
		c-57.714-15.987-110.228-43.074-143.13-84.155c-14.142-17.658-27.987-33.965-34.457-59.638c-2.977-11.81-2.054-24.001-4.307-37.439
		c-1.516-9.039-2.309-23.574-0.663-33.463c0.11-5.853,0.221-11.707,0.331-17.56c2.396-14.958,1.911-40.766-0.663-54.999
		c-3.724-20.596-9.674-35.715-18.885-50.361c-31.038-49.352-78.333-80.826-111.655-127.558c-6.884-9.655-27.822-38.905-22.53-58.644
		c8.919-33.266,47.966-52.731,80.511-63.282c14.247-4.619,29.479-7.557,41.415-14.578C1440.951,3.25,1446.923,2.81,1449.028-1.112z
		 M1924.803-1.112c-0.11,9.607-0.221,19.218-0.331,28.825c-0.85-0.693-0.506-0.683-1.988-0.994c0.122,2.248,0.061,3.62-0.994,4.638
		c0.11-2.111,0.217-4.829-0.663-5.964c-0.221,0.331-0.442,0.663-0.663,0.994c-1.044,2.958,0.488,4.318-0.994,6.626
		c0.552,0.773,1.104,1.546,1.657,2.319c0.11-1.325,0.221-2.651,0.331-3.976c0.11,0,0.221,0,0.331,0
		c0.179,3.414,0.421,13.652-1.657,17.229c-3.615,0.836-10.567,5.337-15.903,3.976c-2.098-0.994-4.197-1.988-6.295-2.982
		c-3.917-0.722-5.155,1.932-8.283,0c-0.442-1.215-0.884-2.43-1.325-3.645c-3.199-9.812,2.609-15.02,8.614-18.885
		c2.415-1.554,3.084-5.233,5.964-6.295c0,0.331,0,0.663,0,0.994c-0.883,1.767-1.767,3.534-2.651,5.301
		c0.11,0.221,0.221,0.442,0.331,0.663c2.637,0.135,2.51,0.849,4.639,1.325c3.912-3.026,2.797-9.258,8.614-10.602
		c0,0.773,0,1.546,0,2.319c-1.877,2.982-3.755,5.964-5.632,8.946c0.638,1.5,0.215,1.195,1.657,0.994
		c0.682,0.768,0.724,1.387,1.657,1.988c1.104,0.11,2.209,0.221,3.313,0.331c1.119-4.64,3.991-4.026,5.301-9.277
		c0.331,0,0.663,0,0.994,0c-0.11,0.221-0.221,0.442-0.331,0.663c2.905-1.934,1.487-7.93-0.663-9.608
		c-0.442,0.11-0.883,0.221-1.325,0.331c0-0.442,0-0.884,0-1.325c1.844-0.354,1.59-2.12,2.319-4.307
		c-0.11-0.11-0.221-0.221-0.331-0.331c-0.883,0.773-1.767,1.546-2.651,2.319c-0.447-1.868-1.275-2.706-2.982-3.313
		c0.221-0.663,0.442-1.325,0.663-1.988c0-0.11,0-0.221,0-0.331c-1.104-0.221-2.209-0.442-3.313-0.663
		c-0.663-1.877-1.325-3.755-1.988-5.632C1914.307-0.882,1919.774-1.12,1924.803-1.112z M1287.675,2.533
		c1.648,0.285,2.893,0.653,3.976,1.325c0.11,0.331,0.221,0.663,0.331,0.994c-3.283,7.387-12.304,16.67-16.897,24.518
		c-3.119,5.329-3.909,13.979-7.952,18.554c-1.104-0.442-2.209-0.884-3.313-1.325C1264.247,33.113,1279.703,9.347,1287.675,2.533z
		 M496.815,9.159c19.411-0.459,49.841,12.444,33.463,32.138c-13.721,16.501-52.378,11.712-57.65-8.946
		c-3.241-12.703,6.527-19.341,14.909-21.867C490.63,10.043,493.723,9.601,496.815,9.159z M823.828,13.466
		c5.797,1.43,14.024,1.606,13.915,9.94c-3.945,8.272-22.755,7.287-23.192-3.313C816.356,15.136,819.014,15.424,823.828,13.466z
		 M498.472,15.123c-7.174,2.691-19.739,3.347-16.897,15.241c3.668,15.352,32.162,18.606,41.415,5.964
		C532.35,23.539,511.101,14.789,498.472,15.123z M1916.851,20.756c0.221,0.442,0.442,0.884,0.663,1.325
		c-0.994,0.442-1.988,0.884-2.982,1.325C1915.305,22.523,1916.078,21.639,1916.851,20.756z M1920.496,22.412
		c0.101,0.657,0.484,0.336-0.331,0.994C1920.275,23.075,1920.385,22.743,1920.496,22.412z M1924.472,29.37
		c0.11,0.552,0.221,1.104,0.331,1.657C1924.212,30.163,1924.274,30.493,1924.472,29.37z M1923.809,32.352c0.331,0,0.663,0,0.994,0
		c0,0.552,0,1.104,0,1.657c-0.221-0.11-0.442-0.221-0.663-0.331C1924.03,33.235,1923.92,32.793,1923.809,32.352z M1913.87,33.346
		c-0.221,0.552-0.442,1.104-0.663,1.657c0.221-0.11,0.442-0.221,0.663-0.331C1913.87,34.229,1913.87,33.787,1913.87,33.346z
		 M818.195,44.942c8.138-0.278,15.447,2.712,15.241,10.934c-4.66,9.886-24.943,4.007-22.53-4.307
		C811.465,46.843,814.557,46.572,818.195,44.942z M845.032,51.9c15.621,0.705,31.779,7.622,44.065,12.921
		c4.344,1.874,11.148,3.506,13.584,7.289c-0.11,0.221-0.221,0.442-0.331,0.663c-6.515-2.65-13.033-5.301-19.548-7.952
		c-12.184-4.328-25.595-6.291-39.096-9.277c-0.11-0.221-0.221-0.442-0.331-0.663C843.928,53.888,844.48,52.893,845.032,51.9z
		 M239.38,55.213c6.857-0.052,12.529,4.871,12.59,11.596c-1.546,2.429-3.092,4.86-4.638,7.289c0.552,3.644,1.104,7.289,1.657,10.934
		c2.162,9.722,6.862,27.102,5.301,37.108c-0.442,0.221-0.884,0.442-1.325,0.663c-1.708-0.489-2.781-0.863-3.976-1.657
		c-2.65-15.681-5.301-31.366-7.952-47.047c-3.427-2.187-12.017-5.437-8.946-12.59C233.554,57.809,236.128,57.117,239.38,55.213z
		 M1535.502,56.869c15.461-0.328,50.864,1.682,54.999,10.271c1.922,4.103,0.268,12.256-0.663,16.235
		c-8.527,2.085-19.552-2.248-29.488-0.663c-5.742,0.994-11.486,1.988-17.229,2.982c-3.313,1.104-6.627,2.209-9.94,3.313
		c-3.778-3.591-14.945-22.428-11.596-29.819C1526.225,58.416,1530.864,57.642,1535.502,56.869z M1263.489,58.195
		c2.651,3.169,0.276,15.956,1.325,21.204c1.669,8.348,3.904,16.118,6.958,23.192c1.988,3.975,3.976,7.952,5.964,11.928
		c-0.442,0-0.884,0-1.325,0C1266.504,109.295,1257.55,73.992,1263.489,58.195z M762.865,60.183
		c6.114-0.327,14.934,4.114,10.934,9.94c-4.156,6.053-17.586,2.782-17.891-4.638C757.589,61.996,759.323,61.83,762.865,60.183z
		 M1481.497,62.833c6.905-0.286,19.378,9.016,17.229,12.59c-2.797,4.458-7.786,7.443-10.602,12.259
		c-2.756,4.713-2.576,10.824-4.638,16.566c-9.694,0.132-18.821-0.873-27.168-2.651c-0.663-0.663-1.325-1.325-1.988-1.988
		C1454.417,79.454,1468.361,70.455,1481.497,62.833z M916.597,75.755c4.113-0.265,9.769,1.708,8.283,5.632
		c-2.508,5.573-11.269,2.597-12.921-1.657C913.434,77.757,914.483,77.118,916.597,75.755z M1850.588,79.399
		c2.299,0.926,3.242,1.837,4.307,3.976c0,0.331,0,0.663,0,0.994c-0.994,1.104-1.988,2.209-2.982,3.313
		c-3.073,0.001-4.511-0.83-6.295-1.988c-0.528-2.556,0.139-3.104,1.325-4.638C1848.158,80.504,1849.373,79.951,1850.588,79.399z
		 M727.082,82.05c13.765,2.085,31.936,13.999,13.915,24.518c-10.629,6.204-34.755-1.615-30.813-14.909
		C712.521,83.781,719.299,84.782,727.082,82.05z M951.386,86.026c5.255-0.136,9.948,2.124,10.271,6.958
		c-0.11,0.11-0.221,0.221-0.331,0.331c-2.786,6.261-14.03,3.016-14.578-3.313C948.264,87.727,948.913,87.385,951.386,86.026z
		 M1646.826,90.333c7.757,0.702,14.113,9.51,19.217,13.584c11.693,9.334,23.933,17.956,37.108,25.843
		c6.294,3.423,12.591,6.848,18.885,10.271c-3.975,5.853-7.952,11.707-11.927,17.56c-6.025-0.292-17.375-9.421-21.867-12.59
		c-14.855-10.482-29.163-21.211-43.403-32.138c-4.417-3.423-8.836-6.848-13.253-10.271c0-0.221,0-0.442,0-0.663
		C1636.665,98.064,1641.746,94.198,1646.826,90.333z M210.886,90.664c5.663-0.296,14.091,2.909,12.259,8.283
		c-1.218,6.685-13.252,9.474-17.891,3.976C200.358,97.121,206.618,92.66,210.886,90.664z M993.795,96.296
		c8.188,0.216,17.054,5.125,14.909,13.584c-2.04,1.643-3.898,3.678-6.626,4.638c-9.022,3.176-20.023-2.549-19.879-11.265
		C984.84,98.104,988.068,98.529,993.795,96.296z M289.74,97.953c2.525,0.139,3.476,0.939,4.97,1.988
		c0.11,0.221,0.221,0.442,0.331,0.663c-0.055,2.286-0.451,2.409-1.325,3.645c-0.221,0-0.442,0-0.663,0
		c-3.912,2.413-8.32-1.518-5.632-5.301C288.194,98.616,288.967,98.284,289.74,97.953z M1828.058,99.278
		c0.883,0.331,1.767,0.663,2.651,0.994c0.767,2.538,1.408,4.999,0,7.289c-9.422,2.167-14.304,7.234-21.204,11.596
		c-7.73,4.528-15.462,9.056-23.192,13.584c-3.196,1.949-6.581,5.477-10.602,6.295c-1.525-1.565-2.988-2.832-3.313-5.632
		c0.331-0.442,0.663-0.884,0.994-1.325c11.561-3.408,21.515-13.494,31.144-19.548
		C1813.013,107.201,1819.886,104.508,1828.058,99.278z M678.047,110.543c5.753,0.842,37.437,13.538,39.427,16.897
		c-0.11,0.331-0.221,0.663-0.331,0.994c-0.221,0.11-0.442,0.221-0.663,0.331c-6.474-0.607-36.679-12.758-39.427-16.566
		C677.429,110.995,677.428,111.293,678.047,110.543z M1024.276,121.145c7.598-0.234,9.419,2.008,12.59,5.964
		c-0.11,0.331-0.221,0.663-0.331,0.994c-1.413,3.599-11.507,8.564-16.897,6.626c-2.659-0.956-4.277-3.643-5.964-5.632
		c0.11-0.883,0.221-1.767,0.331-2.651C1017.107,124.217,1020.583,123.165,1024.276,121.145z M176.429,125.121
		c0.883,0.11,1.767,0.221,2.651,0.331c0.11,0.994,0.221,1.988,0.331,2.982c-2.32,3.443-16.883,5.722-21.867,7.289
		c-11.374,3.975-22.752,7.952-34.126,11.928c-6.294,2.982-12.591,5.964-18.885,8.946c-2.171-2.008-5.922-4.305-6.626-7.62
		c2.83-2.651,8.079-3.408,11.928-4.97c12.086-4.906,25.832-8.63,39.096-12.259C158.095,129.539,167.263,127.33,176.429,125.121z
		 M1283.699,126.778c4.115,0.943,12.919,3.241,10.602,8.946c-2.872,6.78-21.521,3.361-17.891-4.97
		C1277.904,127.408,1280.144,128.111,1283.699,126.778z M660.818,127.44c12.478,4.748,24.961,9.498,37.439,14.247
		c4.49,1.791,12.235,2.881,15.241,6.295c0,0.442,0,0.884,0,1.325c-0.331,0.331-0.663,0.663-0.994,0.994
		c-5.638-0.084-10.271-3.464-14.578-5.301c-8.801-3.755-17.88-6.993-26.174-10.934C668.113,132.338,662.019,131.528,660.818,127.44z
		 M1481.829,129.428c8.724,0.663,17.45,1.325,26.174,1.988c7.634,16.077,19.226,29.866,31.807,41.084
		c-0.11,0.552-0.221,1.104-0.331,1.657c-8.393,2.871-16.788,5.743-25.18,8.614c-9.003-5.513-22.175-28.109-27.5-38.433
		C1485.063,140.972,1479.158,133.43,1481.829,129.428z M257.933,130.091c7.549,0.159,15.059,3.168,21.204,5.301
		c18.416,6.393,34.145,13.144,48.704,22.861c6.108,4.077,13.903,8.072,18.223,13.915c-0.11,0.552-0.221,1.104-0.331,1.657
		c-2.882,0.469-15.761-10.74-19.217-12.921c-12.083-7.627-37.414-21.647-54.005-23.192c-0.663,1.546-1.325,3.092-1.988,4.638
		c-4.885-0.124-11.262-1.967-14.909-3.976C255.615,134.876,256.61,132.273,257.933,130.091z M1747.878,133.404
		c7.502-0.392,13.174,3.117,11.265,9.94c-5.494,3.979-15.072,1.946-15.572-5.632
		C1744.742,135.242,1745.667,134.799,1747.878,133.404z M666.451,146.326c5.82,0.219,27.618,10.146,30.481,13.584
		c-0.221,0.331-0.442,0.663-0.663,0.994c-0.81,1.881-2.058,2.833-4.638,2.982c-7.949-2.569-24.656-7.679-29.156-13.253
		c0-0.221,0-0.442,0-0.663C663.8,148.756,665.126,147.54,666.451,146.326z M1050.119,147.32c5.961,1.09,11.502,8.836,13.916,13.584
		c-6.515,3.534-13.033,7.069-19.548,10.602c-2.234-0.667-14.253-14.742-13.584-16.235
		C1037.307,152.621,1043.714,149.97,1050.119,147.32z M52.184,167.199c11.958,0.17,13.053,13.908,2.651,16.235
		c-8.865,1.983-15.078-9.647-8.614-14.247C48.208,168.524,50.196,167.861,52.184,167.199z M375.552,172.831
		c3.237,0.13,4.728,1.562,6.626,2.982c-0.318,5.301-10.142,20.359-12.921,25.843c-2.816-0.425-6.647-2.895-7.952-4.97
		C366.054,188.735,370.803,180.782,375.552,172.831z M1063.372,183.102c0.552,0.11,1.104,0.221,1.657,0.331
		c10.932,10.38,21.868,20.764,32.801,31.144c0,0.221,0,0.442,0,0.663c-1.665,1.211-2.285,2.357-4.97,2.651
		c-10.601-10.822-21.206-21.647-31.807-32.469c0.221-0.552,0.442-1.104,0.663-1.657
		C1062.267,183.544,1062.82,183.323,1063.372,183.102z M63.117,183.434c3.248,0.137,4.918,1.631,6.958,2.982
		c0,0.331,0,0.663,0,0.994c-17.26,9.96-30.915,25.217-46.053,37.439c-3.975,4.196-7.952,8.394-11.928,12.59
		c-2.115-0.303-2.358-1.006-3.645-1.988c0.11-0.773,0.221-1.546,0.331-2.319c2.24-4.594,8.337-10.064,12.259-13.253
		C35.397,208.204,47.791,194.46,63.117,183.434z M631.331,185.09c7.288,3.423,14.579,6.848,21.867,10.271
		c-0.344,2.836-2.528,7.849-4.307,9.608c-5.241-0.526-20.426-7.262-22.198-10.934C627.901,190.742,629.272,187.538,631.331,185.09z
		 M1334.391,193.042c13.258,0.199,39.382,31.271,46.385,40.752c2.607,3.53,12.217,11.926,9.94,16.235
		c-2.871,0.883-5.743,1.767-8.614,2.651c-12.854-12.385-26.527-24.836-37.771-38.764c-5.019-6.217-12.563-10.688-16.566-17.891
		C1329.292,193.986,1331.951,194.181,1334.391,193.042z M869.218,198.012c-5.301,0.883-10.603,1.767-15.903,2.651
		c-15.666,4.502-28.632,13.801-34.457,28.162c-7.198,17.748,3.65,32.122,11.927,41.415c22.211,24.938,82.656,37.865,114.637,12.59
		c15.043-11.889,13.164-31.976,2.982-47.379C932.525,211.431,909.561,197.875,869.218,198.012z M1553.062,199.668
		c5.347-0.13,7.495,1.636,9.94,4.307c-0.11,0.883-0.221,1.767-0.331,2.651c-4.461,3.47-12.686,2.033-13.253-4.307
		C1550.64,201.066,1551.427,200.621,1553.062,199.668z M443.473,209.608c17.22-0.183,28.224,6.952,37.439,14.909
		c2.241,1.936,3.003,5.795,5.632,7.289c8.369,2.299,22.863,0.647,30.813-0.663c21.622-3.561,42.141-2.83,61.957-6.958
		c5.877-1.224,26.302-7.316,30.15-5.632c0.331,0.994,0.663,1.988,0.994,2.982c-0.11,0.221-0.221,0.442-0.331,0.663
		c-5.521,1.325-11.045,2.651-16.566,3.976c-9.939,1.877-19.88,3.755-29.819,5.632c-19.877,2.209-39.76,4.418-59.638,6.626
		c-6.626-0.221-13.253-0.442-19.879-0.663c-6,1.26-10.92,4.365-18.554,5.632c-16.726,2.777-49.266-17.402-31.475-30.481
		C436.858,210.964,440.019,210.988,443.473,209.608z M402.389,211.596c4.091,0.066,10.486,3.784,8.283,8.614
		c-0.663,0.663-1.325,1.325-1.988,1.988c-4.788,2.698-10.559-2.279-10.602-6.958c0.11-0.331,0.221-0.663,0.331-0.994
		C399.576,212.721,400.61,212.553,402.389,211.596z M446.786,216.565c-23.44,11.897,15.168,24.565,27.831,15.572
		c0.221-1.215,0.442-2.43,0.663-3.645C471.008,220.294,459.333,216.475,446.786,216.565z M871.538,220.873
		c17.779-0.387,44.034,18.885,25.18,32.801c-14.512,10.71-51.253-3.241-43.734-21.867
		C856.22,223.789,863.093,223.987,871.538,220.873z M1585.532,224.848c5.024-0.184,12.414,2.807,10.933,7.62
		c-0.936,7.801-14.78,5.116-16.566-0.331C1577.763,227.336,1582.693,226.021,1585.532,224.848z M632.325,226.174
		c13.806-0.62,22.126,12.897,10.602,19.548C629.862,253.262,615.113,234.871,632.325,226.174z M868.887,227.499
		c-15.276,7.391-8.128,19.485,4.638,23.192c9.563,2.777,21.425-0.835,21.536-9.94C890.775,231.899,882.407,227.33,868.887,227.499z
		 M1123.009,243.734c6.595-0.333,18.35,3.37,15.241,10.602c-3.402,8.834-22.976,5.651-22.861-4.638
		C1117.201,245.961,1119.355,245.62,1123.009,243.734z M1408.607,247.71c0.331,0.11,0.663,0.221,0.994,0.331
		c-0.11,0.552-0.221,1.104-0.331,1.657c-5.368,2.839-31.489,15.416-35.782,12.59c0-0.11,0-0.221,0-0.331
		C1385.887,257.709,1398.995,254.779,1408.607,247.71z M1167.075,255.33c7.068-0.435,13.297,3.394,9.277,8.946
		c-5.212,1.705-9.131,0.495-12.59-1.988c-0.221-1.215-0.442-2.43-0.663-3.645C1164.17,256.582,1165.066,256.436,1167.075,255.33z
		 M1923.478,255.33c0.442,0,0.884,0,1.325,0c0,22.528,0,45.062,0,67.589c-0.11,0-0.221,0-0.331,0
		c-8.614-1.215-17.229-2.43-25.843-3.645c0.663-5.08,1.325-10.161,1.988-15.241C1905.066,282.924,1910.497,267.505,1923.478,255.33z
		 M663.469,257.318c4.806,0.259,21.958,1.862,25.512,3.976c-0.11,3.865-0.221,7.731-0.331,11.596
		c-5.881,1.3-22.821-2.067-28.825-3.645c-0.11-0.331-0.221-0.663-0.331-0.994C660.818,264.607,662.144,260.962,663.469,257.318z
		 M196.971,265.601c-6.957,1.215-13.916,2.43-20.873,3.645c-17.993,5.399-34.36,15.091-43.403,29.487
		c-20.142,32.063-3.829,63.292,12.259,87.137c22.479,33.318,65.059,74.878,127.889,63.613c8.659-1.552,17.04-3.09,24.849-5.632
		c13.471-4.386,25.659-11.882,35.783-19.879c24.457-19.321,29.917-61.277,10.934-89.788
		C319.149,296.247,261.104,265.468,196.971,265.601z M1656.103,269.908c7.672,0.491,14.393,7.579,19.548,11.265
		c15.552,11.12,30.13,23.722,40.421,40.09c3.341,5.313,9.51,13.191,9.277,20.542c-0.221,0.11-0.442,0.221-0.663,0.331
		c-6.733-1.599-15.747-2.177-24.186-1.657c-2.871,0.11-5.743,0.221-8.614,0.331c-2.808-25.537-33.261-46.615-51.023-58.644
		c0-0.442,0-0.884,0-1.325C1644.639,275.902,1650.863,273.41,1656.103,269.908z M957.349,276.534
		c-1.215,4.417-2.43,8.836-3.645,13.253c0.11,0,0.221,0,0.331,0c0-0.221,0-0.442,0-0.663
		C955.746,286.985,958.711,280.128,957.349,276.534z M1143.22,280.179c7.641-0.249,14.647,4.207,12.59,11.596
		C1144.259,301.045,1127.787,287.582,1143.22,280.179z M698.589,282.498c7.395-0.146,9.758,2.84,12.259,7.62
		c-0.427,7.666-9.127,11.753-15.572,6.958C688.605,292.113,693.248,285.121,698.589,282.498z M1425.173,284.155
		c0.552,0.11,1.104,0.221,1.656,0.331c1.988,14.245,3.976,28.495,5.964,42.74c2.137,13.196-1.388,26.974-3.976,37.108
		c-0.442,0-0.883,0-1.325,0c-7.541-3.424-15.518-5.9-24.518-7.952c1.215-8.172,2.43-16.346,3.645-24.518
		c2.432-16.074-3.865-28.272-4.97-40.421c0.331-0.221,0.663-0.442,0.994-0.663C1410.152,288.573,1417.664,286.363,1425.173,284.155z
		 M1183.309,287.468c6.765-0.094,12.89,3.59,13.253,9.94c-4.359,6.97-20.595,6.913-20.542-3.976
		C1177.65,289.44,1179.466,289.244,1183.309,287.468z M1115.058,303.703c7.305-0.324,13.823,2.156,13.915,8.946
		c-4.434,9.267-16.74,4.406-20.21-2.319C1109.241,305.774,1111.739,305.367,1115.058,303.703z M225.795,311.986
		c33.152-0.482,55.405,13.034,67.921,33.132c14.543,23.354,5.052,47.477-13.915,58.975c-35.317,21.409-77.852-3.1-92.107-27.5
		c-5.421-9.279-8.844-25.87-3.645-38.433c4.799-11.595,16.583-20.044,29.156-23.855
		C217.402,313.532,221.599,312.759,225.795,311.986z M704.884,311.986c8.672-0.435,14.95,2.89,12.59,11.265
		c-5.873,4.749-19.1,6.253-18.885-5.632C700.18,314.302,701.814,313.797,704.884,311.986z M1166.081,314.967
		c5.434-0.283,14.343,4.4,10.602,10.271c-4.025,6.317-16.656,3.087-16.566-4.97C1161.502,317.082,1163.124,316.561,1166.081,314.967
		z M227.452,323.25c-2.54,0.442-5.081,0.884-7.62,1.325c-10.742,3.225-19.799,9.966-23.855,19.879
		c-4.062,9.927-0.019,20.917,3.976,27.5c10.549,17.381,41.278,37.042,67.589,21.204c13.826-8.323,23.305-26.466,12.259-44.728
		C269.86,331.997,254.287,323.018,227.452,323.25z M1135.268,333.853c8.155-0.282,14.137,3.473,13.916,11.596
		c-3.93,8.71-19.102,7.719-22.198-0.994C1124.538,337.57,1131.188,335.616,1135.268,333.853z M235.072,346.443
		c16.652-0.56,32.988,16.904,16.897,26.837C235.496,383.449,209.923,358.929,235.072,346.443z M1093.191,347.437
		c2.894,0.523,3.608,3.691,4.638,5.964c-3.474,4.945-21.422,11.719-27.831,14.578c-23.742,12.258-47.492,24.519-71.234,36.776
		c-0.442-0.331-0.884-0.663-1.325-0.994c-0.883-1.877-1.767-3.755-2.651-5.632c0.11-0.221,0.221-0.442,0.331-0.663
		c26.671-12.391,54.615-24.642,79.185-39.427C1080.501,354.311,1087.892,352.077,1093.191,347.437z M1696.524,367.316
		c7.474-0.333,12.176,2.218,11.927,9.608c-4.09,9.251-22.502,8.195-18.554-5.632
		C1692.097,369.683,1693.809,368.715,1696.524,367.316z M1736.282,375.599c10.7-0.488,24.07,9.031,13.916,16.897
		C1737.943,401.989,1716.66,385.006,1736.282,375.599z M1923.809,376.262c0.331,0,0.663,0,0.994,0c0,4.528,0,9.056,0,13.584
		c-0.442-0.221-0.884-0.442-1.325-0.663C1916.851,386.525,1920.33,379.305,1923.809,376.262z M531.935,376.593
		c32.225-0.576,53.967,42.868,21.204,55.662c-22.099,8.63-59.225-9.605-50.692-33.795c3.214-9.11,11.976-16.423,20.873-19.879
		C526.192,377.918,529.064,377.256,531.935,376.593z M531.935,387.858c-7.078,2.942-13.403,4.3-16.235,11.265
		c-7.092,17.443,16.735,27.696,30.813,21.536C564.896,412.614,554.359,387.271,531.935,387.858z M1671.675,395.478
		c12.63-0.516,28.321,10.169,16.235,19.548C1673.96,425.85,1651.722,405.657,1671.675,395.478z M1380.445,396.803
		c12.103,3.662,25.075,9.955,37.771,14.247c3.606,1.219,12.316,1.048,14.247,3.976c-1.104,7.509-2.209,15.021-3.313,22.53
		c-0.11,0.11-0.221,0.221-0.331,0.331c-7.721-0.93-26.239-10.892-33.463-7.62c-3.829,18.857,3.297,29.738,10.271,40.09
		c-0.221,0.331-0.442,0.663-0.663,0.994c-2.597,0.552-4.602,1.703-7.289,1.325c-4.516-9.248-13.547-34.153-6.626-49.035
		c9.386,2.319,18.776,4.639,28.162,6.958c2.655-1.564,4.202-7.753,3.645-11.265c-7.531-7.993-37.922-9.523-44.728-18.223
		C1378.754,399.23,1379.291,398.062,1380.445,396.803z M936.476,404.755c5.377,0.936,20.534,18.634,23.192,23.524
		c-0.331,0.442-0.663,0.884-0.994,1.325c-14.006,2.751-28.903,13.431-41.746,18.885c-1.436-2.098-2.872-4.197-4.307-6.295
		c4.888-6.143,30.115-11.176,33.463-16.897c0-0.331,0-0.663,0-0.994c-1.743-3.63-6.67-6.354-9.608-8.946
		c-9.169,0.16-33.378,15.783-40.421,20.542c-3.839,2.594-7.778,7.337-12.59,8.614c-1.215-1.436-2.43-2.872-3.644-4.307
		c3.268-5.057,11.844-8.235,16.897-11.596C909.344,420.212,923.381,413.341,936.476,404.755z M1640.862,409.062
		c1.767,0.221,3.534,0.442,5.301,0.663c1.214,1.491,3.341,3.626,1.988,6.626c-2.355,5.712-12.406,3.645-12.259-3.313
		c0.11-0.331,0.221-0.663,0.331-0.994C1637.527,410.358,1638.88,410.122,1640.862,409.062z M1720.71,411.713
		c12.456-0.321,23.515,13.089,11.928,20.542c-9.435,6.069-27.247-1.456-22.198-13.915
		C1712.251,413.868,1716.126,413.523,1720.71,411.713z M712.835,440.206c-0.773,0.883-1.546,1.767-2.319,2.651
		c0.663,0.773,1.325,1.546,1.988,2.319c0.552-0.11,1.104-0.221,1.657-0.331C715.671,443.05,717.033,440.325,712.835,440.206z
		 M713.167,441.2c0.442,0.221,0.884,0.442,1.325,0.663c-0.331,0.663-0.663,1.325-0.994,1.988c-0.11,0-0.221,0-0.331,0
		c-0.552-0.221-1.104-0.442-1.657-0.663c0-0.11,0-0.221,0-0.331C712.062,442.305,712.615,441.752,713.167,441.2z M509.736,450.146
		c7.032-0.379,15.815,5.42,10.934,12.59c-5.122,7.524-17.027,2.197-16.566-7.289C505.563,452.381,506.902,451.822,509.736,450.146z
		 M537.899,656.227c-1.988-0.11-3.976-0.221-5.964-0.331c-15.232-29.534-26.082-61.452-33.463-99.727
		c-1.436-14.687-2.872-29.379-4.307-44.065c-0.221-7.067-0.442-14.137-0.663-21.204c-4.345-2.734-26.315-8.765-27.831-10.934
		c1.367-3.206,2.645-6.984,4.97-9.277c6.426,1.984,30.599,7.448,33.132,11.596c-0.552,8.834-1.104,17.671-1.657,26.506
		c-0.006,19.787,0.736,39.647,4.307,56.656c4.618,21.992,10.43,42.651,18.223,61.625
		C527.727,634.573,537.101,648.908,537.899,656.227z M864.249,480.627c39.814-0.568,69.135,20.006,80.511,48.041
		c14.632,36.06-21.77,66.061-47.047,73.553c-41.901,12.419-76.219-13.856-90.782-38.102c-7.172-11.941-11.415-30.501-4.97-46.385
		c7.116-17.537,23.002-28.493,42.078-34.126C849.95,481.864,857.961,483.049,864.249,480.627z M1431.468,482.947
		c0.663,0,1.325,0,1.988,0c11.278,15.082,25.871,27.527,36.776,43.072c-0.221,0.331-0.442,0.663-0.663,0.994
		c-13.472,3.644-26.949,7.289-40.421,10.934c-5.368-7.054-20.003-20.63-27.5-25.512c0-0.552,0-1.104,0-1.657
		c6.074-6.184,12.149-12.37,18.223-18.554C1423.737,489.131,1427.603,486.039,1431.468,482.947z M1060.721,487.585
		c-0.773,0.773-1.546,1.546-2.319,2.319c0.11,0.663,0.221,1.325,0.331,1.988c0.442,0.552,0.884,1.104,1.325,1.657
		c0.442,0,0.884,0,1.325,0c0.663-0.883,1.325-1.767,1.988-2.651c0-0.552,0-1.104,0-1.657c-0.331-0.552-0.663-1.104-0.994-1.657
		C1061.826,487.585,1061.273,487.585,1060.721,487.585z M-0.165,489.573c0.331,0,0.663,0,0.994,0
		c-0.221,0.221-0.442,0.442-0.663,0.663C0.056,490.015-0.054,489.794-0.165,489.573z M1069.004,494.874
		c-0.552,0.442-1.104,0.884-1.657,1.325c0,0.442,0,0.884,0,1.325c0.773-0.552,1.546-1.104,2.319-1.657
		C1069.446,495.537,1069.225,495.205,1069.004,494.874z M1432.793,495.537c-4.734,5.181-11.509,9.147-14.578,15.903
		c2.088,4.386,7.462,7.836,11.265,10.602c5.076-0.67,20.393-4.972,22.861-7.952c-1.651-4.318-13.956-15.661-17.891-18.554
		C1433.898,495.537,1433.345,495.537,1432.793,495.537z M525.308,499.513c14.729-0.638,16.383,17.621,3.976,20.21
		c-9.665,2.017-16.626-8.713-11.265-15.903C519.731,501.525,522.555,500.821,525.308,499.513z M869.881,499.844
		c-4.417,0.663-8.836,1.325-13.253,1.988c-14.514,3.994-27.746,13.445-33.132,26.506c-16.691,40.476,33.579,66.056,70.902,54.668
		c19.117-5.833,48.171-28.714,32.469-55.993C916.856,509.617,897.441,499.667,869.881,499.844z M878.495,521.38
		c33.984-0.834,35.549,38.279,6.958,44.066c-17.774,3.598-36.342-11.01-29.156-28.825
		C860.49,526.226,867.685,525.487,878.495,521.38z M1216.773,523.036c27.745-0.499,36.341,22.503,30.15,49.367
		c-1.176,5.101-1.135,10.82-3.313,14.909c-5.19-0.773-10.382-1.546-15.572-2.319c-5.088-19.556,24.896-37.31,0.331-49.698
		c-4.015-2.025-9.945-1.016-14.909-2.319c-0.395-3.307-0.985-7.419,0.331-9.608C1214.785,523.257,1215.779,523.147,1216.773,523.036
		z M472.629,526.349c21.677-0.8,24.039,20.72,7.289,25.843c-11.079,3.388-22.832-6.408-18.885-16.897
		C462.99,530.094,467.726,528.726,472.629,526.349z M1069.335,533.97c-0.773,0.883-1.546,1.767-2.319,2.651
		c0.442,0.663,0.884,1.325,1.325,1.988c0.442,0,0.884,0,1.325,0c1.23-1.217,1.911-1.823,2.319-3.976
		C1071.115,534.206,1070.828,534.065,1069.335,533.97z M1070.329,534.632c0.221,0.221,0.442,0.442,0.663,0.663
		c-0.442,0.773-0.884,1.546-1.325,2.319c-0.11,0-0.221,0-0.331,0c-0.442-0.221-0.884-0.442-1.325-0.663
		c0.11-0.221,0.221-0.442,0.331-0.663C1069.372,536.101,1069.533,535.871,1070.329,534.632z M1167.406,540.596
		c2.671-0.091,5.924-0.15,7.62,0.663c0.11,0.221,0.221,0.442,0.331,0.663c-2.937,10.684,1.688,24.296,4.638,31.475
		c1.098,2.672,3.811,5.85,3.313,8.946c-5.554,0.339-14.084,5.227-19.879,2.651c-4.187-1.861-19.48-26.97-15.572-35.12
		C1151.227,542.849,1159.724,543.623,1167.406,540.596z M29.323,541.921c9.276,2.319,18.555,4.639,27.831,6.958
		c0,0.11,0,0.221,0,0.331c-1.438,5.164-12.284,37.558-14.578,39.096c-6.465-1.872-16.522-1.153-22.198-4.307c0-0.11,0-0.221,0-0.331
		C22.102,571.199,24.642,552.536,29.323,541.921z M1210.146,555.837c0.663,0,1.325,0,1.988,0c0.552,0.663,1.104,1.325,1.657,1.988
		c0.044,6.521-1.101,21.759-5.301,24.518c-1.74-0.646-2.854-1.012-3.645-2.651C1201.845,574.504,1207.878,558.523,1210.146,555.837z
		 M1477.853,560.144c5.528-0.175,7.514,1.499,9.94,4.307c0.795,12.435-17.771,8.195-15.572,1.325
		C1472.888,561.963,1475.077,561.753,1477.853,560.144z M98.237,565.445c7.616,0.35,15.375,5.112,21.867,7.62
		c16.123,5.19,32.25,10.382,48.373,15.572c1.252,4.858-10.78,33.414-13.584,38.102c-16.014-1.336-31.899-6.689-46.053-10.934
		c-7.178-1.877-14.358-3.755-21.536-5.632C90.948,595.266,94.593,580.353,98.237,565.445z M1901.942,575.716
		c4.416,0.746,22.88,19.222,22.861,24.518c-5.638,0.856-11.809,7.325-16.235,10.271c-13.068,8.699-27.117,16.945-38.433,27.5
		c-0.663-0.11-1.325-0.221-1.988-0.331c-3.381-1.597-19.895-16.764-20.873-20.21C1865.495,603.548,1883.721,589.63,1901.942,575.716
		z M1500.051,589.632c8.614,5.301,17.229,10.603,25.843,15.903c14.019,8.281,29.701,13.813,44.397,21.536c0,0.442,0,0.883,0,1.325
		c-6.25,4.831-12.618,13.132-16.897,19.879c-7.153-0.937-14.607-7.535-20.211-10.934c-12.628-7.66-24.777-15.182-36.445-23.524
		c-4.307-3.203-8.615-6.406-12.922-9.608c0-0.221,0-0.442,0-0.663C1489.722,599.383,1494.954,594.599,1500.051,589.632z
		 M1273.097,596.258c-1.496,5.13-3.123,10.25-3.313,16.897c0.221-0.11,0.442-0.221,0.663-0.331
		C1270.966,608.055,1274.419,600.955,1273.097,596.258z M495.158,607.191c13.487-0.656,13.425,14.405,3.313,16.897
		c-8.355,2.059-13.972-6.978-9.608-13.253C490.231,608.869,492.852,608.265,495.158,607.191z M213.205,607.523
		c19.659-0.804,20.648,18.515,6.626,22.861c-8.813,2.732-20.046-2.724-17.229-13.584
		C203.998,611.423,208.531,609.765,213.205,607.523z M-4.803,758.605c0-45.828,0-91.67,0-137.498c0.11,0,0.221,0,0.331,0
		c10.888,3.772,20.211,11.432,30.481,15.241c13.804,5.19,27.611,10.382,41.415,15.572c1.546,1.104,3.092,2.209,4.638,3.313
		c10.17,3.86,19.759,4.267,30.813,7.289c19.637,5.368,42.777,8.779,62.619,14.909c18.125,5.6,35.158,13.087,50.029,22.198
		c43.2,26.468,70.33,65.864,96.083,109.998c13.571,23.256,23.37,48.498,31.144,77.86c2.857,10.792,6.59,26.429,4.307,40.421
		c-4.347,26.651-17.277,42.662-26.506,63.613c-11.446,25.984-22.654,57.094-27.168,88.794c-61.509,0-123.036,0-184.545,0
		C83.451,1064.643,30,1051.558-4.803,1067.395c0-59.079,0-118.177,0-177.256c0.221,0.11,0.442,0.221,0.663,0.331
		c4.969,6.736,9.94,13.474,14.909,20.211c17.188,26.251,36.601,51.28,68.252,62.951c52.169,19.236,106.226-2.029,120.6-43.072
		c9.696-27.686-1.042-61.538-11.596-79.517c-16.981-28.926-37.827-47.392-70.902-60.3c-19.099-7.453-39.86-10.813-60.3-16.897
		c-13.472-3.423-26.949-6.848-40.421-10.271C9.334,761.918,2.264,760.261-4.803,758.605z M1203.851,625.745
		c17.331-0.592,21.052,19.863,5.964,23.855c-9.575,2.534-21.256-5.81-16.897-15.903
		C1194.942,629.01,1199.069,627.819,1203.851,625.745z M1831.371,632.703c6.231-0.218,8.644,1.908,10.271,6.295
		c-0.066,10.164-16.76,9.345-16.566-0.663C1826.52,635.059,1828.496,634.492,1831.371,632.703z M1801.883,635.685
		c1.752,0.088,1.597-0.077,2.319,0.994c1.373,2.345,4.867,20.627,3.313,21.867c-9.515,5.523-22.596,6.826-34.457,9.608
		c-13.353,3.132-28.448,3.826-43.403,6.295c-7.068,0.11-14.137,0.221-21.204,0.331c-6.847,0-13.695,0-20.542,0
		c-7.73-0.221-15.462-0.442-23.192-0.663c-11.795-1.912-44.74-0.366-49.698-6.958c1.609-11.494,6.992-20.353,9.94-30.813
		c13.362,1.767,26.728,3.534,40.09,5.301c10.049,0.552,20.101,1.104,30.15,1.657c20.607,3.172,54.721,0.543,73.222-2.651
		C1779.322,638.773,1792.72,640.029,1801.883,635.685z M1793.932,640.986c-8.196,3.788-19.761,2.973-29.487,4.638
		c-16.221,2.778-34.329,2.981-53.011,2.982c-8.393-0.221-16.788-0.442-25.18-0.663c-12.147-1.215-24.298-2.43-36.445-3.645
		c-0.453,6.055-2.689,17.688-0.331,22.861c37.854,1.83,83.523,4.605,118.281-2.651c6.813-1.422,28.872-4.197,31.475-8.283
		c1.177-3.439-1.108-12.667-2.651-15.241C1795.699,640.986,1794.815,640.986,1793.932,640.986z M282.12,654.901
		c5.256,0.99,18.371,16.209,21.867,20.542c5.742,6.294,11.486,12.591,17.229,18.885c11.617,14.726,22.824,29.606,33.463,45.391
		c-0.221,0.331-0.442,0.663-0.663,0.994c-7.412,1.971-12.065,7.627-18.223,10.934c-6.847-9.055-13.695-18.113-20.542-27.168
		c-9.166-11.043-18.334-22.089-27.5-33.132c-4.274-5.346-18.996-16.907-20.211-23.192
		C272.401,663.737,277.261,659.319,282.12,654.901z M538.561,665.504c27.163-0.617,24.911,33.326-0.994,35.451
		c-12.063,0.99-23.614-10.929-18.223-23.192C523.04,669.358,529.66,668.99,538.561,665.504z M1250.567,676.106
		c10.937-0.34,19.893,3.126,21.204,12.259c1.451,10.103-13.742,21.403-24.849,19.217c-9.045-1.78-19.648-10.987-12.922-21.867
		C1237.672,679.777,1243.505,678.89,1250.567,676.106z M1182.978,691.678c5.795-0.18,8.522,1.54,11.265,4.307
		c10.653,10.748-8.921,27.087-21.536,22.53c-2.69-0.972-4.496-3.005-5.632-5.632
		C1162.279,701.792,1176.611,694.789,1182.978,691.678z M1317.494,703.606c18.989-0.716,24.44,17.979,9.277,24.186
		c-10.932,4.475-25.375-3.847-20.21-16.235C1308.565,706.749,1312.772,705.823,1317.494,703.606z M1147.527,713.214
		c9.706,0.419,9.792,9.926,15.572,14.247c13.922,10.406,33.344-1.742,41.415-9.608c4.362,0.036,8.868,2.09,11.265,4.307
		c-8.604,21.079-39.883,37.01-62.619,19.217c-3.888-3.043-17.517-21.2-6.958-27.168
		C1146.643,713.876,1147.085,713.545,1147.527,713.214z M911.959,714.208c-1.053,0.929-1.482,1.46-2.319,2.651
		c0,0.11,0,0.221,0,0.331c0.552,0.442,1.104,0.883,1.657,1.325c0.883-0.663,1.767-1.325,2.651-1.988
		c-0.11-0.552-0.221-1.104-0.331-1.657C913.063,714.649,912.511,714.429,911.959,714.208z M911.959,715.202
		c0.331,0.11,0.663,0.221,0.994,0.331c-0.401,1.664-0.33,1.581-1.988,1.988c-0.11-0.221-0.221-0.442-0.331-0.663
		C911.075,716.306,911.517,715.754,911.959,715.202z M585.94,740.051c5.512,0.451,18.893,19.591,22.53,24.186
		c13.196,16.672,31.301,32.634,48.704,45.06c5.19,3.202,10.382,6.406,15.572,9.608c3.081,1.75,7.335,2.104,9.608,4.638
		c-0.685,2.222-1.715,3.023-3.644,3.976c-27.111-9.013-53.539-32.889-69.577-53.342c-5.963-7.951-11.928-15.904-17.891-23.855
		c-4.321,0.909-6.445,0.893-9.608-1.325c-0.331-1.325-0.663-2.651-0.994-3.976C582.376,742.304,583.209,741.767,585.94,740.051z
		 M1352.945,741.707c7.847,0.844,20.42,13.977,26.174,18.554c21.001,16.703,37.709,38.224,53.342,60.3
		c4.473,6.317,15.032,17.732,16.897,25.18c-0.773,0.442-1.546,0.883-2.319,1.325c-5.454-2.072-24.928-30.747-29.819-37.108
		c-12.894-16.77-29.514-33.9-46.053-47.047c-7.399-5.963-14.8-11.928-22.198-17.891c0-0.11,0-0.221,0-0.331
		C1350.294,743.695,1351.62,742.701,1352.945,741.707z M1103.793,742.37c11.564,1.054,15.63,15.987,3.645,18.885
		c-9.471,2.29-16.611-8.189-11.265-15.241C1097.913,743.719,1100.78,743.489,1103.793,742.37z M1070.661,765.894
		c0.552,0.11,1.104,0.221,1.657,0.331c1.206,0.752,1.67,1.684,2.319,2.982c-0.11,0.331-0.221,0.663-0.331,0.994
		c-4.32,6.158-15.071,9.852-21.536,13.915c-19.976,12.556-41.203,25.232-63.613,35.12c-3.823,1.687-32.688,12.375-33.463,13.584
		c-1.931,6.597,1.957,12.232-2.982,18.885c-11.814,15.914-28.102-3.491-30.813-15.241c-2.736-11.859,4.563-28.792,17.229-24.849
		c9.022,2.809,8.955,12.107,14.909,15.903c3.695,1.489,26.251-9.414,30.481-11.265
		C1015.709,802.605,1045.445,785.875,1070.661,765.894z M1909.231,1080.316c-157.472,0-314.99,0-472.462,0
		c-2.65-4.859-5.301-9.719-7.952-14.578c-7.021-11.929-13.4-23.924-20.873-35.12c-30.336-45.447-64.248-80.422-118.613-102.046
		c-20.432-8.127-54.433-19.467-83.493-13.584c-48.331,9.785-85.799,32.455-121.594,54.999
		c-33.29,20.966-63.224,46.134-86.806,76.866c-3.806,4.961-22.792,27.506-21.536,33.463c-40.859,0-81.73,0-122.588,0
		c-0.271-3.98-2.485-6.969-3.645-10.271c-1.767-6.515-3.534-13.033-5.301-19.548c-6.105-25.89-3.353-58.291,5.632-78.854
		c21.93-50.186,78.752-72.64,128.883-94.757c29.121-12.848,59.177-27.486,85.812-43.734c36.91-22.516,72.385-45.018,118.281-58.975
		c37.84-11.508,81.332-5.628,112.98,6.958c46.877,18.641,83.936,51.786,112.98,88.462c8.945,10.932,17.892,21.868,26.837,32.801
		c4.086,4.196,8.173,8.394,12.259,12.59c5.742,6.074,11.486,12.149,17.229,18.223c8.614,7.178,17.229,14.358,25.843,21.536
		c26.343,18.826,56.833,33.606,92.77,42.74c84.438,21.462,142.735-16.016,195.479-47.379c18.853-11.21,60.316-42.312,92.107-32.469
		c39.332,12.178,24.392,72.411,31.475,116.956c0.663,6.957,1.325,13.916,1.988,20.873
		C1906.359,1063.749,1907.796,1072.034,1909.231,1080.316z M358.986,767.882c6.987-0.345,10.871,1.659,10.602,8.614
		c-1.836,4.416-9.238,8.887-14.578,4.307C349.316,775.92,354.692,769.989,358.986,767.882z M700.577,792.068
		c15.996-0.718,19.803,16.49,7.289,20.873C693.645,817.922,684.922,799.943,700.577,792.068z M10.438,795.381
		c6.847,1.325,13.695,2.651,20.542,3.976c0.11,0.331,0.221,0.663,0.331,0.994c-2.133,7.913-10.668,23.166-9.608,31.144
		c3.107,1.389,26.356,5.82,28.162,3.976c2.761-8.724,5.522-17.45,8.283-26.174c5.973-1.632,15.899,2.226,21.536,3.645
		c0.11,0.221,0.221,0.442,0.331,0.663c-1.343,5.78-11.12,36.413-13.915,38.764c-5.853-1.546-11.707-3.092-17.56-4.638
		c-18.456-5.173-34.965-11.237-52.349-16.566c2.319-5.301,4.639-10.603,6.958-15.903C5.578,808.635,8.008,802.007,10.438,795.381z
		 M390.13,803.995c9.527-0.283,22.996,2.202,19.217,13.253c-1.736,5.077-26.774,18.034-35.12,12.59
		c-2.237-1.459-3.891-4.658-3.976-8.283C369.942,808.329,380.514,807.625,390.13,803.995z M763.859,803.995
		c14.413-0.619,19.739,15.782,7.62,20.542C757.479,830.036,746.772,812.162,763.859,803.995z M2.155,805.321
		c0,0.552,0,1.104,0,1.657c-0.221,0.331-0.442,0.663-0.663,0.994c-1.335-0.134-1.296-0.108-1.988-0.663c0.773,0,1.546,0,2.319,0
		C1.934,806.646,2.044,805.983,2.155,805.321z M1850.919,815.923c17.137-0.385,31.573,6.93,36.445,18.885
		c6.5,15.947-4.502,33.629-14.909,37.77c-27.648,11.002-51.447-18.061-40.752-43.734
		C1835.346,820.098,1841.913,819.562,1850.919,815.923z M850.002,825.2c31.609-0.534,41.087,48.809,8.946,54.668
		c-18.45,3.363-37.71-17.127-31.475-35.451C831.419,832.815,838.784,829.771,850.002,825.2z M1852.244,829.507
		c-25.587,12.909-5.627,46.991,16.235,36.776c6.745-3.152,11.448-15.362,7.62-24.849
		C1872.825,833.32,1864.071,829.216,1852.244,829.507z M-1.49,835.471c0.552,0.442,1.104,0.884,1.657,1.325c0,0.11,0,0.221,0,0.331
		c-0.442,0-0.884,0-1.325,0C-1.567,836.129-1.59,836.521-1.49,835.471z M1860.196,842.76c14.491-0.865,9.483,20.043-3.976,14.578
		C1852.521,850.884,1855.05,845.974,1860.196,842.76z M1458.636,846.404c11.289-0.55,19.137,11.077,9.277,16.897
		C1457.053,869.713,1441.884,855.941,1458.636,846.404z M779.099,854.687c4.522-0.06,6.986,2.133,6.958,6.626
		c-1.879,5.095-7.19,7.062-11.928,3.645c-0.442-1.546-0.883-3.092-1.325-4.638C774.258,856.674,775.745,856.4,779.099,854.687z
		 M732.052,856.013c19.344-0.552,41.799,21.651,22.861,34.126c-12.889,8.491-46.019-7.695-39.758-22.861
		C718.126,860.081,724.714,859.061,732.052,856.013z M423.593,864.296c23.224-0.777,28.004,22.172,11.265,28.825
		c-12.552,4.989-28.295-4.33-24.186-18.223C412.619,868.314,417.559,866.935,423.593,864.296z M1789.625,870.922
		c7.006-0.137,12.643,4.307,12.59,11.265C1796.051,896.274,1777.249,878.544,1789.625,870.922z M125.406,876.886
		c37.684-0.965,31.651,39.302,1.325,43.072c-14.727,1.831-25.956-12.286-20.542-26.506
		C109.816,883.927,116.267,881.062,125.406,876.886z M1774.053,879.536c5.011-0.238,7.656,1.871,7.62,6.626
		c-0.221,0.663-0.442,1.325-0.663,1.988c-1.763,1.341-2.603,2.413-5.632,2.651c-3.326-1.228-5.854-2.813-5.964-7.289
		C1770.609,881.194,1771.922,880.873,1774.053,879.536z M56.16,880.862c14.459-0.71,16.575,14.355,5.964,18.223
		C48.343,904.106,41.074,887.986,56.16,880.862z M1507.009,886.494c28.586-0.714,35.044,35.187,8.614,41.084
		c-15.377,3.431-33.884-10.96-27.5-26.506C1491.715,892.328,1498.172,890.202,1507.009,886.494z M1762.456,893.452
		c0.552,0.11,1.104,0.221,1.657,0.331c0,0.442,0,0.884,0,1.325c-16.351,12.576-33.982,25.289-54.005,34.126
		c-7.288,3.092-14.579,6.185-21.867,9.277c-4.969,1.546-9.94,3.092-14.909,4.638c1.42,9.463,9.047,16.467-1.988,22.53
		c-9.917-0.908-23.824-26.18-16.235-36.776c5.812-8.116,13.592,5.172,15.903,8.614c11.106,0.232,21.893-5.36,30.15-8.946
		C1723.465,918.888,1745.545,908.614,1762.456,893.452z M389.799,922.277c19.127-0.158,39.212-0.818,55.993,1.988
		c5.742,0.663,11.486,1.325,17.229,1.988c0.331,0.221,0.663,0.442,0.994,0.663c-0.191,13.394-3.131,27.69-5.632,39.758
		c-1.877,10.712-3.755,21.426-5.632,32.138c-1.196,5.229-2.058,20.555-5.301,22.861c-15.006-4.161-31.778-6.228-46.385-9.94
		c-6.272-1.594-13.465-2.062-18.554-4.97c1.436-9.718,2.872-19.438,4.307-29.156c0.773-9.718,1.546-19.438,2.319-29.156
		C390.325,940.874,386.48,928.319,389.799,922.277z M1022.288,925.258c-0.773,0.552-1.546,1.104-2.319,1.657
		c-0.221,0.663-0.442,1.325-0.663,1.988c0.925,1.27,0.674,1.614,2.651,1.988c0.883-0.994,1.767-1.988,2.651-2.982
		c-0.071-1.495-0.234-1.786-0.663-2.651C1023.392,925.258,1022.84,925.258,1022.288,925.258z M1596.797,925.59
		c23.328-0.571,39.381,29.478,17.891,40.09c-16.359,8.078-40.844-11.206-34.126-28.825
		C1583.421,929.357,1589.266,928.603,1596.797,925.59z M1022.619,925.921c0.331,0,0.663,0,0.994,0c0,0.442,0,0.883,0,1.325
		c-0.442,0.663-0.883,1.325-1.325,1.988c-0.552,0.11-1.104,0.221-1.657,0.331c0-0.442,0-0.883,0-1.325
		C1021.294,927.467,1021.957,926.694,1022.619,925.921z M396.756,928.572c-1.927,3.893-3.439,18.931-1.657,22.861
		c19.237,0.658,37.141,5.77,55.33,7.289c0.221-0.221,0.442-0.442,0.663-0.663c1.375-6.041,6.529-20.004,5.301-25.512
		C437.24,931.41,418.103,928.668,396.756,928.572z M1213.46,939.836c0.442,0.221,0.884,0.442,1.325,0.663
		c0.883,9.828,1.767,19.659,2.651,29.487c-17.227,3.423-34.459,6.848-51.686,10.271c-3.154-4.955-7.193-18.616-6.626-24.849
		c14.741-4.555,29.242-6.854,42.74-11.596C1205.728,942.487,1209.595,941.162,1213.46,939.836z M765.847,963.692
		c17.89,0.998,21.1,22.03,4.307,25.512c-10.177,2.11-20.539-6.075-16.897-16.235C755.383,967.036,759.891,965.987,765.847,963.692z
		 M391.124,983.571c-1.104,6.294-2.209,12.591-3.313,18.885c0.221,0.221,0.442,0.442,0.663,0.663
		c13.583,2.871,27.17,5.743,40.752,8.614c4.01,0.932,11.008,3.05,14.247,1.657c0.972-6.049,6.103-17.439,3.976-22.53
		C428.675,988.43,409.897,986,391.124,983.571z M1308.88,988.54c11.688-0.087,16.475,5.235,22.861,10.271
		c11.437,9.019,22.675,19.829,31.807,31.144c3.203,3.203,6.406,6.406,9.608,9.608c0,0.221,0,0.442,0,0.663
		c-9.607,6.294-19.217,12.591-28.825,18.885c-3.601,2.55-7.781,7.762-12.59,8.614c-18.662-18.773-37.331-37.552-55.993-56.324
		c0-0.331,0-0.663,0-0.994c7.006-7.31,13.848-14.933,23.855-19.217C1302.695,990.308,1305.788,989.424,1308.88,988.54z
		 M1112.738,989.203c10.903-0.503,18.368,11.232,8.946,16.566C1110.056,1012.351,1096.922,995.844,1112.738,989.203z
		 M896.387,1005.438c-0.883,1.325-1.767,2.651-2.651,3.976c0.11,0,0.221,0,0.331,0c0.637-1.802,1.385-2.188,2.982-2.982
		c0.552,0.11,1.104,0.221,1.657,0.331c0.415,1.437,0.185,2.473-0.331,3.645c0.221-0.11,0.442-0.221,0.663-0.331
		c0.221-0.994,0.442-1.988,0.663-2.982c-0.331-0.442-0.663-0.883-0.994-1.325C897.933,1005.659,897.16,1005.548,896.387,1005.438z
		 M766.509,1008.751c4.774-0.169,6.159,0.997,8.283,3.313c0.019,2.485-0.458,3.236-1.325,4.638c-1.444,0.563-3.372,1.557-4.97,0.994
		c-3.121-0.36-4.497-1.976-5.632-4.307C763.271,1010.47,764.695,1010.149,766.509,1008.751z M1224.393,1016.04
		c12.702,2.069,24.534,6.787,30.813,15.241c-6.173-2.678-11.034-8.122-17.56-10.934c-4.908-2.114-11.064-1.677-16.566-3.976
		C1222.184,1016.261,1223.289,1016.15,1224.393,1016.04z M1211.803,1018.028c33.711-0.481,55.487,22.749,70.24,41.415
		c4.772,6.038,9.549,15.953,16.235,19.879c-6.184-7.951-12.37-15.904-18.554-23.855c0.442,0.331,0.884,0.663,1.325,0.994
		c3.513,7.258,16.833,15.886,19.879,23.855c-41.521,0-83.055,0-124.576,0c-9.526,0-41.529,2.173-47.71-0.663
		c3.644-3.865,7.289-7.731,10.934-11.596c14.317-17.765,34.906-36.099,56.987-45.722
		C1201.229,1020.302,1206.746,1020.209,1211.803,1018.028z M1060.721,1034.925c5.855-0.031,10.784,2.291,12.59,6.295
		c0,0.11,0,0.221,0,0.331c0.807,3.822-3.037,9.09-3.976,12.922c-0.832,3.396,0.028,7.726-1.325,10.271
		c-12.553,0.333-31.054-7.105-22.198-21.536C1049.275,1037.565,1053.93,1037.487,1060.721,1034.925z M1904.593,1039.232
		c2.54,13.693,5.08,27.391,7.62,41.084c-0.331,0-0.663,0-0.994,0c-0.11-0.221-0.221-0.442-0.331-0.663
		C1908.492,1066.359,1904.809,1054.132,1904.593,1039.232z M394.768,1040.558c19.555-0.309,20.122,23.071,2.982,26.505
		c-10.746,2.153-19.337-7.644-15.572-17.891C384.511,1042.823,388.028,1042.856,394.768,1040.558z M778.768,1080.316
		c-4.086,0-8.173,0-12.259,0c-0.11-4.417-0.221-8.836-0.331-13.253c-0.221-0.331-0.442-0.663-0.663-0.994
		c-2.592,0.091-5.66,0.12-7.289-0.663c0-5.19,0-10.382,0-15.572c9.732,0.066,18.064-1.382,26.837-1.657
		c1.436,3.865,2.872,7.731,4.307,11.596c-3.755,1.546-7.51,3.093-11.265,4.639C778.326,1069.713,778.547,1075.016,778.768,1080.316z
		 M1277.073,1052.154c0.331,0.442,0.663,0.883,0.994,1.325C1277.736,1053.037,1277.404,1052.596,1277.073,1052.154z
		 M318.896,1065.407c0,0.663,0,1.325,0,1.988C318.896,1066.732,318.896,1066.069,318.896,1065.407z M318.565,1067.726
		c0,0.442,0,0.883,0,1.325C318.565,1068.609,318.565,1068.168,318.565,1067.726z M318.234,1069.051c0,0.663,0,1.325,0,1.988
		C318.234,1070.376,318.234,1069.714,318.234,1069.051z M317.902,1071.702c0.691,1.662-0.449,8.107-1.325,8.614
		C317.019,1077.445,317.461,1074.573,317.902,1071.702z"/>
</g>
</svg>
