<svg width="375" height="375" viewBox="0 0 375 375" fill="none" xmlns="http://www.w3.org/2000/svg">
<g clip-path="url(#clip0_2265_94)">
<path d="M375 286.8H0V286.988H375V286.8Z" fill="#EBEBEB"/>
<path d="M337.425 298.867H312.585V299.055H337.425V298.867Z" fill="#EBEBEB"/>
<path d="M248.415 300.907H241.897V301.095H248.415V300.907Z" fill="#EBEBEB"/>
<path d="M311.835 291.907H297.443V292.095H311.835V291.907Z" fill="#EBEBEB"/>
<path d="M71.7375 293.167H39.345V293.355H71.7375V293.167Z" fill="#EBEBEB"/>
<path d="M83.1675 293.167H78.42V293.355H83.1675V293.167Z" fill="#EBEBEB"/>
<path d="M168.863 296.333H98.6025V296.52H168.863V296.333Z" fill="#EBEBEB"/>
<path d="M177.75 253.35H32.9325C31.798 253.348 30.7106 252.896 29.9091 252.093C29.1076 251.29 28.6575 250.202 28.6575 249.067V45.495C28.6673 44.367 29.1219 43.2885 29.9223 42.4937C30.7227 41.6988 31.8044 41.2519 32.9325 41.25H177.75C178.886 41.25 179.975 41.7012 180.778 42.5043C181.581 43.3074 182.032 44.3967 182.032 45.5325V249.067C182.032 250.203 181.581 251.293 180.778 252.096C179.975 252.899 178.886 253.35 177.75 253.35ZM32.9325 41.4C31.8477 41.402 30.8081 41.8343 30.0417 42.602C29.2754 43.3698 28.845 44.4102 28.845 45.495V249.067C28.845 250.152 29.2754 251.193 30.0417 251.96C30.8081 252.728 31.8477 253.161 32.9325 253.162H177.75C178.835 253.161 179.876 252.728 180.643 251.961C181.411 251.193 181.843 250.153 181.845 249.067V45.495C181.843 44.4095 181.411 43.3691 180.643 42.6016C179.876 41.8341 178.835 41.402 177.75 41.4H32.9325Z" fill="#EBEBEB"/>
<path d="M339.982 253.35H195.157C194.022 253.348 192.934 252.896 192.132 252.093C191.329 251.291 190.877 250.203 190.875 249.067V45.495C190.887 44.3663 191.343 43.2878 192.145 42.4932C192.946 41.6986 194.029 41.2519 195.157 41.25H339.982C341.109 41.2539 342.189 41.7017 342.988 42.4963C343.787 43.2909 344.24 44.3683 344.25 45.495V249.067C344.25 250.201 343.801 251.288 343.001 252.09C342.201 252.893 341.116 253.346 339.982 253.35ZM195.157 41.4C194.072 41.402 193.032 41.8341 192.264 42.6016C191.497 43.3691 191.064 44.4095 191.062 45.495V249.067C191.064 250.153 191.497 251.193 192.264 251.961C193.032 252.728 194.072 253.161 195.157 253.162H339.982C341.068 253.161 342.108 252.728 342.876 251.961C343.643 251.193 344.076 250.153 344.077 249.067V45.495C344.076 44.4095 343.643 43.3691 342.876 42.6016C342.108 41.8341 341.068 41.402 339.982 41.4H195.157Z" fill="#EBEBEB"/>
<path d="M163.837 214.402H69.0225V221.093H163.837V214.402Z" fill="#EBEBEB"/>
<path d="M163.837 214.402H122.61V221.093H163.837V214.402Z" fill="#E0E0E0"/>
<path d="M83.0325 221.092H69.0225V286.8H83.0325V221.092Z" fill="#EBEBEB"/>
<path d="M83.0325 227.872L69.0225 223.102V221.092H83.0325V227.872Z" fill="#E0E0E0"/>
<path d="M163.838 221.092H149.828V286.8H163.838V221.092Z" fill="#E0E0E0"/>
<path d="M136.62 221.092H122.61V286.8H136.62V221.092Z" fill="#EBEBEB"/>
<path d="M136.612 227.872L122.61 223.102V221.092H136.612V227.872Z" fill="#E0E0E0"/>
<path d="M110.25 221.092H96.24V286.8H110.25V221.092Z" fill="#E0E0E0"/>
<path d="M172.747 65.3775H53.25V167.13H172.747V65.3775Z" fill="#EBEBEB"/>
<path d="M172.748 167.122H174.083V65.37H172.748V167.122Z" fill="#E0E0E0"/>
<path d="M168.255 162.622V69.87H57.7575V162.622H168.255Z" fill="#F5F5F5"/>
<path d="M111.667 148.545C118.417 126.045 120.292 92.8575 134.647 97.4325C149.002 102.007 130.2 151.08 130.2 151.08L111.667 148.545Z" fill="white"/>
<path d="M123.263 149.663C116.393 117.053 118.125 73.7625 96.78 74.7525C75.435 75.7425 96.78 151.08 96.78 151.08L123.263 149.663Z" fill="white"/>
<path d="M138.345 146.002H91.6125C90.6589 145.972 89.7314 146.317 89.0299 146.964C88.3285 147.611 87.9092 148.507 87.8625 149.46C86.91 170.985 90.435 192.96 96.9975 214.402H132.78C139.342 192.922 142.867 170.985 141.915 149.46C141.878 148.535 141.487 147.66 140.822 147.016C140.158 146.373 139.27 146.009 138.345 146.002Z" fill="#EBEBEB"/>
<path d="M244.65 76.725H242.017V286.8H244.65V76.725Z" fill="#E0E0E0"/>
<path d="M306.518 76.725H303.885V286.8H306.518V76.725Z" fill="#E0E0E0"/>
<path d="M225.983 76.725H223.35V286.8H225.983V76.725Z" fill="#EBEBEB"/>
<path d="M287.85 76.725H285.218V286.8H287.85V76.725Z" fill="#EBEBEB"/>
<path d="M306.518 75.285H223.35V78.1575H306.518V75.285Z" fill="#EBEBEB"/>
<path d="M306.518 126.728H223.35V129.6H306.518V126.728Z" fill="#EBEBEB"/>
<path d="M306.518 178.17H223.35V181.042H306.518V178.17Z" fill="#EBEBEB"/>
<path d="M306.518 229.613H223.35V232.485H306.518V229.613Z" fill="#EBEBEB"/>
<path d="M306.518 281.055H223.35V283.928H306.518V281.055Z" fill="#EBEBEB"/>
<path d="M306.518 75.285H287.85V78.1575H306.518V75.285Z" fill="#E0E0E0"/>
<path d="M306.518 126.728H287.85V129.6H306.518V126.728Z" fill="#E0E0E0"/>
<path d="M306.518 178.17H287.85V181.042H306.518V178.17Z" fill="#E0E0E0"/>
<path d="M306.518 229.613H287.85V232.485H306.518V229.613Z" fill="#E0E0E0"/>
<path d="M306.518 281.055H287.85V283.928H306.518V281.055Z" fill="#E0E0E0"/>
<path d="M256.898 92.7825V88.7325H246.9V92.7825C246.9 94.0522 246.396 95.2701 245.499 96.1686C244.602 97.0672 243.385 97.573 242.115 97.575C240.845 97.575 239.627 98.0789 238.729 98.976C237.83 99.8732 237.324 101.09 237.323 102.36V126.75H266.483V102.36C266.481 101.09 265.975 99.8732 265.076 98.976C264.178 98.0789 262.96 97.575 261.69 97.575C260.419 97.575 259.2 97.0701 258.301 96.1713C257.402 95.2725 256.898 94.0535 256.898 92.7825Z" fill="#F0F0F0"/>
<path d="M277.59 161.445H233.775V178.178H277.59V161.445Z" fill="#F0F0F0"/>
<path d="M277.59 178.17H285.218V161.437H277.59V178.17Z" fill="#E6E6E6"/>
<path d="M277.59 170.73H285.218V168.885H277.59V170.73Z" fill="#EBEBEB"/>
<path d="M277.59 168.885H233.775V170.73H277.59V168.885Z" fill="#F5F5F5"/>
<path d="M265.853 251.475H231.63V281.055H265.853V251.475Z" fill="#F0F0F0"/>
<path d="M265.852 281.062H271.807V251.482H265.852V281.062Z" fill="#E6E6E6"/>
<path d="M265.852 267.9H271.807V264.637H265.852V267.9Z" fill="#EBEBEB"/>
<path d="M265.853 264.637H231.63V267.9H265.853V264.637Z" fill="#F5F5F5"/>
<path d="M265.852 262.35H271.807V261.187H265.852V262.35Z" fill="#EBEBEB"/>
<path d="M265.853 261.188H231.63V262.35H265.853V261.188Z" fill="#F5F5F5"/>
<path d="M239.97 199.537H233.775V229.612H239.97V199.537Z" fill="#F0F0F0"/>
<path d="M239.97 210.255H233.775V218.895H239.97V210.255Z" fill="#FAFAFA"/>
<path d="M239.97 229.62H261.045V199.545H239.97V229.62Z" fill="#E6E6E6"/>
<path d="M249.54 195.652H242.542V229.612H249.54V195.652Z" fill="#EBEBEB"/>
<path d="M249.54 206.445H242.542V211.673H249.54V206.445Z" fill="#FAFAFA"/>
<path d="M249.54 215.175H242.542V220.402H249.54V215.175Z" fill="#FAFAFA"/>
<path d="M249.547 229.613H273.345V195.653H249.547V229.613Z" fill="#E0E0E0"/>
<path d="M257.332 199.537H253.56V229.612H257.332V199.537Z" fill="#F0F0F0"/>
<path d="M256.68 203.348H254.205V225.803H256.68V203.348Z" fill="#FAFAFA"/>
<path d="M257.325 229.62H270.142V199.545H257.325V229.62Z" fill="#E6E6E6"/>
<path d="M267.405 197.955H263.145V229.613H267.405V197.955Z" fill="#EBEBEB"/>
<path d="M267.405 208.013H263.145V212.888H267.405V208.013Z" fill="#FAFAFA"/>
<path d="M267.405 216.158H263.145V221.033H267.405V216.158Z" fill="#FAFAFA"/>
<path d="M267.405 229.613H281.88V197.955H267.405V229.613Z" fill="#E0E0E0"/>
<path d="M265.468 158.713C269.111 155.069 269.111 149.162 265.468 145.518C261.824 141.874 255.917 141.874 252.273 145.518C248.629 149.162 248.629 155.069 252.273 158.713C255.917 162.356 261.824 162.356 265.468 158.713Z" fill="#F5F5F5"/>
<path d="M270.234 161.341C273.758 160.769 276.151 157.448 275.579 153.923C275.007 150.399 271.686 148.006 268.162 148.578C264.637 149.15 262.244 152.471 262.816 155.995C263.388 159.519 266.709 161.913 270.234 161.341Z" fill="#EBEBEB"/>
<path d="M187.5 320.67C267.812 320.67 332.918 316.869 332.918 312.18C332.918 307.491 267.812 303.69 187.5 303.69C107.188 303.69 42.0825 307.491 42.0825 312.18C42.0825 316.869 107.188 320.67 187.5 320.67Z" fill="#F5F5F5"/>
<path d="M94.5825 254.018H190.913V303.75C190.913 304.387 190.787 305.018 190.543 305.607C190.299 306.196 189.942 306.731 189.491 307.181C189.041 307.632 188.506 307.989 187.917 308.233C187.328 308.477 186.697 308.603 186.06 308.603H99.435C98.7978 308.603 98.1668 308.477 97.578 308.233C96.9893 307.989 96.4544 307.632 96.0038 307.181C95.5532 306.731 95.1958 306.196 94.9519 305.607C94.708 305.018 94.5825 304.387 94.5825 303.75V254.018Z" fill="#1C56BF"/>
<path d="M94.5825 254.018H162.75L154.365 243.285C153.443 242.108 151.163 241.155 149.265 241.155H87.96C86.07 241.155 85.275 242.108 86.1975 243.285L94.5825 254.018Z" fill="#407BFF"/>
<path opacity="0.2" d="M94.5825 254.018H162.75L154.365 243.285C153.443 242.108 151.163 241.155 149.265 241.155H87.96C86.07 241.155 85.275 242.108 86.1975 243.285L94.5825 254.018Z" fill="black"/>
<path d="M190.912 254.018H122.752L131.137 247.02C132.06 246.27 134.34 245.633 136.237 245.633H197.535C199.432 245.633 200.22 246.255 199.297 247.02L190.912 254.018Z" fill="#1C56BF"/>
<path opacity="0.2" d="M122.752 254.018H190.912V303.75C190.912 304.387 190.787 305.018 190.543 305.607C190.299 306.196 189.942 306.731 189.491 307.181C189.041 307.632 188.506 307.989 187.917 308.233C187.328 308.477 186.697 308.603 186.06 308.603H127.605C126.968 308.603 126.337 308.477 125.748 308.233C125.159 307.989 124.624 307.632 124.174 307.181C123.723 306.731 123.366 306.196 123.122 305.607C122.878 305.018 122.752 304.387 122.752 303.75V254.018Z" fill="white"/>
<path opacity="0.5" d="M103.042 254.018V288.128L105.397 286.268L107.055 288.128L108.495 286.058L109.972 288.128L112.027 286.575L114.292 288.128V254.018H103.042Z" fill="white"/>
<path d="M118.29 179.61L106.177 169.44" stroke="#407BFF" stroke-width="0.75" stroke-miterlimit="10"/>
<path d="M124.567 184.882L120.877 181.777" stroke="#407BFF" stroke-width="0.75" stroke-miterlimit="10"/>
<path d="M160.853 206.167L200.813 156.225L147.608 111.555L112.358 152.002L107.108 162.12C106.847 162.407 106.648 162.745 106.524 163.113C106.4 163.48 106.353 163.869 106.386 164.256C106.419 164.642 106.532 165.017 106.716 165.358C106.901 165.7 107.154 165.999 107.46 166.237L155.46 206.542C156.241 207.171 157.23 207.482 158.23 207.413C159.23 207.343 160.167 206.898 160.853 206.167Z" fill="#407BFF"/>
<path opacity="0.5" d="M133.448 169.335L127.695 178.597L130.013 179.1L130.8 181.245L132.338 181.335L133.05 183.172L134.933 183.72L136.38 186.022L142.133 176.76L133.448 169.335Z" fill="white"/>
<path opacity="0.1" d="M199.072 154.762L163.237 194.737L112.335 152.002L147.607 111.555L199.072 154.762Z" fill="black"/>
<path d="M199.073 154.763L163.238 194.738L178.073 195.832L213.353 155.385L199.073 154.763Z" fill="#407BFF"/>
<path opacity="0.3" d="M199.073 154.763L163.238 194.738L178.073 195.832L213.353 155.385L199.073 154.763Z" fill="black"/>
<path d="M133.335 110.925L97.4924 150.907L112.335 152.002L147.607 111.555L133.335 110.925Z" fill="#407BFF"/>
<path opacity="0.4" d="M133.335 110.925L97.4924 150.907L112.335 152.002L147.607 111.555L133.335 110.925Z" fill="black"/>
<path opacity="0.1" d="M188.04 167.07L199.072 154.762L147.607 111.555L141.022 127.425L188.04 167.07Z" fill="black"/>
<path opacity="0.2" d="M112.335 152.002L147.607 111.555L141.022 127.425L116.182 155.235L112.335 152.002Z" fill="black"/>
<path d="M211.5 79.5C211.643 79.98 211.5 80.4525 211.185 80.5425C210.87 80.6325 210.503 80.3175 210.36 79.8375C210.218 79.3575 210.36 78.885 210.675 78.7875C210.99 78.69 211.365 79.02 211.5 79.5Z" fill="#263238"/>
<path d="M211.553 80.445C211.411 82.0952 211.043 83.718 210.458 85.2675C210.859 85.4066 211.285 85.4565 211.707 85.4138C212.13 85.371 212.538 85.2366 212.903 85.02L211.553 80.445Z" fill="#ED847E"/>
<path d="M212.498 76.2975C212.561 76.2609 212.609 76.2021 212.633 76.1325C212.647 76.0961 212.653 76.0573 212.652 76.0183C212.65 75.9794 212.641 75.9411 212.624 75.906C212.607 75.8708 212.583 75.8395 212.554 75.814C212.524 75.7884 212.49 75.7692 212.453 75.7575C212.013 75.589 211.54 75.529 211.072 75.5825C210.605 75.6361 210.157 75.8016 209.768 76.065C209.717 76.1164 209.686 76.1844 209.682 76.2565C209.677 76.3286 209.699 76.4 209.743 76.4574C209.786 76.5149 209.849 76.5546 209.92 76.5693C209.991 76.584 210.064 76.5727 210.128 76.5375C210.439 76.3331 210.795 76.2061 211.165 76.167C211.536 76.1278 211.91 76.1777 212.258 76.3125C212.296 76.3267 212.338 76.3327 212.379 76.3301C212.42 76.3275 212.461 76.3164 212.498 76.2975Z" fill="#263238"/>
<path d="M228.18 82.71C228.51 86.685 229.492 93.96 231.84 95.64C231.84 95.64 231.285 100.417 222.84 101.64C213.585 103.005 217.74 97.695 217.74 97.695C222.607 95.745 221.925 92.0175 220.53 88.6275L224.1 84.5325C225.472 83.0175 228 80.6775 228.18 82.71Z" fill="#FFC3BD"/>
<path d="M234.862 97.5825C235.612 96.9 234.112 94.17 233.19 93.7875C230.775 92.775 220.897 93.7875 217.185 96.975C216.877 97.5024 216.691 98.092 216.64 98.7006C216.59 99.3092 216.676 99.9215 216.892 100.493L234.862 97.5825Z" fill="white"/>
<path d="M266.318 298.057C266.074 298.169 265.81 298.23 265.542 298.238C265.274 298.245 265.007 298.199 264.758 298.102C264.659 298.024 264.586 297.918 264.55 297.797C264.514 297.676 264.516 297.547 264.555 297.427C264.575 297.329 264.616 297.237 264.676 297.157C264.735 297.076 264.812 297.01 264.9 296.962C265.71 296.49 267.713 297.112 267.795 297.142C267.822 297.15 267.847 297.165 267.866 297.186C267.885 297.208 267.896 297.234 267.9 297.262C267.904 297.292 267.899 297.322 267.885 297.349C267.872 297.376 267.851 297.398 267.825 297.412C267.346 297.678 266.841 297.894 266.318 298.057ZM265.223 297.142L265.05 297.217C264.999 297.245 264.954 297.284 264.919 297.33C264.884 297.377 264.86 297.431 264.848 297.487C264.795 297.757 264.9 297.84 264.93 297.862C265.29 298.117 266.513 297.75 267.36 297.322C266.669 297.106 265.94 297.044 265.223 297.142Z" fill="#407BFF"/>
<path d="M267.795 297.42C267.771 297.428 267.744 297.428 267.72 297.42C266.97 297.27 265.402 296.333 265.32 295.628C265.308 295.517 265.335 295.405 265.397 295.312C265.459 295.219 265.551 295.15 265.657 295.118C265.761 295.071 265.874 295.047 265.987 295.047C266.101 295.047 266.214 295.071 266.317 295.118C267.187 295.478 267.862 297.158 267.885 297.225C267.9 297.247 267.908 297.273 267.908 297.3C267.908 297.327 267.9 297.353 267.885 297.375C267.874 297.389 267.861 297.4 267.845 297.408C267.83 297.416 267.812 297.42 267.795 297.42ZM265.845 295.373C265.823 295.366 265.799 295.366 265.777 295.373C265.605 295.448 265.612 295.538 265.62 295.575C265.665 295.995 266.73 296.753 267.487 297.03C267.262 296.543 266.737 295.598 266.205 295.373C266.089 295.328 265.961 295.328 265.845 295.373Z" fill="#407BFF"/>
<path d="M222.36 306.113C221.558 306.113 220.785 306 220.523 305.64C220.455 305.546 220.419 305.433 220.419 305.318C220.419 305.202 220.455 305.089 220.523 304.995C220.573 304.908 220.639 304.832 220.719 304.772C220.799 304.711 220.89 304.667 220.988 304.643C222.03 304.365 224.22 305.61 224.31 305.663C224.338 305.676 224.361 305.698 224.375 305.725C224.389 305.753 224.394 305.784 224.389 305.814C224.384 305.845 224.369 305.873 224.347 305.894C224.324 305.915 224.296 305.929 224.265 305.933C223.637 306.05 222.999 306.11 222.36 306.113ZM221.37 304.898C221.274 304.894 221.177 304.906 221.085 304.935C220.965 304.962 220.86 305.034 220.793 305.138C220.688 305.325 220.725 305.415 220.793 305.468C221.085 305.873 222.668 305.88 223.793 305.715C223.045 305.289 222.223 305.011 221.37 304.898Z" fill="#407BFF"/>
<path d="M224.25 305.94H224.19C223.44 305.603 221.94 304.245 222.052 303.54C222.052 303.375 222.202 303.165 222.607 303.128C222.754 303.111 222.902 303.125 223.043 303.169C223.184 303.213 223.314 303.286 223.425 303.383C224.227 304.035 224.393 305.723 224.4 305.79C224.404 305.816 224.401 305.843 224.39 305.866C224.379 305.89 224.362 305.911 224.34 305.925C224.312 305.94 224.281 305.945 224.25 305.94ZM222.75 303.405H222.66C222.39 303.405 222.375 303.54 222.367 303.57C222.3 303.998 223.32 305.07 224.085 305.528C224.02 304.812 223.731 304.135 223.26 303.593C223.119 303.469 222.937 303.402 222.75 303.405Z" fill="#407BFF"/>
<path d="M231.135 305.79H224.872L224.25 291.3H230.513L231.135 305.79Z" fill="#FFC3BD"/>
<path d="M275.122 295.897L269.355 297.885L263.37 284.227L269.137 282.24L275.122 295.897Z" fill="#FFC3BD"/>
<path d="M267.983 296.452L274.733 294.39C274.852 294.353 274.98 294.359 275.096 294.405C275.212 294.452 275.309 294.536 275.37 294.645L278.183 299.595C278.25 299.716 278.289 299.851 278.298 299.989C278.306 300.128 278.283 300.266 278.23 300.394C278.178 300.523 278.097 300.637 277.994 300.73C277.891 300.823 277.768 300.891 277.635 300.93C275.272 301.612 274.095 301.822 271.14 302.73C269.317 303.285 264.727 305.025 262.14 305.542C259.552 306.06 258.72 303.585 259.725 303.142C264.225 301.155 266.07 298.897 267.143 297.142C267.33 296.818 267.628 296.573 267.983 296.452Z" fill="#263238"/>
<path d="M224.918 305.062H231.75C231.874 305.064 231.993 305.107 232.09 305.185C232.186 305.262 232.254 305.37 232.283 305.49L233.52 311.055C233.551 311.189 233.551 311.329 233.519 311.463C233.488 311.597 233.427 311.722 233.34 311.829C233.254 311.936 233.144 312.022 233.019 312.08C232.894 312.138 232.758 312.167 232.62 312.165C230.153 312.128 226.62 311.978 223.493 311.978C219.87 311.978 218.348 312.18 214.095 312.18C211.53 312.18 210.818 309.585 211.89 309.345C216.788 308.272 219.18 308.16 223.41 305.55C223.859 305.253 224.38 305.084 224.918 305.062Z" fill="#263238"/>
<path d="M243.105 99.63C244.927 101.303 246.502 102.975 248.137 104.723C249.772 106.47 251.287 108.278 252.757 110.205C254.293 112.163 255.686 114.228 256.927 116.385C257.606 117.574 258.192 118.812 258.682 120.09C258.81 120.443 258.937 120.78 259.042 121.163C259.165 121.549 259.268 121.942 259.35 122.34L259.477 122.963L259.567 123.653C259.651 124.285 259.651 124.925 259.567 125.558C259.395 126.751 258.954 127.89 258.277 128.888C257.784 129.616 257.204 130.284 256.552 130.875C255.504 131.826 254.358 132.663 253.132 133.373C250.974 134.607 248.716 135.658 246.382 136.515C241.955 138.158 237.393 139.413 232.747 140.265L231.435 135.765C235.507 134.003 239.632 132.098 243.435 130.065C245.286 129.094 247.068 127.996 248.767 126.78C249.475 126.277 250.127 125.699 250.71 125.055C250.887 124.865 251.036 124.65 251.152 124.418C251.212 124.29 251.152 124.305 251.077 124.575C251.025 125.078 251.032 124.688 250.912 124.418C250.875 124.29 250.807 124.118 250.74 123.953C250.672 123.788 250.59 123.6 250.507 123.42C250.101 122.602 249.648 121.808 249.15 121.043C247.992 119.323 246.74 117.668 245.4 116.085C244.02 114.45 242.565 112.823 241.072 111.225C239.58 109.628 238.012 108.015 236.572 106.53L243.105 99.63Z" fill="#FFC3BD"/>
<path d="M233.152 135.052L227.25 136.837L231.045 143.077C231.045 143.077 234.532 141.637 235.305 138.675L233.152 135.052Z" fill="#FFC3BD"/>
<path d="M224.865 139.05L227.19 144.195L231.007 143.085L227.212 136.838L224.865 139.05Z" fill="#FFC3BD"/>
<path d="M229.275 101.325C228.712 107.325 241.402 116.61 241.402 116.61L253.62 108.248C251.498 104.335 248.397 101.04 244.62 98.685C237.615 94.2 229.98 93.87 229.275 101.325Z" fill="#407BFF"/>
<g opacity="0.3">
<path d="M229.275 101.325C228.712 107.325 241.402 116.61 241.402 116.61L253.62 108.248C251.498 104.335 248.397 101.04 244.62 98.685C237.615 94.2 229.98 93.87 229.275 101.325Z" fill="white"/>
</g>
<path d="M208.5 100.845C208.5 100.845 203.017 109.26 216.037 154.395L249.142 149.505C248.677 144.93 243.142 124.972 242.955 103.155C242.947 102.101 242.726 101.06 242.305 100.094C241.884 99.1286 241.272 98.2581 240.505 97.5355C239.738 96.8129 238.833 96.2531 237.844 95.8899C236.855 95.5268 235.802 95.3678 234.75 95.4225C233.79 95.475 232.8 95.5425 231.817 95.64C227.091 96.0614 222.394 96.755 217.747 97.7175C214.589 98.521 211.498 99.5666 208.5 100.845Z" fill="#407BFF"/>
<g opacity="0.3">
<path d="M208.5 100.845C208.5 100.845 203.017 109.26 216.037 154.395L249.142 149.505C248.677 144.93 243.142 124.972 242.955 103.155C242.947 102.101 242.726 101.06 242.305 100.094C241.884 99.1286 241.272 98.2581 240.505 97.5355C239.738 96.8129 238.833 96.2531 237.844 95.8899C236.855 95.5268 235.802 95.3678 234.75 95.4225C233.79 95.475 232.8 95.5425 231.817 95.64C227.091 96.0614 222.394 96.755 217.747 97.7175C214.589 98.521 211.498 99.5666 208.5 100.845Z" fill="white"/>
</g>
<path opacity="0.2" d="M207.69 115.35L207.803 115.223L215.588 115.913C216.773 120.938 212.438 127.793 210.15 130.973C209.049 125.813 208.228 120.598 207.69 115.35Z" fill="black"/>
<path opacity="0.2" d="M224.25 291.307L224.572 298.777H230.835L230.513 291.307H224.25Z" fill="black"/>
<path opacity="0.2" d="M269.137 282.24L263.37 284.227L266.46 291.27L272.227 289.282L269.137 282.24Z" fill="black"/>
<path d="M227.363 73.74C228.743 79.7925 229.853 83.265 227.745 87.24C224.58 93.1575 216.435 92.5875 213.278 87.0675C210.435 82.095 208.65 73.035 213.78 68.955C214.904 68.0523 216.24 67.4514 217.661 67.2091C219.083 66.9667 220.542 67.0909 221.902 67.57C223.262 68.0491 224.477 68.8671 225.433 69.9468C226.388 71.0264 227.052 72.332 227.363 73.74Z" fill="#FFC3BD"/>
<path d="M215.205 79.6725L212.902 81.0825L213.12 73.2075C211.635 73.2713 210.171 72.8471 208.95 72C209.782 71.205 222.742 66.6675 226.785 67.455C227.205 67.2825 227.715 66.5025 227.715 66.5025C227.715 66.5025 227.872 67.485 227.19 67.86C227.685 67.7625 228.922 68.0025 229.267 68.73C228.7 68.5749 228.097 68.6092 227.55 68.8275C227.55 68.8275 232.05 69.51 230.452 75.75C228.66 82.6275 229.252 86.58 229.252 86.58C229.252 86.58 225.907 89.1675 222.997 88.6875C219.892 85.2675 215.407 81.1575 215.205 79.6725Z" fill="#263238"/>
<path d="M210.795 71.3775C207.142 71.3775 205.83 69.5925 204.892 68.0925C207.517 67.815 212.985 66.1275 217.042 65.8425C221.1 65.5575 225.547 66.315 224.205 68.0925C222.862 69.87 210.795 71.3775 210.795 71.3775Z" fill="#263238"/>
<path d="M211.597 69.75C208.597 69.33 205.672 66.5025 207.922 63.795C208.755 65.7825 214.372 65.55 218.362 64.7175C223.612 63.6225 227.25 65.3925 225.39 68.97C224.37 70.9275 211.597 69.75 211.597 69.75Z" fill="#263238"/>
<path d="M218.445 77.88C218.874 79.3609 218.806 80.9418 218.25 82.38C217.5 84.2625 215.835 83.88 214.965 82.2525C214.215 80.7525 213.645 78.03 214.92 76.6725C216.195 75.315 217.905 76.1025 218.445 77.88Z" fill="#FFC3BD"/>
<path d="M227.782 152.663C227.782 152.663 233.152 198.375 237.052 216.285C241.32 235.905 262.372 289.395 262.372 289.395L272.872 285.765C272.872 285.765 259.372 245.49 255.787 218.063C253.035 197.003 249.112 149.505 249.112 149.505L227.782 152.663Z" fill="#263238"/>
<path d="M259.687 286.035C259.635 286.035 261.84 290.535 261.84 290.535L274.102 286.553L272.662 282.893L259.687 286.035Z" fill="#407BFF"/>
<path opacity="0.3" d="M230.745 176.115C232.425 188.82 234.577 203.865 236.467 213.472C239.25 198.75 239.902 180.157 230.745 176.115Z" fill="black"/>
<path d="M216.037 154.395C216.037 154.395 211.582 197.34 212.287 216.42C212.992 236.265 222.262 297.33 222.262 297.33H232.86C232.86 297.33 230.91 237.42 231.36 217.935C231.877 196.687 239.842 150.878 239.842 150.878L216.037 154.395Z" fill="#263238"/>
<path d="M220.2 293.107C220.155 293.107 220.8 297.502 220.8 297.502H233.692L234.045 293.58L220.2 293.107Z" fill="#407BFF"/>
<path d="M213.982 111.39C212.812 113.25 211.627 114.923 210.397 116.64C209.167 118.358 207.877 120.015 206.565 121.665C203.889 125.012 200.99 128.174 197.887 131.13C197.047 131.88 196.275 132.63 195.367 133.313L194.707 133.845L194.377 134.108C194.257 134.205 194.205 134.258 193.957 134.438C193.214 134.968 192.398 135.387 191.535 135.683C190.198 136.139 188.8 136.392 187.387 136.433C186.193 136.473 184.997 136.42 183.81 136.275C179.472 135.706 175.24 134.509 171.247 132.72L172.545 128.22C176.382 128.675 180.247 128.861 184.11 128.775C184.964 128.73 185.816 128.638 186.66 128.498C187.296 128.405 187.914 128.212 188.49 127.928C188.67 127.83 188.767 127.733 188.745 127.71C188.722 127.688 188.842 127.613 188.91 127.545L189.165 127.313L189.667 126.84C190.342 126.24 190.98 125.513 191.64 124.853C192.937 123.458 194.227 122.025 195.45 120.503C196.672 118.98 197.91 117.45 199.11 115.875C200.31 114.3 201.472 112.703 202.642 111.105C203.812 109.508 204.952 107.828 206.032 106.275L213.982 111.39Z" fill="#FFC3BD"/>
<path d="M218.34 109.402C220.86 117.652 206.228 126.795 206.228 126.795L196.718 114.682C198.861 110.689 201.508 106.986 204.593 103.665C211.065 96.6225 216.42 103.125 218.34 109.402Z" fill="#407BFF"/>
<g opacity="0.3">
<path d="M218.34 109.402C220.86 117.652 206.228 126.795 206.228 126.795L196.718 114.682C198.861 110.689 201.508 106.986 204.593 103.665C211.065 96.6225 216.42 103.125 218.34 109.402Z" fill="white"/>
</g>
<path d="M174.75 128.498L167.047 127.088L167.857 133.748C167.857 133.748 171.862 135.998 174.765 132.48L174.75 128.498Z" fill="#FFC3BD"/>
<path d="M164.078 128.588L165.743 133.395L167.843 133.748L167.033 127.088L164.078 128.588Z" fill="#FFC3BD"/>
</g>
<defs>
<clipPath id="clip0_2265_94">
<rect width="375" height="375" fill="white"/>
</clipPath>
</defs>
</svg>
